<svg width="70" height="70" viewBox="0 0 70 70" fill="none" xmlns="http://www.w3.org/2000/svg">
<path d="M64.9851 17.6297C65.8891 18.0115 66.2336 19.1146 65.7076 19.9427L60.2135 28.6142L60.1973 28.5894L46.6348 23.3278V9.85855L64.9851 17.6297Z" fill="#383276"/>
<path d="M65.7075 37.2857C66.2336 38.1151 65.8892 39.2158 64.985 39.5988L60.1973 41.6258L42.3146 49.2005C41.5995 49.5026 40.7688 49.244 40.3534 48.5874L34.5833 41.3026L60.1973 28.6392L60.2122 28.6155L60.2134 28.6142L65.7075 37.2857Z" fill="#383276"/>
<path d="M60.1973 45.8962C63.9218 46.2468 66.8355 49.3819 66.8355 53.1972C66.8355 57.2475 63.5525 60.5305 59.5022 60.5305C56.9031 60.5305 54.6198 59.1788 53.3166 57.1393C52.5904 56.0015 52.1687 54.6485 52.1687 53.1972C52.1687 49.1481 55.4517 45.8639 59.502 45.8639C59.7372 45.8639 59.9685 45.8751 60.1973 45.8962ZM63.2603 51.1192C63.5512 50.827 63.5512 50.3544 63.2603 50.0634C62.9693 49.7723 62.4968 49.7724 62.2044 50.0634L57.5186 54.7492L56.7998 54.0292C56.5088 53.7382 56.0363 53.7382 55.7439 54.0292C55.453 54.3214 55.453 54.794 55.7439 55.085L56.9912 56.3323C57.1367 56.4778 57.3282 56.5499 57.5185 56.5499C57.71 56.5499 57.9014 56.4778 58.047 56.3323L63.2603 51.1192Z" fill="#383276"/>
<path d="M63.2601 50.0635C63.551 50.3544 63.551 50.827 63.2601 51.1193L58.047 56.3324C57.9015 56.4779 57.71 56.5501 57.5184 56.5501C57.3281 56.5501 57.1366 56.4779 56.9911 56.3324L55.7438 55.0852C55.4529 54.7942 55.4529 54.3217 55.7438 54.0293C56.0361 53.7384 56.5086 53.7384 56.7997 54.0293L57.5185 54.7493L62.2043 50.0635C62.4966 49.7724 62.9691 49.7724 63.2601 50.0635Z" fill="#383276"/>
<path d="M34.5597 41.2739L34.5361 41.3024L8.92217 28.639L8.90728 28.6155L8.90601 28.6142L8.92217 28.5894L22.4833 23.329V32.3711H46.6349V23.3278L60.1973 28.5894L60.2135 28.6142L60.2123 28.6155L60.1973 28.639L34.5834 41.3024L34.5597 41.2739Z" fill="#ADC6B9"/>
<path d="M60.1971 41.627V45.8962C59.9683 45.8751 59.737 45.8639 59.502 45.8639C55.4516 45.8639 52.1686 49.1482 52.1686 53.1972C52.1686 54.6485 52.5902 56.0015 53.3165 57.1394L34.5596 65.0822V65.0809V41.3162V41.3149L34.5832 41.3024L40.3534 48.5873C40.7687 49.2439 41.5994 49.5025 42.3146 49.2003L60.1973 41.6257V41.627H60.1971Z" fill="#7B2E86"/>
<path d="M48.663 4.91782V9.60858H46.6346H37.7356V4.91782H48.663Z" fill="#7B2E86"/>
<path d="M46.6347 23.3278V32.3711H22.4832V23.329V9.85854L23.0751 9.60858H31.3835V13.6266H37.7356V9.60858H46.6347V9.85854V23.3278ZM43.9747 25.5202C43.9747 25.1086 43.6402 24.774 43.2285 24.774H33.4453C33.0324 24.774 32.6991 25.1085 32.6991 25.5202C32.6991 25.9331 33.0324 26.2664 33.4453 26.2664H43.2285C43.6402 26.2663 43.9747 25.9331 43.9747 25.5202ZM39.8834 28.9512C39.8834 28.5384 39.5489 28.205 39.1372 28.205H33.4453C33.0324 28.205 32.6991 28.5384 32.6991 28.9512C32.6991 29.3628 33.0324 29.6974 33.4453 29.6974H39.1372C39.5488 29.6974 39.8834 29.3628 39.8834 28.9512Z" fill="#7B2E86"/>
<path d="M43.2286 24.774C43.6402 24.774 43.9748 25.1085 43.9748 25.5202C43.9748 25.9331 43.6403 26.2664 43.2286 26.2664H33.4454C33.0325 26.2664 32.6992 25.9331 32.6992 25.5202C32.6992 25.1086 33.0325 24.774 33.4454 24.774H43.2286Z" fill="#383276"/>
<path d="M39.1373 28.205C39.5489 28.205 39.8835 28.5384 39.8835 28.9512C39.8835 29.3628 39.549 29.6974 39.1373 29.6974H33.4454C33.0325 29.6974 32.6992 29.363 32.6992 28.9512C32.6992 28.5384 33.0325 28.205 33.4454 28.205H39.1373Z" fill="#383276"/>
<path d="M37.7357 9.60858V13.6266H31.3835V9.60858V4.91782H37.7357V9.60858Z" fill="#383276"/>
<path d="M34.5597 41.3162V65.0809L8.92212 54.2244V41.6257L26.806 49.2003C27.521 49.5025 28.3506 49.2439 28.7658 48.5873L34.536 41.3024L34.5597 41.3149V41.3162Z" fill="#7B2E86"/>
<path d="M34.536 41.3024L28.7658 48.5873C28.3504 49.2439 27.5209 49.5025 26.8059 49.2003L8.92207 41.6258L4.13433 39.5988C3.23031 39.2158 2.88578 38.1151 3.4118 37.2857L8.90591 28.6142L8.90718 28.6155L8.92207 28.6392L34.536 41.3024Z" fill="#383276"/>
<path d="M31.3836 4.91782V9.60858H23.0752H22.4832H20.4563V4.91782H31.3836Z" fill="#7B2E86"/>
<path d="M22.4833 9.85855V23.329L8.9221 28.5894L8.90594 28.6142L3.41183 19.9427C2.88581 19.1146 3.23021 18.0115 4.13436 17.6297L22.4833 9.85855Z" fill="#383276"/>
</svg>
