<svg width="70" height="70" viewBox="0 0 70 70" fill="none" xmlns="http://www.w3.org/2000/svg">
<path d="M20.7813 54.6875C19.6996 54.6875 18.6423 55.0082 17.743 55.6091C16.8436 56.2101 16.1427 57.0642 15.7288 58.0634C15.3149 59.0627 15.2066 60.1623 15.4176 61.2232C15.6286 62.284 16.1494 63.2584 16.9143 64.0232C17.6791 64.7881 18.6535 65.3089 19.7144 65.5199C20.7752 65.7309 21.8748 65.6226 22.8741 65.2087C23.8733 64.7948 24.7274 64.0939 25.3284 63.1945C25.9293 62.2952 26.25 61.2379 26.25 60.1562C26.25 59.4381 26.1086 58.7269 25.8337 58.0634C25.5589 57.4 25.1561 56.7971 24.6482 56.2893C24.1404 55.7814 23.5376 55.3786 22.8741 55.1038C22.2106 54.829 21.4994 54.6875 20.7813 54.6875ZM20.7813 63.4375C20.1323 63.4375 19.4979 63.2451 18.9583 62.8845C18.4187 62.524 17.9981 62.0115 17.7498 61.4119C17.5014 60.8124 17.4364 60.1526 17.5631 59.5161C17.6897 58.8796 18.0022 58.2949 18.4611 57.8361C18.9199 57.3772 19.5046 57.0647 20.1411 56.938C20.7776 56.8114 21.4374 56.8764 22.0369 57.1248C22.6365 57.3731 23.149 57.7937 23.5095 58.3333C23.8701 58.8729 24.0625 59.5073 24.0625 60.1562C24.0625 61.0265 23.7168 61.8611 23.1014 62.4764C22.4861 63.0918 21.6515 63.4375 20.7813 63.4375Z" fill="url(#paint0_linear_220_16)"/>
<path d="M39.375 50.3125H4.375V56.875H13.8688C14.4886 55.5662 15.4673 54.4603 16.691 53.6859C17.9147 52.9114 19.3331 52.5003 20.7812 52.5003C22.2294 52.5003 23.6478 52.9114 24.8715 53.6859C26.0952 54.4603 27.0739 55.5662 27.6938 56.875H39.375V50.3125Z" fill="url(#paint1_linear_220_16)"/>
<path d="M20.7812 61.25C21.3853 61.25 21.875 60.7603 21.875 60.1562C21.875 59.5522 21.3853 59.0625 20.7812 59.0625C20.1772 59.0625 19.6875 59.5522 19.6875 60.1562C19.6875 60.7603 20.1772 61.25 20.7812 61.25Z" fill="#7B2E86"/>
<path d="M54.6875 61.25C55.2916 61.25 55.7812 60.7603 55.7812 60.1562C55.7812 59.5522 55.2916 59.0625 54.6875 59.0625C54.0834 59.0625 53.5938 59.5522 53.5938 60.1562C53.5938 60.7603 54.0834 61.25 54.6875 61.25Z" fill="#7B2E86"/>
<path d="M20.7812 31.7188H22.9688V33.9062H20.7812V31.7188Z" fill="url(#paint2_linear_220_16)"/>
<path d="M28.3501 59.0625C28.4668 59.787 28.4668 60.5255 28.3501 61.25H47.1188C47.0022 60.5255 47.0022 59.787 47.1188 59.0625H28.3501Z" fill="url(#paint3_linear_220_16)"/>
<path d="M25.1562 35C25.1562 35.2901 25.041 35.5683 24.8359 35.7734C24.6308 35.9785 24.3526 36.0938 24.0625 36.0938H19.6875C19.3974 36.0938 19.1192 35.9785 18.9141 35.7734C18.709 35.5683 18.5938 35.2901 18.5938 35V31.7188H14.2188V42.6562H29.5312V31.7188H25.1562V35ZM28.4375 40.4688C28.4375 40.7588 28.3223 41.037 28.1171 41.2421C27.912 41.4473 27.6338 41.5625 27.3438 41.5625H24.0625C23.7724 41.5625 23.4942 41.4473 23.2891 41.2421C23.084 41.037 22.9688 40.7588 22.9688 40.4688C22.9688 40.1787 23.084 39.9005 23.2891 39.6954C23.4942 39.4902 23.7724 39.375 24.0625 39.375H27.3438C27.6338 39.375 27.912 39.4902 28.1171 39.6954C28.3223 39.9005 28.4375 40.1787 28.4375 40.4688Z" fill="url(#paint4_linear_220_16)"/>
<path d="M54.6875 54.6875C53.6059 54.6875 52.5486 55.0082 51.6492 55.6091C50.7499 56.2101 50.049 57.0642 49.635 58.0634C49.2211 59.0627 49.1128 60.1623 49.3238 61.2232C49.5348 62.284 50.0557 63.2584 50.8205 64.0232C51.5853 64.7881 52.5598 65.3089 53.6206 65.5199C54.6814 65.7309 55.781 65.6226 56.7803 65.2087C57.7796 64.7948 58.6337 64.0939 59.2346 63.1945C59.8355 62.2952 60.1563 61.2379 60.1563 60.1562C60.1563 58.7058 59.5801 57.3148 58.5545 56.2893C57.5289 55.2637 56.1379 54.6875 54.6875 54.6875ZM54.6875 63.4375C54.0385 63.4375 53.4041 63.2451 52.8645 62.8845C52.3249 62.524 51.9044 62.0115 51.656 61.4119C51.4077 60.8124 51.3427 60.1526 51.4693 59.5161C51.5959 58.8796 51.9084 58.2949 52.3673 57.8361C52.8262 57.3772 53.4109 57.0647 54.0474 56.938C54.6839 56.8114 55.3436 56.8764 55.9432 57.1248C56.5428 57.3731 57.0552 57.7937 57.4158 58.3333C57.7763 58.8729 57.9688 59.5073 57.9688 60.1562C57.9688 61.0265 57.623 61.8611 57.0077 62.4764C56.3923 63.0918 55.5577 63.4375 54.6875 63.4375Z" fill="url(#paint5_linear_220_16)"/>
<path d="M20.7812 27.3438H22.9688V29.5312H20.7812V27.3438Z" fill="#1A125F"/>
<path d="M6.5625 59.0625V60.1562C6.5625 60.4463 6.67773 60.7245 6.88285 60.9296C7.08797 61.1348 7.36617 61.25 7.65625 61.25H13.2125C13.0958 60.5255 13.0958 59.787 13.2125 59.0625H6.5625Z" fill="#1A125F"/>
<path d="M39.375 21.875H4.375V48.125H39.375V21.875ZM31.7188 43.75C31.7188 44.0401 31.6035 44.3183 31.3984 44.5234C31.1933 44.7285 30.9151 44.8438 30.625 44.8438H13.125C12.8349 44.8438 12.5567 44.7285 12.3516 44.5234C12.1465 44.3183 12.0312 44.0401 12.0312 43.75V30.625C12.0354 30.5368 12.0464 30.449 12.0641 30.3625L13.1578 25.9875C13.2164 25.7504 13.3528 25.5397 13.545 25.389C13.7373 25.2384 13.9745 25.1564 14.2188 25.1562H29.5312C29.7755 25.1564 30.0127 25.2384 30.205 25.389C30.3972 25.5397 30.5336 25.7504 30.5922 25.9875L31.6859 30.3625C31.7036 30.449 31.7146 30.5368 31.7188 30.625V43.75Z" fill="#383276"/>
<path d="M18.5937 27.3438H15.0718L14.5249 29.5312H18.5937V27.3438Z" fill="#7B2E86"/>
<path d="M62.3438 60.1562C62.3423 60.5225 62.3131 60.8881 62.2563 61.25H64.5313C64.8214 61.25 65.0996 61.1348 65.3047 60.9296C65.5099 60.7245 65.6251 60.4463 65.6251 60.1562V59.0625H62.2563C62.3131 59.4244 62.3423 59.79 62.3438 60.1562Z" fill="url(#paint6_linear_220_16)"/>
<path d="M60.1562 44.8438H49.2188C48.3493 44.8412 47.5162 44.4946 46.9014 43.8798C46.2866 43.265 45.9401 42.4319 45.9375 41.5625V35H41.5625V56.875H47.775C48.3949 55.5662 49.3736 54.4603 50.5972 53.6859C51.8209 52.9114 53.2393 52.5003 54.6875 52.5003C56.1357 52.5003 57.5541 52.9114 58.7778 53.6859C60.0014 54.4603 60.9801 55.5662 61.6 56.875H65.625V50.3125C65.625 48.8621 65.0488 47.4711 64.0232 46.4455C62.9977 45.4199 61.6067 44.8438 60.1562 44.8438ZM51.4062 48.125H49.2188C48.9287 48.125 48.6505 48.0098 48.4454 47.8046C48.2402 47.5995 48.125 47.3213 48.125 47.0312C48.125 46.7412 48.2402 46.463 48.4454 46.2579C48.6505 46.0527 48.9287 45.9375 49.2188 45.9375H51.4062C51.6963 45.9375 51.9745 46.0527 52.1796 46.2579C52.3848 46.463 52.5 46.7412 52.5 47.0312C52.5 47.3213 52.3848 47.5995 52.1796 47.8046C51.9745 48.0098 51.6963 48.125 51.4062 48.125Z" fill="url(#paint7_linear_220_16)"/>
<path d="M49.2188 42.6562H58.4719L56.5141 38.2484C56.0845 37.2815 55.3836 36.4599 54.4964 35.8833C53.6092 35.3067 52.5737 34.9999 51.5156 35H48.125V41.5625C48.125 41.8526 48.2402 42.1308 48.4454 42.3359C48.6505 42.541 48.9287 42.6562 49.2188 42.6562Z" fill="url(#paint8_linear_220_16)"/>
<path d="M28.6781 27.3438H25.1562V29.5312H29.225L28.6781 27.3438Z" fill="#7B2E86"/>
<path d="M44.8438 9.84375C45.1338 9.84375 45.412 9.72852 45.6171 9.5234C45.8223 9.31828 45.9375 9.04008 45.9375 8.75V6.5625C45.9375 6.27242 45.8223 5.99422 45.6171 5.7891C45.412 5.58398 45.1338 5.46875 44.8438 5.46875C44.5537 5.46875 44.2755 5.58398 44.0704 5.7891C43.8652 5.99422 43.75 6.27242 43.75 6.5625V8.75C43.75 9.04008 43.8652 9.31828 44.0704 9.5234C44.2755 9.72852 44.5537 9.84375 44.8438 9.84375Z" fill="url(#paint9_linear_220_16)"/>
<path d="M37.1875 7.51955C37.0629 7.59137 36.9538 7.68703 36.8662 7.80107C36.7787 7.9151 36.7145 8.04528 36.6773 8.18414C36.6402 8.323 36.6307 8.46784 36.6496 8.61035C36.6684 8.75287 36.7152 8.89027 36.7871 9.0147L37.8809 10.9091C38.027 11.1582 38.2657 11.3395 38.5449 11.4133C38.8241 11.4872 39.1212 11.4475 39.3713 11.3031C39.6215 11.1587 39.8043 10.9212 39.88 10.6425C39.9557 10.3638 39.918 10.0664 39.7753 9.81533L38.6815 7.92095C38.6098 7.79648 38.5142 7.68735 38.4003 7.59981C38.2864 7.51227 38.1564 7.44803 38.0176 7.41075C37.8789 7.37347 37.7342 7.3639 37.5917 7.38256C37.4493 7.40123 37.3119 7.44778 37.1875 7.51955Z" fill="url(#paint10_linear_220_16)"/>
<path d="M33.0771 12.7247C32.9526 12.6517 32.815 12.6041 32.6721 12.5846C32.5292 12.565 32.3838 12.574 32.2444 12.6108C32.1049 12.6477 31.9741 12.7118 31.8595 12.7994C31.745 12.887 31.6488 12.9964 31.5767 13.1214C31.5046 13.2463 31.4579 13.3842 31.4393 13.5273C31.4207 13.6703 31.4306 13.8156 31.4684 13.9548C31.5062 14.094 31.5711 14.2244 31.6595 14.3384C31.7479 14.4524 31.8579 14.5478 31.9833 14.6191L33.8777 15.7128C34.0021 15.7858 34.1398 15.8334 34.2827 15.8529C34.4256 15.8725 34.571 15.8635 34.7104 15.8267C34.8499 15.7898 34.9807 15.7257 35.0953 15.6381C35.2098 15.5505 35.306 15.4411 35.3781 15.3161C35.4502 15.1912 35.4969 15.0533 35.5155 14.9102C35.5341 14.7672 35.5242 14.6219 35.4864 14.4827C35.4486 14.3435 35.3837 14.2131 35.2953 14.0991C35.2069 13.9851 35.0969 13.8897 34.9715 13.8184L33.0771 12.7247Z" fill="url(#paint11_linear_220_16)"/>
<path d="M56.875 21.875H59.0625C59.3526 21.875 59.6308 21.7598 59.8359 21.5546C60.041 21.3495 60.1562 21.0713 60.1562 20.7812C60.1562 20.4912 60.041 20.213 59.8359 20.0079C59.6308 19.8027 59.3526 19.6875 59.0625 19.6875H56.875C56.5849 19.6875 56.3067 19.8027 56.1016 20.0079C55.8965 20.213 55.7812 20.4912 55.7812 20.7812C55.7812 21.0713 55.8965 21.3495 56.1016 21.5546C56.3067 21.7598 56.5849 21.875 56.875 21.875Z" fill="url(#paint12_linear_220_16)"/>
<path d="M58.1055 13.125C58.0337 13.0005 57.938 12.8913 57.824 12.8038C57.71 12.7163 57.5798 12.6521 57.4409 12.6149C57.3021 12.5777 57.1572 12.5683 57.0147 12.5871C56.8722 12.606 56.7348 12.6527 56.6104 12.7247L54.716 13.8185C54.5906 13.8897 54.4805 13.9851 54.3922 14.0991C54.3038 14.2131 54.2388 14.3435 54.2011 14.4827C54.1633 14.6219 54.1534 14.7672 54.172 14.9102C54.1906 15.0533 54.2373 15.1912 54.3094 15.3162C54.3815 15.4411 54.4776 15.5505 54.5922 15.6381C54.7068 15.7257 54.8376 15.7898 54.977 15.8267C55.1165 15.8636 55.2618 15.8725 55.4048 15.8529C55.5477 15.8334 55.6853 15.7858 55.8097 15.7128L57.7041 14.6191C57.8286 14.5473 57.9377 14.4518 58.0253 14.3379C58.1128 14.224 58.1771 14.0939 58.2143 13.9552C58.2516 13.8165 58.2612 13.6717 58.2425 13.5293C58.2238 13.3868 58.1773 13.2495 58.1055 13.125Z" fill="url(#paint13_linear_220_16)"/>
<path d="M50.8595 11.456C51.0516 11.4561 51.2405 11.4057 51.407 11.3097C51.5734 11.2137 51.7117 11.0755 51.8078 10.9091L52.9015 9.01471C52.9745 8.89027 53.0221 8.75263 53.0416 8.60972C53.0612 8.4668 53.0522 8.32144 53.0154 8.18198C52.9785 8.04253 52.9144 7.91175 52.8268 7.79717C52.7392 7.68258 52.6297 7.58646 52.5048 7.51434C52.3799 7.44222 52.242 7.39551 52.0989 7.37692C51.9559 7.35833 51.8106 7.36821 51.6714 7.40601C51.5322 7.4438 51.4018 7.50876 51.2878 7.59713C51.1738 7.68551 51.0784 7.79556 51.0071 7.92096L49.9134 9.81533C49.8174 9.98152 49.7669 10.17 49.7668 10.3619C49.7668 10.5538 49.8172 10.7424 49.9131 10.9086C50.009 11.0748 50.1469 11.2129 50.313 11.309C50.4791 11.4051 50.6676 11.4558 50.8595 11.456Z" fill="url(#paint14_linear_220_16)"/>
<path d="M43.75 20.7812C43.7501 21.0713 43.8653 21.3495 44.0705 21.5545L48.4455 25.9295C48.6518 26.1288 48.928 26.239 49.2148 26.2365C49.5016 26.234 49.7759 26.119 49.9787 25.9162C50.1815 25.7134 50.2965 25.4391 50.299 25.1523C50.3015 24.8655 50.1913 24.5893 49.992 24.383L45.9375 20.3284V13.125C45.9375 12.8349 45.8223 12.5567 45.6171 12.3516C45.412 12.1465 45.1338 12.0312 44.8438 12.0312C44.5537 12.0312 44.2755 12.1465 44.0704 12.3516C43.8652 12.5567 43.75 12.8349 43.75 13.125V20.7812Z" fill="url(#paint15_linear_220_16)"/>
<path d="M44.8438 4.37501C49.1934 4.38022 53.3633 6.1104 56.439 9.18604C59.5146 12.2617 61.2448 16.4317 61.25 20.7813C61.2554 23.6501 60.5006 26.4692 59.0625 28.9516V27.3438C59.0625 27.0537 58.9473 26.7755 58.7421 26.5704C58.537 26.3652 58.2588 26.25 57.9688 26.25C57.6787 26.25 57.4005 26.3652 57.1954 26.5704C56.9902 26.7755 56.875 27.0537 56.875 27.3438V31.7188C56.875 32.0088 56.9902 32.287 57.1954 32.4922C57.4005 32.6973 57.6787 32.8125 57.9688 32.8125H62.3438C62.6338 32.8125 62.912 32.6973 63.1171 32.4922C63.3223 32.287 63.4375 32.0088 63.4375 31.7188C63.4375 31.4287 63.3223 31.1505 63.1171 30.9454C62.912 30.7402 62.6338 30.625 62.3438 30.625H60.6156C62.1175 28.2233 63.0506 25.5102 63.3435 22.6927C63.6364 19.8753 63.2814 17.0282 62.3056 14.369C61.3299 11.7097 59.7592 9.30872 57.7135 7.34938C55.6679 5.39003 53.2015 3.9242 50.5027 3.06389C47.8039 2.20358 44.9441 1.97155 42.1419 2.38553C39.3398 2.7995 36.6693 3.84853 34.3345 5.45246C31.9998 7.0564 30.0625 9.17279 28.6708 11.6399C27.2792 14.1071 26.4698 16.8597 26.3047 19.6875H28.4922C28.7732 15.5394 30.6171 11.6523 33.6518 8.81044C36.6865 5.96858 40.6862 4.3835 44.8438 4.37501Z" fill="url(#paint16_linear_220_16)"/>
<defs>
<linearGradient id="paint0_linear_220_16" x1="20.7813" y1="71.7336" x2="20.7813" y2="7.89906" gradientUnits="userSpaceOnUse">
<stop stop-color="#7B2E86"/>
<stop offset="0.504808" stop-color="#7B2E86"/>
<stop offset="1" stop-color="#383276"/>
</linearGradient>
<linearGradient id="paint1_linear_220_16" x1="21.875" y1="71.7336" x2="21.875" y2="7.89906" gradientUnits="userSpaceOnUse">
<stop stop-color="#1A125F"/>
<stop offset="0.205" stop-color="#423795"/>
<stop offset="0.681" stop-color="#ED1A58"/>
<stop offset="1" stop-color="#54C2EF"/>
</linearGradient>
<linearGradient id="paint2_linear_220_16" x1="21.875" y1="71.7336" x2="21.875" y2="7.89906" gradientUnits="userSpaceOnUse">
<stop stop-color="#1A125F"/>
<stop offset="0.205" stop-color="#423795"/>
<stop offset="0.681" stop-color="#ED1A58"/>
<stop offset="1" stop-color="#54C2EF"/>
</linearGradient>
<linearGradient id="paint3_linear_220_16" x1="37.7345" y1="71.7336" x2="37.7345" y2="7.89906" gradientUnits="userSpaceOnUse">
<stop stop-color="#1A125F"/>
<stop offset="0.205" stop-color="#423795"/>
<stop offset="0.681" stop-color="#ED1A58"/>
<stop offset="1" stop-color="#54C2EF"/>
</linearGradient>
<linearGradient id="paint4_linear_220_16" x1="21.875" y1="71.7336" x2="21.875" y2="7.89906" gradientUnits="userSpaceOnUse">
<stop stop-color="#1A125F"/>
<stop offset="0.205" stop-color="#423795"/>
<stop offset="0.681" stop-color="#ED1A58"/>
<stop offset="1" stop-color="#54C2EF"/>
</linearGradient>
<linearGradient id="paint5_linear_220_16" x1="54.6875" y1="71.7336" x2="54.6875" y2="7.89906" gradientUnits="userSpaceOnUse">
<stop stop-color="#7B2E86"/>
<stop offset="0.504808" stop-color="#7B2E86"/>
<stop offset="1" stop-color="#383276"/>
</linearGradient>
<linearGradient id="paint6_linear_220_16" x1="63.9407" y1="71.7336" x2="63.9407" y2="7.89906" gradientUnits="userSpaceOnUse">
<stop stop-color="#1A125F"/>
<stop offset="0.205" stop-color="#423795"/>
<stop offset="0.681" stop-color="#ED1A58"/>
<stop offset="1" stop-color="#54C2EF"/>
</linearGradient>
<linearGradient id="paint7_linear_220_16" x1="53.5938" y1="71.7336" x2="53.5938" y2="7.89906" gradientUnits="userSpaceOnUse">
<stop stop-color="#1A125F"/>
<stop offset="0.205" stop-color="#423795"/>
<stop offset="0.681" stop-color="#ED1A58"/>
<stop offset="1" stop-color="#54C2EF"/>
</linearGradient>
<linearGradient id="paint8_linear_220_16" x1="70" y1="43" x2="-1.18343e-06" y2="43" gradientUnits="userSpaceOnUse">
<stop stop-color="#7B2E86"/>
<stop offset="1" stop-color="#383276"/>
</linearGradient>
<linearGradient id="paint9_linear_220_16" x1="44.8437" y1="71.7336" x2="44.8437" y2="7.89907" gradientUnits="userSpaceOnUse">
<stop stop-color="#1A125F"/>
<stop offset="0.205" stop-color="#423795"/>
<stop offset="0.681" stop-color="#ED1A58"/>
<stop offset="1" stop-color="#54C2EF"/>
</linearGradient>
<linearGradient id="paint10_linear_220_16" x1="38.2812" y1="71.7336" x2="38.2812" y2="7.89908" gradientUnits="userSpaceOnUse">
<stop stop-color="#1A125F"/>
<stop offset="0.205" stop-color="#423795"/>
<stop offset="0.681" stop-color="#ED1A58"/>
<stop offset="1" stop-color="#54C2EF"/>
</linearGradient>
<linearGradient id="paint11_linear_220_16" x1="33.4774" y1="71.7336" x2="33.4774" y2="7.89906" gradientUnits="userSpaceOnUse">
<stop stop-color="#1A125F"/>
<stop offset="0.205" stop-color="#423795"/>
<stop offset="0.681" stop-color="#ED1A58"/>
<stop offset="1" stop-color="#54C2EF"/>
</linearGradient>
<linearGradient id="paint12_linear_220_16" x1="57.9688" y1="71.7336" x2="57.9688" y2="7.89906" gradientUnits="userSpaceOnUse">
<stop stop-color="#1A125F"/>
<stop offset="0.205" stop-color="#423795"/>
<stop offset="0.681" stop-color="#ED1A58"/>
<stop offset="1" stop-color="#54C2EF"/>
</linearGradient>
<linearGradient id="paint13_linear_220_16" x1="56.2101" y1="71.7336" x2="56.2101" y2="7.89908" gradientUnits="userSpaceOnUse">
<stop stop-color="#1A125F"/>
<stop offset="0.205" stop-color="#423795"/>
<stop offset="0.681" stop-color="#ED1A58"/>
<stop offset="1" stop-color="#54C2EF"/>
</linearGradient>
<linearGradient id="paint14_linear_220_16" x1="51.4063" y1="71.7336" x2="51.4063" y2="7.89908" gradientUnits="userSpaceOnUse">
<stop stop-color="#1A125F"/>
<stop offset="0.205" stop-color="#423795"/>
<stop offset="0.681" stop-color="#ED1A58"/>
<stop offset="1" stop-color="#54C2EF"/>
</linearGradient>
<linearGradient id="paint15_linear_220_16" x1="47.0312" y1="71.7336" x2="47.0312" y2="7.89906" gradientUnits="userSpaceOnUse">
<stop stop-color="#1A125F"/>
<stop offset="0.205" stop-color="#423795"/>
<stop offset="0.681" stop-color="#ED1A58"/>
<stop offset="1" stop-color="#54C2EF"/>
</linearGradient>
<linearGradient id="paint16_linear_220_16" x1="44.8711" y1="71.7336" x2="44.8711" y2="7.89907" gradientUnits="userSpaceOnUse">
<stop stop-color="#7B2E86"/>
<stop offset="1" stop-color="#7B2E86"/>
</linearGradient>
</defs>
</svg>
