<svg width="70" height="70" viewBox="0 0 70 70" fill="none" xmlns="http://www.w3.org/2000/svg">
<path fill-rule="evenodd" clip-rule="evenodd" d="M50.5544 67.7425H19.0622C20.3643 67.0217 21.5541 66.0722 22.5617 64.9134H47.2525C48.1633 66.0101 49.2677 66.9713 50.5544 67.7425ZM56.6583 43.5827V11.0596H49.4809V8.23047H55.6275C57.7512 8.23047 59.4874 9.97062 59.4874 12.0943V43.7571C58.5495 43.5943 57.6 43.5362 56.6583 43.5827ZM10.509 43.544V12.0943C10.509 9.97049 12.2492 8.23047 14.3728 8.23047H20.5194V11.0596H13.342V43.3619C12.3885 43.3192 11.4391 43.3813 10.509 43.544Z" fill="#383276"/>
<path fill-rule="evenodd" clip-rule="evenodd" d="M55.0193 43.7647V12.7026H14.9814V43.54C16.4464 43.7919 17.8921 44.3034 19.2561 45.0902C25.6235 48.7681 27.6892 57.0189 23.7789 63.2739H46.0901C43.7494 59.3481 43.5362 54.3022 45.9817 50.074C47.9814 46.6055 51.353 44.4042 55.0193 43.7647ZM44.0012 38.9436H42.2147C40.3583 43.2609 35.138 44.9933 31.0764 42.6486C29.5496 41.7649 28.4332 40.4472 27.79 38.9436H25.9955C24.2788 38.9436 22.8796 37.5407 22.8796 35.8238V17.8184C22.8796 16.0976 24.2786 14.6986 25.9955 14.6986H44.0012C45.7219 14.6986 47.121 16.0976 47.121 17.8184V35.824C47.121 37.5407 45.7219 38.9436 44.0012 38.9436ZM27.0304 51.1087C26.5808 51.1087 26.2127 50.7405 26.2127 50.2872C26.2127 49.8338 26.5808 49.4655 27.0304 49.4655H42.9665C43.4199 49.4655 43.788 49.8337 43.788 50.2872C43.788 50.7407 43.4199 51.1087 42.9665 51.1087H27.0304ZM23.6509 46.7952C23.1976 46.7952 22.8332 46.427 22.8332 45.9736C22.8332 45.524 23.1976 45.1558 23.6509 45.1558H46.3498C46.7993 45.1558 47.1675 45.524 47.1675 45.9736C47.1675 46.427 46.7993 46.7952 46.3498 46.7952H23.6509ZM29.5029 55.9414C29.0496 55.9414 28.6814 55.5733 28.6814 55.1198C28.6814 54.6663 29.0496 54.2981 29.5029 54.2981H40.4978C40.9511 54.2981 41.3193 54.6663 41.3193 55.1198C41.3193 55.5733 40.9511 55.9414 40.4978 55.9414H29.5029ZM29.5029 60.2704C29.0496 60.2704 28.6814 59.9022 28.6814 59.4487C28.6814 58.9952 29.0496 58.6271 29.5029 58.6271H40.4978C40.9511 58.6271 41.3193 58.9953 41.3193 59.4487C41.3193 59.9021 40.9511 60.2704 40.4978 60.2704H29.5029Z" fill="#383276"/>
<path fill-rule="evenodd" clip-rule="evenodd" d="M22.1587 11.0596V8.23046C22.1587 6.56016 23.5267 5.18819 25.201 5.18819H29.0998C31.9134 0.991062 38.0871 0.991062 40.9006 5.18819H44.7994C46.4737 5.18819 47.8417 6.56016 47.8417 8.23046V11.0596H22.1587Z" fill="#383276"/>
<path fill-rule="evenodd" clip-rule="evenodd" d="M22.6005 62.0532C19.4575 67.4945 12.4972 69.3585 7.0559 66.2155C1.61463 63.0763 -0.24939 56.1159 2.89364 50.6748C6.03666 45.2336 12.9932 43.3695 18.4343 46.5125C23.8755 49.6517 25.7396 56.6121 22.6005 62.0532ZM21.465 61.3982C18.6901 66.2077 12.5203 67.8587 7.71079 65.0838C2.90129 62.309 1.25028 56.1353 4.02512 51.3297C6.79997 46.5202 12.9736 44.8693 17.7793 47.644C22.5888 50.4188 24.2436 56.5887 21.465 61.3982Z" fill="#7B2E86"/>
<path fill-rule="evenodd" clip-rule="evenodd" d="M20.0466 60.5767C17.7174 64.6071 12.563 65.9907 8.53254 63.6616C4.50207 61.3363 3.11847 56.1818 5.44761 52.1475C7.77293 48.1171 12.9274 46.7373 16.9618 49.0626C20.9923 51.3918 22.3719 56.5462 20.0466 60.5767ZM9.044 51.5894C8.81924 51.198 8.95103 50.698 9.34246 50.4733C9.73785 50.2447 10.2339 50.3765 10.4664 50.7795C10.695 51.171 10.5594 51.6709 10.168 51.8995C9.77654 52.1243 9.27656 51.9925 9.044 51.5894ZM7.15277 54.0775C6.76135 53.8527 6.62955 53.3527 6.85431 52.9613C7.08291 52.5699 7.57906 52.4342 7.98211 52.6667C8.37353 52.8954 8.50533 53.3952 8.28056 53.7867C8.05197 54.1781 7.55582 54.3137 7.15277 54.0773V54.0775ZM6.76134 57.1856C6.30785 57.1856 5.93967 56.8174 5.93967 56.3641C5.93967 55.9107 6.30388 55.5424 6.77283 55.5424C7.22619 55.5424 7.59054 55.9106 7.59054 56.3641C7.59054 56.8176 7.22633 57.1856 6.76134 57.1856ZM7.97431 60.0652C7.58289 60.29 7.08291 60.1582 6.85431 59.7667C6.62955 59.3753 6.75752 58.8753 7.16043 58.6428C7.55185 58.4142 8.05566 58.5498 8.28043 58.9412C8.50902 59.3327 8.37736 59.8326 7.97431 60.0652ZM10.4625 61.9564C10.2339 62.3478 9.73388 62.4796 9.34246 62.2549C8.95103 62.0263 8.81924 61.5301 9.05179 61.1271C9.27656 60.7357 9.77654 60.6039 10.168 60.8286C10.5632 61.0572 10.695 61.5534 10.4625 61.9564ZM13.5668 62.3478C13.5668 62.8013 13.1986 63.1695 12.7451 63.1695C12.2916 63.1695 11.9274 62.8052 11.9274 62.3362C11.9274 61.8829 12.2918 61.5185 12.7451 61.5185C13.1985 61.5185 13.5668 61.8829 13.5668 62.3478ZM16.4464 61.1349C16.6711 61.5263 16.5393 62.0263 16.1479 62.2549C15.7565 62.4835 15.2565 62.3518 15.0241 61.9488C14.7993 61.5573 14.9311 61.0574 15.3225 60.8288C15.714 60.6 16.2139 60.7318 16.4465 61.135L16.4464 61.1349ZM18.3376 58.6467C18.729 58.8755 18.8646 59.3753 18.6361 59.7667C18.4113 60.1582 17.9113 60.2938 17.5083 60.0574C17.1168 59.8326 16.985 59.3327 17.2098 58.9412C17.4384 58.5498 17.9345 58.4142 18.3376 58.6467ZM18.729 55.5424C19.1824 55.5424 19.5506 55.9106 19.5506 56.3641C19.5506 56.8176 19.1862 57.1856 18.7212 57.1856C18.2679 57.1856 17.8997 56.8174 17.8997 56.3641C17.8997 55.9107 18.264 55.5424 18.729 55.5424ZM17.5199 52.663C17.9113 52.4382 18.4113 52.57 18.6361 52.9614C18.8646 53.3528 18.7329 53.8528 18.3299 54.0852C17.9385 54.31 17.4385 54.1782 17.2099 53.7868C16.9852 53.3954 17.1168 52.8954 17.5199 52.663ZM15.0319 50.7717C15.2566 50.3803 15.7566 50.2447 16.148 50.4733C16.5395 50.698 16.6751 51.198 16.4425 51.6011C16.2139 51.9925 15.714 52.1243 15.3225 51.8995C14.9311 51.6709 14.7955 51.1748 15.0319 50.7717ZM11.9275 50.3803C11.9275 49.9269 12.2919 49.5588 12.7453 49.5588C13.1986 49.5588 13.5669 49.9231 13.5669 50.3881C13.5669 50.8416 13.1987 51.2098 12.7453 51.2098C12.2918 51.2098 11.9275 50.8454 11.9275 50.3804V50.3803ZM11.9275 53.6086C11.9275 53.1552 12.2919 52.787 12.7453 52.787C13.1986 52.787 13.5669 53.1552 13.5669 53.6086V55.8913L15.1403 56.8021C15.5317 57.0269 15.6635 57.5269 15.4387 57.9183C15.214 58.3097 14.7102 58.4453 14.3187 58.2168L12.3887 57.1006C12.1136 56.9688 11.9275 56.6897 11.9275 56.3642V53.6086Z" fill="#7B2E86"/>
<path fill-rule="evenodd" clip-rule="evenodd" d="M67.1068 62.2703C63.9638 67.7116 57.0072 69.5756 51.5661 66.4326C46.125 63.2934 44.2608 56.333 47.3999 50.8919C50.5429 45.4507 57.4994 43.5866 62.9406 46.7296C68.3857 49.8688 70.2497 56.8292 67.1066 62.2703H67.1068ZM65.9752 61.6153C63.1964 66.4248 57.0267 68.0758 52.221 65.3009C47.4115 62.5261 45.7566 56.3562 48.5353 51.5468C51.3102 46.7373 57.4799 45.0864 62.2895 47.8611C67.095 50.6359 68.7499 56.8096 65.9752 61.6153Z" fill="#7B2E86"/>
<path fill-rule="evenodd" clip-rule="evenodd" d="M64.5527 60.7976C62.2235 64.8281 57.0691 66.2078 53.0386 63.8825C49.0081 61.5534 47.6284 56.3989 49.9538 52.3685C52.283 48.338 57.4374 46.9544 61.4679 49.2836C65.4983 51.6089 66.8819 56.7632 64.5527 60.7976ZM60.0803 53.5155C60.2431 53.9342 60.0338 54.4108 59.6153 54.5736C59.1929 54.7403 58.7163 54.531 58.5534 54.1085C58.0923 52.9304 55.8949 53.2287 55.8949 54.4186C55.8949 56.2594 60.5765 54.6085 60.5765 58.4646C60.5765 59.9102 59.4565 61.0418 58.0729 61.3557V61.968C58.0729 62.4215 57.7085 62.7897 57.2551 62.7897C56.8018 62.7897 56.4336 62.4215 56.4336 61.968V61.3557C55.054 61.0418 53.93 59.9102 53.93 58.4646C53.93 58.0111 54.2982 57.6429 54.7517 57.6429C55.2052 57.6429 55.5732 58.0111 55.5732 58.4646C55.5732 59.6738 57.4451 60.2783 58.4875 59.3753C58.7627 59.1389 58.9372 58.8134 58.9372 58.4646C58.9372 56.2633 54.2555 58.077 54.2555 54.4186C54.2555 53.1397 55.2205 52.1281 56.4336 51.818V51.1941C56.4336 50.7407 56.8018 50.3725 57.2551 50.3725C57.7085 50.3725 58.0729 50.7407 58.0729 51.1941V51.818C58.9681 52.0466 59.7432 52.659 60.0803 53.5155Z" fill="#7B2E86"/>
<path fill-rule="evenodd" clip-rule="evenodd" d="M44.0011 37.3004H42.7144C43.3113 34.1187 41.8851 30.7586 38.9242 29.0495C35.1766 26.887 30.3671 28.1775 28.2006 31.9251C27.2279 33.6148 26.9528 35.5176 27.2898 37.3003H25.9954C25.1854 37.3003 24.5188 36.6376 24.5188 35.8237V17.8184C24.5188 17.0045 25.1853 16.338 25.9954 16.338H30.4755V26.1974H39.5248V16.3379H44.001C44.8148 16.3379 45.4815 17.0045 45.4815 17.8183V35.8239C45.4815 36.6378 44.815 37.3004 44.0011 37.3004Z" fill="#7B2E86"/>
<path d="M32.1147 16.3379H37.8815V24.5578H32.1147V16.3379Z" fill="#7B2E86"/>
<path fill-rule="evenodd" clip-rule="evenodd" d="M40.3773 38.9553C38.6604 41.9239 34.8663 42.9393 31.8939 41.2263C28.9253 39.5134 27.9099 35.7153 29.6229 32.7429C31.3358 29.7742 35.1338 28.7589 38.1024 30.4719C41.075 32.1848 42.0902 35.9829 40.3773 38.9553ZM34.0796 33.766C33.8665 34.1612 33.3703 34.3086 32.9712 34.0915C32.5758 33.8745 32.4286 33.3784 32.6457 32.9831C33.4634 31.4795 35.4942 31.181 36.7072 32.394C38.0559 33.7427 37.5017 36.0214 35.7152 36.626V37.3081C35.7152 37.7615 35.347 38.1298 34.8935 38.1298C34.44 38.1298 34.0758 37.7616 34.0758 37.3081C34.0758 36.657 33.9944 36.1376 34.3742 35.63C34.8548 34.9906 35.2811 35.2309 35.6377 34.758C36.2306 33.9597 35.2889 32.8978 34.4207 33.4093C34.2773 33.4946 34.1611 33.6187 34.0796 33.766ZM34.0758 39.2305C34.0758 38.7771 34.4401 38.4088 34.8935 38.4088C35.3469 38.4088 35.7152 38.7732 35.7152 39.2343C35.7152 39.6877 35.347 40.056 34.8935 40.056C34.44 40.056 34.0758 39.6916 34.0758 39.2305Z" fill="#7B2E86"/>
</svg>
