<svg width="70" height="70" viewBox="0 0 70 70" fill="none" xmlns="http://www.w3.org/2000/svg">
<path d="M17.8645 42.6391V63.785L16.034 65.625H26.25V48.8542L19.9398 32.4479H21.5104V28.0729H16.4062V32.4479H17.9768L15.9607 37.6896L17.8645 42.6391Z" fill="#383276"/>
<path d="M50.8942 59.4299H26.3208C26.1307 59.427 25.9419 59.4618 25.7654 59.5325C25.5888 59.6031 25.4281 59.708 25.2924 59.8413C25.1568 59.9745 25.0489 60.1333 24.9751 60.3086C24.9013 60.4838 24.8631 60.672 24.8626 60.8621V60.8752C24.8621 61.2633 25.0151 61.6359 25.2884 61.9116C25.5616 62.1872 25.9328 62.3436 26.3209 62.3466H50.8943L54.0569 60.8882L50.8942 59.4299Z" stroke="#383276" stroke-width="2" stroke-miterlimit="10"/>
<path d="M28.8755 62.3467V59.43" stroke="#383276" stroke-width="2" stroke-miterlimit="10"/>
<path d="M50.7505 60.8884H28.8755" stroke="#383276" stroke-width="2" stroke-miterlimit="10"/>
<path d="M29.1666 8.75292L3.28882 8.6698L8.0809 14.2683L29.5833 14.2016L33.8901 19.3185L38.3632 19.6259L29.1666 8.75292Z" fill="#7B2E86"/>
<path d="M16.5781 66.7016H32.8236" stroke="#383276" stroke-width="2" stroke-miterlimit="10"/>
<path d="M53.6798 19.3094L33.9005 19.3185L29.5834 14.2567L7.33948 14.269L7.01172 14.595L10.7443 19.1362V21.1837" stroke="#383276" stroke-width="2" stroke-miterlimit="10"/>
<path d="M33.7349 66.7016H44.8222" stroke="#383276" stroke-width="2" stroke-miterlimit="10"/>
<path d="M63.0728 6.79291V8.25124" stroke="#383276" stroke-width="2" stroke-miterlimit="10"/>
<path d="M63.0728 10.4387V11.8971" stroke="#383276" stroke-width="2" stroke-miterlimit="10"/>
<path d="M65.6248 9.34497H64.1665" stroke="#383276" stroke-width="2" stroke-miterlimit="10"/>
<path d="M61.9791 9.34497H60.5208" stroke="#383276" stroke-width="2" stroke-miterlimit="10"/>
<path d="M35.3645 2.41791V3.87624" stroke="#383276" stroke-width="2" stroke-miterlimit="10"/>
<path d="M35.3645 6.06372V7.52205" stroke="#383276" stroke-width="2" stroke-miterlimit="10"/>
<path d="M37.9166 4.96997H36.4583" stroke="#383276" stroke-width="2" stroke-miterlimit="10"/>
<path d="M34.2708 4.96997H32.8125" stroke="#383276" stroke-width="2" stroke-miterlimit="10"/>
<path d="M13.6218 19.3258H31.3628" stroke="#383276" stroke-width="2" stroke-linecap="round" stroke-linejoin="round"/>
<path d="M39.4673 19.3058L29.776 7.65918H2.18761L2.18506 8.75293L6.32053 13.7481" stroke="#383276" stroke-width="2" stroke-miterlimit="10"/>
<path d="M33.349 33.5446C33.5503 33.5446 33.7135 33.3814 33.7135 33.18C33.7135 32.9787 33.5503 32.8154 33.349 32.8154C33.1476 32.8154 32.9844 32.9787 32.9844 33.18C32.9844 33.3814 33.1476 33.5446 33.349 33.5446Z" fill="#383276"/>
<path d="M33.349 35.0029C33.5503 35.0029 33.7135 34.8397 33.7135 34.6383C33.7135 34.437 33.5503 34.2737 33.349 34.2737C33.1476 34.2737 32.9844 34.437 32.9844 34.6383C32.9844 34.8397 33.1476 35.0029 33.349 35.0029Z" fill="#383276"/>
<path d="M33.349 36.4613C33.5503 36.4613 33.7135 36.2981 33.7135 36.0967C33.7135 35.8953 33.5503 35.7321 33.349 35.7321C33.1476 35.7321 32.9844 35.8953 32.9844 36.0967C32.9844 36.2981 33.1476 36.4613 33.349 36.4613Z" fill="#383276"/>
<path d="M33.349 37.9196C33.5503 37.9196 33.7135 37.7564 33.7135 37.555C33.7135 37.3537 33.5503 37.1904 33.349 37.1904C33.1476 37.1904 32.9844 37.3537 32.9844 37.555C32.9844 37.7564 33.1476 37.9196 33.349 37.9196Z" fill="#383276"/>
<path d="M33.349 39.3779C33.5503 39.3779 33.7135 39.2147 33.7135 39.0133C33.7135 38.812 33.5503 38.6487 33.349 38.6487C33.1476 38.6487 32.9844 38.812 32.9844 39.0133C32.9844 39.2147 33.1476 39.3779 33.349 39.3779Z" fill="#383276"/>
<path d="M33.349 40.8363C33.5503 40.8363 33.7135 40.6731 33.7135 40.4717C33.7135 40.2703 33.5503 40.1071 33.349 40.1071C33.1476 40.1071 32.9844 40.2703 32.9844 40.4717C32.9844 40.6731 33.1476 40.8363 33.349 40.8363Z" fill="#383276"/>
<path d="M33.349 42.2946C33.5503 42.2946 33.7135 42.1314 33.7135 41.93C33.7135 41.7287 33.5503 41.5654 33.349 41.5654C33.1476 41.5654 32.9844 41.7287 32.9844 41.93C32.9844 42.1314 33.1476 42.2946 33.349 42.2946Z" fill="#383276"/>
<path d="M33.349 43.7529C33.5503 43.7529 33.7135 43.5897 33.7135 43.3883C33.7135 43.187 33.5503 43.0237 33.349 43.0237C33.1476 43.0237 32.9844 43.187 32.9844 43.3883C32.9844 43.5897 33.1476 43.7529 33.349 43.7529Z" fill="#383276"/>
<path d="M33.349 45.2113C33.5503 45.2113 33.7135 45.0481 33.7135 44.8467C33.7135 44.6453 33.5503 44.4821 33.349 44.4821C33.1476 44.4821 32.9844 44.6453 32.9844 44.8467C32.9844 45.0481 33.1476 45.2113 33.349 45.2113Z" fill="#383276"/>
<path d="M33.349 46.6696C33.5503 46.6696 33.7135 46.5064 33.7135 46.305C33.7135 46.1037 33.5503 45.9404 33.349 45.9404C33.1476 45.9404 32.9844 46.1037 32.9844 46.305C32.9844 46.5064 33.1476 46.6696 33.349 46.6696Z" fill="#383276"/>
<path d="M33.349 48.1279C33.5503 48.1279 33.7135 47.9647 33.7135 47.7633C33.7135 47.562 33.5503 47.3987 33.349 47.3987C33.1476 47.3987 32.9844 47.562 32.9844 47.7633C32.9844 47.9647 33.1476 48.1279 33.349 48.1279Z" fill="#383276"/>
<path d="M33.349 49.5862C33.5503 49.5862 33.7135 49.423 33.7135 49.2216C33.7135 49.0203 33.5503 48.8571 33.349 48.8571C33.1476 48.8571 32.9844 49.0203 32.9844 49.2216C32.9844 49.423 33.1476 49.5862 33.349 49.5862Z" fill="#383276"/>
<path d="M33.349 51.0446C33.5503 51.0446 33.7135 50.8814 33.7135 50.68C33.7135 50.4787 33.5503 50.3154 33.349 50.3154C33.1476 50.3154 32.9844 50.4787 32.9844 50.68C32.9844 50.8814 33.1476 51.0446 33.349 51.0446Z" fill="#383276"/>
<path d="M33.349 52.5029C33.5503 52.5029 33.7135 52.3397 33.7135 52.1383C33.7135 51.937 33.5503 51.7737 33.349 51.7737C33.1476 51.7737 32.9844 51.937 32.9844 52.1383C32.9844 52.3397 33.1476 52.5029 33.349 52.5029Z" fill="#383276"/>
<path d="M33.349 53.9612C33.5503 53.9612 33.7135 53.798 33.7135 53.5966C33.7135 53.3953 33.5503 53.2321 33.349 53.2321C33.1476 53.2321 32.9844 53.3953 32.9844 53.5966C32.9844 53.798 33.1476 53.9612 33.349 53.9612Z" fill="#383276"/>
<path d="M33.349 55.4196C33.5503 55.4196 33.7135 55.2564 33.7135 55.055C33.7135 54.8537 33.5503 54.6904 33.349 54.6904C33.1476 54.6904 32.9844 54.8537 32.9844 55.055C32.9844 55.2564 33.1476 55.4196 33.349 55.4196Z" fill="#383276"/>
<path d="M33.349 56.8779C33.5503 56.8779 33.7135 56.7147 33.7135 56.5133C33.7135 56.312 33.5503 56.1487 33.349 56.1487C33.1476 56.1487 32.9844 56.312 32.9844 56.5133C32.9844 56.7147 33.1476 56.8779 33.349 56.8779Z" fill="#383276"/>
<path d="M33.349 58.3362C33.5503 58.3362 33.7135 58.173 33.7135 57.9716C33.7135 57.7703 33.5503 57.6071 33.349 57.6071C33.1476 57.6071 32.9844 57.7703 32.9844 57.9716C32.9844 58.173 33.1476 58.3362 33.349 58.3362Z" fill="#383276"/>
<path d="M33.349 27.7113C33.5503 27.7113 33.7135 27.5481 33.7135 27.3467C33.7135 27.1453 33.5503 26.9821 33.349 26.9821C33.1476 26.9821 32.9844 27.1453 32.9844 27.3467C32.9844 27.5481 33.1476 27.7113 33.349 27.7113Z" fill="#383276"/>
<path d="M33.349 29.1696C33.5503 29.1696 33.7135 29.0064 33.7135 28.805C33.7135 28.6037 33.5503 28.4404 33.349 28.4404C33.1476 28.4404 32.9844 28.6037 32.9844 28.805C32.9844 29.0064 33.1476 29.1696 33.349 29.1696Z" fill="#383276"/>
<path d="M33.349 30.6279C33.5503 30.6279 33.7135 30.4647 33.7135 30.2633C33.7135 30.062 33.5503 29.8987 33.349 29.8987C33.1476 29.8987 32.9844 30.062 32.9844 30.2633C32.9844 30.4647 33.1476 30.6279 33.349 30.6279Z" fill="#383276"/>
<path d="M33.349 32.0863C33.5503 32.0863 33.7135 31.9231 33.7135 31.7217C33.7135 31.5203 33.5503 31.3571 33.349 31.3571C33.1476 31.3571 32.9844 31.5203 32.9844 31.7217C32.9844 31.9231 33.1476 32.0863 33.349 32.0863Z" fill="#383276"/>
<path d="M33.349 21.8779C33.5503 21.8779 33.7135 21.7147 33.7135 21.5133C33.7135 21.312 33.5503 21.1487 33.349 21.1487C33.1476 21.1487 32.9844 21.312 32.9844 21.5133C32.9844 21.7147 33.1476 21.8779 33.349 21.8779Z" fill="#383276"/>
<path d="M54.6461 19.6904C54.8474 19.6904 55.0107 19.5272 55.0107 19.3258C55.0107 19.1245 54.8474 18.9612 54.6461 18.9612C54.4447 18.9612 54.2815 19.1245 54.2815 19.3258C54.2815 19.5272 54.4447 19.6904 54.6461 19.6904Z" fill="#383276"/>
<path d="M62.3438 45.7582C62.5452 45.7582 62.7084 45.5949 62.7084 45.3936C62.7084 45.1922 62.5452 45.029 62.3438 45.029C62.1425 45.029 61.9792 45.1922 61.9792 45.3936C61.9792 45.5949 62.1425 45.7582 62.3438 45.7582Z" fill="#383276"/>
<path d="M62.3438 47.3987C62.5452 47.3987 62.7084 47.2355 62.7084 47.0341C62.7084 46.8328 62.5452 46.6696 62.3438 46.6696C62.1425 46.6696 61.9792 46.8328 61.9792 47.0341C61.9792 47.2355 62.1425 47.3987 62.3438 47.3987Z" fill="#383276"/>
<path d="M49.1932 14.6213C49.3946 14.6213 49.5578 14.458 49.5578 14.2567C49.5578 14.0553 49.3946 13.8921 49.1932 13.8921C48.9918 13.8921 48.8286 14.0553 48.8286 14.2567C48.8286 14.458 48.9918 14.6213 49.1932 14.6213Z" fill="#383276"/>
<path d="M33.349 23.3363C33.5503 23.3363 33.7135 23.1731 33.7135 22.9717C33.7135 22.7703 33.5503 22.6071 33.349 22.6071C33.1476 22.6071 32.9844 22.7703 32.9844 22.9717C32.9844 23.1731 33.1476 23.3363 33.349 23.3363Z" fill="#383276"/>
<path d="M33.349 24.7946C33.5503 24.7946 33.7135 24.6314 33.7135 24.43C33.7135 24.2287 33.5503 24.0654 33.349 24.0654C33.1476 24.0654 32.9844 24.2287 32.9844 24.43C32.9844 24.6314 33.1476 24.7946 33.349 24.7946Z" fill="#383276"/>
<path d="M33.349 26.25C33.5503 26.25 33.7135 26.0868 33.7135 25.8854C33.7135 25.684 33.5503 25.5208 33.349 25.5208C33.1476 25.5208 32.9844 25.684 32.9844 25.8854C32.9844 26.0868 33.1476 26.25 33.349 26.25Z" fill="#383276"/>
<path d="M10.7447 24.7946C10.9461 24.7946 11.1093 24.6314 11.1093 24.43C11.1093 24.2287 10.9461 24.0654 10.7447 24.0654C10.5434 24.0654 10.3801 24.2287 10.3801 24.43C10.3801 24.6314 10.5434 24.7946 10.7447 24.7946Z" fill="#383276"/>
<path d="M33.349 59.7946C33.5503 59.7946 33.7135 59.6314 33.7135 59.43C33.7135 59.2287 33.5503 59.0654 33.349 59.0654C33.1476 59.0654 32.9844 59.2287 32.9844 59.43C32.9844 59.6314 33.1476 59.7946 33.349 59.7946Z" fill="#383276"/>
<path d="M33.349 61.2529C33.5503 61.2529 33.7135 61.0897 33.7135 60.8883C33.7135 60.687 33.5503 60.5237 33.349 60.5237C33.1476 60.5237 32.9844 60.687 32.9844 60.8883C32.9844 61.0897 33.1476 61.2529 33.349 61.2529Z" fill="#383276"/>
<path d="M33.349 62.7112C33.5503 62.7112 33.7135 62.548 33.7135 62.3466C33.7135 62.1453 33.5503 61.9821 33.349 61.9821C33.1476 61.9821 32.9844 62.1453 32.9844 62.3466C32.9844 62.548 33.1476 62.7112 33.349 62.7112Z" fill="#383276"/>
<path d="M33.349 64.1696C33.5503 64.1696 33.7135 64.0064 33.7135 63.805C33.7135 63.6037 33.5503 63.4404 33.349 63.4404C33.1476 63.4404 32.9844 63.6037 32.9844 63.805C32.9844 64.0064 33.1476 64.1696 33.349 64.1696Z" fill="#383276"/>
<path d="M33.349 65.6279C33.5503 65.6279 33.7135 65.4647 33.7135 65.2633C33.7135 65.062 33.5503 64.8987 33.349 64.8987C33.1476 64.8987 32.9844 65.062 32.9844 65.2633C32.9844 65.4647 33.1476 65.6279 33.349 65.6279Z" fill="#383276"/>
<path d="M45.9495 67.0662C46.1509 67.0662 46.3141 66.903 46.3141 66.7016C46.3141 66.5003 46.1509 66.337 45.9495 66.337C45.7482 66.337 45.585 66.5003 45.585 66.7016C45.585 66.903 45.7482 67.0662 45.9495 67.0662Z" fill="#383276"/>
<path d="M50.3782 14.237L66.3542 14.2691V14.595L62.3438 19.3259" stroke="#383276" stroke-width="2" stroke-miterlimit="10"/>
<path d="M39.4595 19.3186L43.7765 14.2217L48.0833 14.2308" stroke="#383276" stroke-width="2" stroke-miterlimit="10"/>
<path d="M37.0544 32.4507V55.9664H58.151V32.4507H37.0544Z" fill="#7B2E86"/>
<path d="M62.3437 48.1279V66.7217L47.0366 66.7016" stroke="#383276" stroke-width="2" stroke-miterlimit="10"/>
<path d="M62.3436 44.2998V19.3058L55.8132 19.308" stroke="#383276" stroke-width="2" stroke-miterlimit="10"/>
<path d="M8.31909 47.0143V58.6809H16.7905V47.0143H8.31909Z" fill="#7B2E86"/>
<path d="M10.5875 23.6808L8.06348 30.2433H13.1115L10.5875 23.6808Z" fill="#7B2E86" stroke="#7B2E86" stroke-width="2" stroke-miterlimit="10"/>
<path d="M14.9625 66.7016L17.8646 63.785V42.6391L10.5729 23.6808L3.28125 42.6391V63.785L6.2125 66.7016H14.9625Z" stroke="#383276" stroke-width="2" stroke-miterlimit="10"/>
<path d="M8.02075 21.8582H13.1249V26.2332H8.02075V21.8582Z" fill="#7B2E86"/>
<path d="M4.7395 42.6391H16.4062" stroke="#383276" stroke-width="2" stroke-linecap="round" stroke-linejoin="round"/>
<path d="M4.7395 63.4203H16.4062" stroke="#383276" stroke-width="2" stroke-linecap="round" stroke-linejoin="round"/>
</svg>
