<svg width="70" height="70" viewBox="0 0 70 70" fill="none" xmlns="http://www.w3.org/2000/svg">
<path fill-rule="evenodd" clip-rule="evenodd" d="M12.3405 47.8809C7.91918 47.8809 4.3001 51.4999 4.3001 55.9227H4.30037C4.30037 60.3441 7.91904 63.9632 12.3405 63.9632H57.6368C62.0586 63.9632 65.6772 60.3442 65.6772 55.9227C65.6772 51.4997 62.0583 47.8809 57.6368 47.8809H12.3405ZM12.3405 45.7793H57.6368C63.2152 45.7793 67.7786 50.3432 67.7786 55.9227C67.7786 61.5007 63.2149 66.0645 57.6368 66.0645H12.3405C6.76254 66.0645 2.19873 61.5009 2.19873 55.9227H2.199C2.199 50.3431 6.7624 45.7796 12.3405 45.7796V45.7793Z" fill="#383276"/>
<path fill-rule="evenodd" clip-rule="evenodd" d="M12.3404 54.9041C11.7843 54.9041 11.3232 55.3662 11.3232 55.9226C11.3234 56.4774 11.7854 56.9398 12.3404 56.9398C12.8969 56.9395 13.3576 56.4777 13.3576 55.9212C13.3576 55.366 12.8969 54.9041 12.3404 54.9041ZM34.9894 54.9041C34.4329 54.9041 33.9708 55.3662 33.9708 55.9226C33.9708 56.4774 34.4329 56.9398 34.9894 56.9398C35.5447 56.9395 36.0066 56.4777 36.0066 55.9212C36.0067 55.366 35.5445 54.9041 34.9894 54.9041ZM57.6369 54.9041C57.0807 54.9041 56.6197 55.3662 56.6197 55.9226C56.6198 56.4774 57.0804 56.9398 57.6369 56.9398C58.1933 56.9395 58.654 56.4777 58.654 55.9212C58.654 55.366 58.1933 54.9041 57.6369 54.9041ZM39.8443 62.3221H52.782C50.8489 60.8512 49.5951 58.5271 49.5951 55.9226C49.5951 53.3167 50.8488 50.9925 52.7818 49.5214H39.8443C41.7776 50.9924 43.0298 53.3167 43.0298 55.9226C43.0298 58.5268 41.7775 60.8513 39.8443 62.3224V62.3221ZM17.1957 62.322H30.1346C28.2013 60.851 26.9476 58.527 26.9476 55.9225C26.9477 53.3166 28.2013 50.9924 30.1345 49.5213H17.1957C19.1288 50.9923 20.3824 53.3166 20.3824 55.9225C20.3826 58.5267 19.1287 60.8512 17.1954 62.3223H17.1957V62.322Z" fill="#383276"/>
<path fill-rule="evenodd" clip-rule="evenodd" d="M12.3405 53.2633C13.8035 53.2633 14.9983 54.4599 14.9983 55.9214V55.9226C14.9983 57.3841 13.8035 58.5804 12.3405 58.5804C10.879 58.5804 9.68267 57.3841 9.68267 55.9226L9.68294 55.921C9.68294 54.4595 10.879 53.2634 12.3405 53.2632V53.2633ZM12.3405 49.5215C8.82134 49.5215 5.94067 52.4023 5.94067 55.9228C5.94067 59.4418 8.8212 62.3226 12.3403 62.3226C15.861 62.3224 18.7415 59.4419 18.7415 55.9228C18.7415 52.402 15.8609 49.5216 12.3403 49.5216L12.3405 49.5215ZM34.9894 53.2632C36.451 53.2632 37.6471 54.4597 37.6471 55.9213V55.9225C37.6471 57.384 36.4508 58.5803 34.9893 58.5803C33.5267 58.5803 32.3301 57.384 32.3301 55.9225L32.3304 55.9208C32.3304 54.4593 33.5264 53.2633 34.9893 53.2633V53.263L34.9894 53.2632ZM34.9894 49.5213C31.4691 49.5213 28.5881 52.4021 28.5881 55.9226C28.5881 59.4416 31.4688 62.3224 34.9893 62.3224C38.5084 62.3223 41.3891 59.4418 41.3891 55.9226H41.3894C41.3894 52.4018 38.5084 49.5215 34.9893 49.5215L34.9894 49.5213ZM57.6369 53.263C59.0987 53.263 60.2947 54.4596 60.2947 55.9211V55.9224C60.2947 57.3839 59.0984 58.5802 57.6369 58.5802C56.1742 58.5802 54.9791 57.3839 54.9791 55.9224V55.9207C54.9791 54.4592 56.174 53.2632 57.6369 53.2632V53.2629V53.263ZM57.6369 49.5212C54.1165 49.5212 51.2357 52.402 51.2357 55.9225H51.236C51.236 59.4415 54.1164 62.3223 57.6369 62.3223C61.156 62.3222 64.0367 59.4416 64.0367 55.9225H64.0368C64.0368 52.4017 61.1559 49.5213 57.6369 49.5213V49.5212Z" fill="#383276"/>
<path fill-rule="evenodd" clip-rule="evenodd" d="M58.5887 7.5492C59.9858 8.26971 61.2148 9.22592 62.2388 10.3525C62.444 10.5781 62.7693 10.6288 63.0345 10.4763L64.1285 9.84443C64.4128 9.68051 64.7709 9.75529 64.965 10.0194C65.6445 10.9427 66.2214 11.9403 66.6807 12.9912C66.8121 13.2914 66.6984 13.6391 66.4141 13.803L65.3192 14.435C65.0554 14.5873 64.9363 14.8947 65.0291 15.1851C65.4927 16.6358 65.7059 18.178 65.6307 19.7481C65.6173 20.0521 65.8111 20.3185 66.1051 20.3973L67.326 20.7244C67.6432 20.8093 67.8426 21.1154 67.7934 21.4397C67.7089 21.9997 67.5911 22.5608 67.4421 23.1213C67.2918 23.6817 67.1127 24.226 66.9061 24.7537C66.7861 25.0599 66.4604 25.2241 66.1432 25.1393L64.9225 24.8123C64.6284 24.7332 64.3276 24.8672 64.1868 25.1379C63.4666 26.5349 62.5106 27.7643 61.3841 28.7883C61.1585 28.9934 61.1079 29.3188 61.2596 29.5827L61.8928 30.6775C62.0567 30.962 61.9815 31.3188 61.7176 31.5144C61.1326 31.9437 60.52 32.3319 59.8815 32.6765C59.7505 32.7462 59.604 32.7435 59.4768 32.6669C59.3498 32.5914 59.2772 32.4632 59.2772 32.3155L59.2775 20.0108C59.4621 18.5933 59.2007 17.1067 58.4311 15.7731C56.569 12.5496 52.4469 11.4453 49.2244 13.3063C46.2401 15.0289 45.0724 18.689 46.3916 21.7804C46.4478 21.9107 46.4354 22.049 46.3561 22.1669C46.2783 22.2857 46.1565 22.3515 46.0143 22.3515L40.2669 22.3512C40.0727 22.3512 39.9099 22.2216 39.866 22.0325C39.6091 20.902 39.4996 19.7278 39.5557 18.5378C39.5707 18.2331 39.3766 17.9673 39.0826 17.8884L37.8619 17.5612C37.5447 17.4763 37.3449 17.1705 37.3941 16.8462C37.4792 16.2859 37.5965 15.7246 37.7455 15.1644C37.896 14.6042 38.075 14.0597 38.2815 13.532C38.402 13.2263 38.7272 13.0614 39.0443 13.1463L40.2654 13.4731C40.5595 13.5521 40.8601 13.4189 41.0009 13.1481C41.7217 11.751 42.6771 10.5221 43.8037 9.49744C44.0294 9.29223 44.0798 8.96684 43.9281 8.70297L43.2952 7.60826C43.1313 7.32402 43.2062 6.9665 43.4701 6.77195C44.3946 6.0915 45.391 5.51605 46.4423 5.05627C46.7432 4.92475 47.0904 5.03891 47.2544 5.32287L47.8864 6.41717C48.038 6.68117 48.3455 6.79998 48.6353 6.70715C50.086 6.24367 51.6294 6.03066 53.199 6.10504C53.504 6.11926 53.7691 5.92525 53.8484 5.6309L54.1751 4.41014C54.26 4.09322 54.566 3.89348 54.89 3.94283C55.4507 4.02787 56.0125 4.14477 56.5717 4.29502C57.1322 4.44486 57.6764 4.62451 58.2041 4.83082C58.5104 4.95004 58.6758 5.27666 58.591 5.59357L58.263 6.81393C58.1852 7.10801 58.3176 7.40947 58.5886 7.54906L58.5887 7.5492Z" fill="#7B2E86"/>
<path fill-rule="evenodd" clip-rule="evenodd" d="M49.6827 23.9919V31.1668L47.3377 29.291C46.9784 29.0041 46.4736 29.0192 46.1332 29.3036L43.8035 31.1669V23.9921H49.6827V23.9919ZM57.2267 23.9919H51.5967V33.1521C51.5967 33.6812 51.1673 34.1091 50.6396 34.1091C50.3786 34.1091 50.1433 34.0052 49.971 33.8371L46.7432 31.2544L43.4416 33.8956C43.0301 34.2238 42.431 34.157 42.1029 33.7468C41.9623 33.5705 41.8937 33.3613 41.8937 33.1521H41.8896V23.9919H35.8496V24.3527C36.4633 24.5194 37.0403 24.8164 37.5392 25.2116C39.6105 26.8494 39.9277 29.6604 38.0984 31.647L38.0398 31.7111L35.8496 33.6375V43.7288C35.8496 43.9542 36.0339 44.139 36.2595 44.139H57.2268C57.4523 44.1388 57.6368 43.9544 57.6368 43.7288V24.4021C57.6368 24.1767 57.4523 23.9922 57.2267 23.9922V23.9919Z" fill="#7B2E86"/>
<path fill-rule="evenodd" clip-rule="evenodd" d="M21.5717 12.2678C18.5201 12.2678 16.0469 14.7414 16.0469 17.7926C16.0469 20.8439 18.5201 23.3167 21.5717 23.3167C24.622 23.3164 27.0965 20.8439 27.0965 17.7926C27.0965 14.7413 24.6219 12.2679 21.5717 12.2678Z" fill="#383276"/>
<path fill-rule="evenodd" clip-rule="evenodd" d="M29.4813 43.7286V38.3062C29.2885 38.3432 29.0941 38.3747 28.8986 38.3981C27.3169 38.588 25.6789 38.3024 24.1572 37.519C24.1339 37.5093 24.1107 37.4985 24.0888 37.4862L18.4016 34.4113C17.938 34.1612 17.7628 33.5815 18.013 33.118C18.2634 32.6529 18.8416 32.4796 19.3064 32.7284L24.9925 35.8029C25.0076 35.8113 25.0199 35.8182 25.0335 35.8264C26.2028 36.4253 27.4603 36.644 28.6744 36.4991C29.2062 36.4348 29.7312 36.2995 30.2371 36.0958C30.7705 35.8196 31.2775 35.4737 31.7505 35.0581L36.8912 30.5353C39.4013 27.8105 35.1863 24.1124 32.7677 26.7387L29.4619 29.3144C29.2665 26.8301 27.649 24.729 25.43 23.8321C24.3158 24.5441 22.9923 24.9573 21.5718 24.9573C20.0135 24.9573 18.5722 24.461 17.3964 23.6161C14.7058 24.3952 12.7234 26.8878 12.7234 29.8204V36.2761L12.7235 43.7288C12.7235 43.9542 12.908 44.1389 13.1335 44.1389H29.071C29.2979 44.1388 29.481 43.9544 29.4813 43.7288V43.7286Z" fill="#383276"/>
</svg>
