<svg width="70" height="70" viewBox="0 0 70 70" fill="none" xmlns="http://www.w3.org/2000/svg">
<path fill-rule="evenodd" clip-rule="evenodd" d="M0.0705336 25.8864L19.4905 3.42943C19.5396 3.37396 19.6085 3.34002 19.6824 3.3349C19.7563 3.32979 19.8293 3.35392 19.8856 3.40208L48.6524 28.277C48.7079 28.327 48.7418 28.3966 48.7469 28.471C48.752 28.5455 48.7279 28.6191 48.6798 28.6762L29.2604 51.1328C29.2106 51.1885 29.141 51.2226 29.0665 51.2278C28.9919 51.2331 28.9183 51.209 28.8612 51.1608L0.0984242 26.2855C0.0700938 26.2613 0.0468755 26.2317 0.0301292 26.1985C0.013383 26.1652 0.00344558 26.1289 0.000899088 26.0917C-0.0016474 26.0546 0.00324823 26.0173 0.0152992 25.982C0.0273502 25.9468 0.0457673 25.9143 0.0705336 25.8864Z" fill="#7B2E86"/>
<path fill-rule="evenodd" clip-rule="evenodd" d="M12.9572 15.3144L26.5145 9.13281L48.6525 28.277C48.7079 28.327 48.7418 28.3966 48.7469 28.4711C48.752 28.5456 48.7279 28.6191 48.6798 28.6762L29.2604 51.1328C29.2106 51.1885 29.141 51.2226 29.0665 51.2278C28.9919 51.2331 28.9183 51.209 28.8612 51.1608L27.4844 49.9676L12.3826 16.851C12.2556 16.571 12.2447 16.2521 12.3523 15.9641C12.46 15.6761 12.6773 15.4425 12.9568 15.3144H12.9572Z" fill="white"/>
<path fill-rule="evenodd" clip-rule="evenodd" d="M13.3204 16.1125L40.3351 3.79652C40.4029 3.76626 40.4799 3.76396 40.5494 3.79012C40.6189 3.81627 40.6752 3.86878 40.7063 3.93624L56.4825 38.5378C56.4985 38.5713 56.5076 38.6077 56.5095 38.6447C56.5113 38.6818 56.5057 38.7189 56.4931 38.7538C56.4805 38.7887 56.4611 38.8207 56.436 38.848C56.4109 38.8754 56.3806 38.8975 56.3469 38.913L29.3321 51.2285C29.2636 51.2584 29.1862 51.2606 29.1162 51.2345C29.0462 51.2084 28.9891 51.1562 28.9569 51.0888L13.1807 16.4883C13.1501 16.4199 13.1476 16.3422 13.1737 16.2721C13.1998 16.2019 13.2525 16.1442 13.3204 16.1125Z" fill="#645CB5"/>
<path fill-rule="evenodd" clip-rule="evenodd" d="M29.3561 11.8743H44.3268L56.4826 38.5378C56.4985 38.5713 56.5077 38.6077 56.5095 38.6447C56.5113 38.6818 56.5058 38.7189 56.4932 38.7538C56.4805 38.7887 56.4611 38.8207 56.436 38.848C56.4109 38.8754 56.3806 38.8975 56.3469 38.913L29.3321 51.2285C29.2637 51.2584 29.1863 51.2606 29.1163 51.2345C29.0463 51.2084 28.9892 51.1562 28.957 51.0888L28.1987 49.4208V13.0356C28.1984 12.8833 28.2281 12.7325 28.2861 12.5917C28.3441 12.4509 28.4293 12.3229 28.5367 12.2151C28.6442 12.1072 28.7719 12.0216 28.9125 11.9631C29.0531 11.9047 29.2038 11.8745 29.3561 11.8743Z" fill="#56A5E6"/>
<path fill-rule="evenodd" clip-rule="evenodd" d="M29.356 12.7523H51.4659L59.328 20.6144V51.0617C59.3277 51.1367 59.2978 51.2086 59.2447 51.2617C59.1917 51.3148 59.1198 51.3448 59.0447 51.3451H29.356C29.319 51.3449 29.2825 51.3373 29.2484 51.323C29.2144 51.3086 29.1835 51.2876 29.1575 51.2613C29.1316 51.235 29.1111 51.2038 29.0972 51.1695C29.0834 51.1353 29.0764 51.0986 29.0767 51.0617V13.0355C29.0764 12.9986 29.0834 12.9619 29.0972 12.9277C29.1111 12.8934 29.1316 12.8623 29.1576 12.8359C29.1835 12.8096 29.2144 12.7887 29.2484 12.7743C29.2825 12.76 29.319 12.7525 29.356 12.7523Z" fill="#EAF6FF"/>
<path fill-rule="evenodd" clip-rule="evenodd" d="M51.4661 12.7523V18.8499C51.467 19.3174 51.6531 19.7655 51.9836 20.096C52.3142 20.4266 52.7623 20.6127 53.2297 20.6136H59.3274L51.4661 12.7523Z" fill="#BEC7CF"/>
<path fill-rule="evenodd" clip-rule="evenodd" d="M36.1566 39.5635H59.3561C60.532 39.5671 61.6587 40.0358 62.4902 40.8673C63.3217 41.6988 63.7904 42.8255 63.794 44.0014V62.2281C63.7911 63.4042 63.3226 64.5313 62.491 65.363C61.6594 66.1947 60.5322 66.6632 59.3561 66.6661H18.2254C17.0494 66.6625 15.9227 66.1938 15.0912 65.3623C14.2596 64.5308 13.7909 63.404 13.7874 62.2281V35.1255C13.79 34.1592 14.1752 33.2333 14.8589 32.5505C15.5425 31.8676 16.4689 31.4833 17.4351 31.4818H25.1815C26.4667 31.4818 27.3407 32.272 28.2585 33.166L33.0796 37.8793C33.9975 38.7773 34.8716 39.5635 36.1566 39.5635Z" fill="#383276"/>
<path d="M33.9098 20.5067C33.6504 20.5037 33.4026 20.3985 33.2202 20.2139C33.0378 20.0294 32.9355 19.7804 32.9355 19.5209C32.9355 19.2614 33.0378 19.0124 33.2202 18.8279C33.4026 18.6434 33.6504 18.5382 33.9098 18.5351H46.9443C47.2038 18.5382 47.4515 18.6434 47.6339 18.8279C47.8163 19.0124 47.9186 19.2614 47.9186 19.5209C47.9186 19.7804 47.8163 20.0294 47.6339 20.2139C47.4515 20.3985 47.2038 20.5037 46.9443 20.5067H33.9098ZM33.9098 34.8895C33.6484 34.8895 33.3977 34.7857 33.2128 34.6008C33.0279 34.4159 32.9241 34.1652 32.9241 33.9038C32.9241 33.6424 33.0279 33.3916 33.2128 33.2068C33.3977 33.0219 33.6484 32.918 33.9098 32.918H54.4951C54.7566 32.918 55.0073 33.0219 55.1922 33.2068C55.377 33.3916 55.4809 33.6424 55.4809 33.9038C55.4809 34.1652 55.377 34.4159 55.1922 34.6008C55.0073 34.7857 54.7566 34.8895 54.4951 34.8895H33.9098ZM33.9098 30.0964C33.6504 30.0934 33.4026 29.9882 33.2202 29.8036C33.0378 29.6191 32.9355 29.3701 32.9355 29.1106C32.9355 28.8512 33.0378 28.6022 33.2202 28.4176C33.4026 28.2331 33.6504 28.1279 33.9098 28.1248H54.4951C54.6256 28.1233 54.755 28.1476 54.876 28.1965C54.9969 28.2454 55.107 28.3177 55.1998 28.4094C55.2925 28.5011 55.3662 28.6103 55.4165 28.7307C55.4667 28.851 55.4926 28.9802 55.4926 29.1106C55.4926 29.2411 55.4667 29.3702 55.4165 29.4906C55.3662 29.611 55.2925 29.7202 55.1998 29.8118C55.107 29.9035 54.9969 29.9759 54.876 30.0248C54.755 30.0736 54.6256 30.098 54.4951 30.0964H33.9098ZM33.9098 25.3032C33.7804 25.3032 33.6522 25.2777 33.5326 25.2282C33.413 25.1786 33.3043 25.106 33.2128 25.0145C33.1213 24.923 33.0486 24.8143 32.9991 24.6947C32.9496 24.5751 32.9241 24.4469 32.9241 24.3175C32.9241 24.188 32.9496 24.0598 32.9991 23.9403C33.0486 23.8207 33.1213 23.712 33.2128 23.6205C33.3043 23.5289 33.413 23.4563 33.5326 23.4068C33.6522 23.3572 33.7804 23.3317 33.9098 23.3317H54.4951C54.6246 23.3317 54.7528 23.3572 54.8724 23.4068C54.992 23.4563 55.1006 23.5289 55.1922 23.6205C55.2837 23.712 55.3563 23.8207 55.4059 23.9403C55.4554 24.0598 55.4809 24.188 55.4809 24.3175C55.4809 24.4469 55.4554 24.5751 55.4059 24.6947C55.3563 24.8143 55.2837 24.923 55.1922 25.0145C55.1006 25.106 54.992 25.1786 54.8724 25.2282C54.7528 25.2777 54.6246 25.3032 54.4951 25.3032H33.9098Z" fill="#BEC7CF"/>
<path d="M20.0492 54.765C19.7878 54.765 19.5371 54.6611 19.3522 54.4763C19.1673 54.2914 19.0635 54.0407 19.0635 53.7793C19.0635 53.5178 19.1673 53.2671 19.3522 53.0822C19.5371 52.8974 19.7878 52.7935 20.0492 52.7935H29.6634C29.9249 52.7935 30.1756 52.8974 30.3604 53.0822C30.5453 53.2671 30.6492 53.5178 30.6492 53.7793C30.6492 54.0407 30.5453 54.2914 30.3604 54.4763C30.1756 54.6611 29.9249 54.765 29.6634 54.765H20.0492ZM20.0492 61.4977C19.7878 61.4977 19.5371 61.3939 19.3522 61.209C19.1673 61.0241 19.0635 60.7734 19.0635 60.512C19.0635 60.2505 19.1673 59.9998 19.3522 59.8149C19.5371 59.6301 19.7878 59.5262 20.0492 59.5262H57.5322C57.7936 59.5262 58.0443 59.6301 58.2292 59.8149C58.4141 59.9998 58.5179 60.2505 58.5179 60.512C58.5179 60.7734 58.4141 61.0241 58.2292 61.209C58.0443 61.3939 57.7936 61.4977 57.5322 61.4977H20.0492Z" fill="white"/>
<path fill-rule="evenodd" clip-rule="evenodd" d="M59.328 40.3097C59.9369 40.7143 60.4365 41.2629 60.7825 41.9068C61.1286 42.5507 61.3103 43.2701 61.3117 44.0011V62.2281C61.3088 63.4042 60.8402 64.5314 60.0086 65.363C59.1769 66.1947 58.0498 66.6632 56.8737 66.6661H59.3561C60.5322 66.6632 61.6593 66.1947 62.4909 65.363C63.3226 64.5313 63.7911 63.4042 63.7939 62.2281V44.0014C63.7948 43.4191 63.6795 42.8425 63.4548 42.3053C63.1172 41.4957 62.5482 40.8037 61.8191 40.3159C61.09 39.8282 60.2332 39.5665 59.3561 39.5635H56.8737C57.7477 39.5634 58.602 39.8232 59.328 40.3097ZM33.0795 37.8793L29.0767 33.9682L28.2584 33.166C27.3406 32.272 26.4666 31.4818 25.1814 31.4818H22.7031C23.9842 31.4818 24.8582 32.272 25.7762 33.166L29.0767 36.3907L30.6012 37.8793C31.5151 38.7773 32.3891 39.5635 33.6743 39.5635H36.1565C34.8714 39.5635 33.9975 38.7773 33.0795 37.8793Z" fill="#8178E0"/>
<path fill-rule="evenodd" clip-rule="evenodd" d="M61.599 52.6658C63.2605 52.6658 64.8847 52.1731 66.2663 51.25C67.6478 50.3269 68.7246 49.0148 69.3604 47.4798C69.9963 45.9447 70.1626 44.2555 69.8385 42.6259C69.5143 40.9963 68.7142 39.4994 67.5393 38.3245C66.3644 37.1496 64.8675 36.3495 63.2379 36.0253C61.6083 35.7012 59.9191 35.8675 58.384 36.5034C56.849 37.1392 55.5369 38.216 54.6138 39.5975C53.6907 40.9791 53.198 42.6033 53.198 44.2649C53.2022 46.4916 54.0886 48.626 55.6632 50.2006C57.2378 51.7752 59.3722 52.6617 61.599 52.6658Z" fill="#7B2E86"/>
<path d="M56.5785 45.4062C56.4846 45.3153 56.4097 45.2065 56.3582 45.0864C56.3066 44.9662 56.2795 44.837 56.2784 44.7062C56.2772 44.5755 56.3021 44.4458 56.3515 44.3248C56.401 44.2037 56.474 44.0937 56.5663 44.0011C56.6587 43.9085 56.7685 43.8352 56.8894 43.7855C57.0103 43.7358 57.1399 43.7106 57.2707 43.7114C57.4014 43.7122 57.5307 43.739 57.651 43.7902C57.7713 43.8414 57.8802 43.9161 57.9714 44.0098L59.8631 45.9014L65.2225 40.542C65.4071 40.3573 65.6576 40.2536 65.9189 40.2535C66.1801 40.2535 66.4306 40.3573 66.6153 40.542C66.8 40.7267 66.9038 40.9772 66.9038 41.2384C66.9038 41.4996 66.8 41.7501 66.6153 41.9348L60.5575 47.9924C60.3724 48.1764 60.1221 48.2797 59.8611 48.2797C59.6001 48.2797 59.3498 48.1764 59.1647 47.9924L56.5785 45.4062Z" fill="#EAF6FF"/>
<path fill-rule="evenodd" clip-rule="evenodd" d="M60.8847 35.8918C62.9459 36.0666 64.8702 36.9955 66.2891 38.5008C67.708 40.006 68.5218 41.9818 68.5747 44.0497C68.6276 46.1176 67.9159 48.1324 66.5758 49.7082C65.2356 51.284 63.3613 52.3101 61.3118 52.59C61.172 52.6099 61.0284 52.6259 60.8847 52.6378C61.0284 52.6499 61.1681 52.6578 61.3118 52.6619C61.4075 52.6659 61.5032 52.6659 61.5989 52.6659C62.3403 52.6672 63.0785 52.5692 63.7939 52.3745C65.7595 51.8424 67.4649 50.6145 68.5929 48.9192C69.721 47.2239 70.1949 45.1766 69.9266 43.158C69.6582 41.1395 68.6658 39.2871 67.134 37.9454C65.6022 36.6037 63.6352 35.864 61.5989 35.864C61.3593 35.864 61.1204 35.8719 60.8845 35.8913L60.8847 35.8918Z" fill="#383276"/>
<path fill-rule="evenodd" clip-rule="evenodd" d="M57.5322 20.6144V36.9095C58.1002 36.5956 58.7029 36.3491 59.3282 36.1752V20.6144H57.5322Z" fill="#D3DDE6"/>
</svg>
