<svg width="70" height="66" viewBox="0 0 70 66" fill="none" xmlns="http://www.w3.org/2000/svg">
<path d="M49.082 59.4258H40.4688C40.0913 59.4258 39.7852 59.1373 39.7852 58.7812C39.7852 58.4252 40.0913 58.1367 40.4688 58.1367H49.082C51.4944 58.1367 53.457 56.2863 53.457 54.0117V51.0469C53.457 50.6908 53.7631 50.4023 54.1406 50.4023C54.5181 50.4023 54.8242 50.6908 54.8242 51.0469V54.0117C54.8242 56.9971 52.2483 59.4258 49.082 59.4258Z" fill="#383276"/>
<path d="M41.0348 33.7554C42.1026 34.7621 42.1026 36.3941 41.0348 37.4021C39.967 38.4089 38.2348 38.4089 37.167 37.4021C36.0993 36.3941 36.0993 34.7621 37.167 33.7554C38.2348 32.7486 39.967 32.7486 41.0348 33.7554Z" fill="#7B2E86"/>
<path d="M35.4005 18.2867C36.4683 19.2934 36.4683 20.9254 35.4005 21.9334C34.3314 22.9402 32.6005 22.9402 31.5328 21.9334C30.465 20.9254 30.465 19.2934 31.5328 18.2867C32.6005 17.2799 34.3314 17.2799 35.4005 18.2867Z" fill="#7B2E86"/>
<path d="M13.125 23.9766C13.125 12.5865 22.9162 3.35156 35 3.35156C47.0805 3.35156 56.875 12.5864 56.875 23.9766C56.8747 25.1686 56.8757 21.038 56.8736 29.3996C56.6906 29.3839 56.9881 29.3933 51.4062 29.3906V23.9766C51.4062 15.4339 44.0604 8.50781 35 8.50781C25.9402 8.50781 18.5938 15.4325 18.5938 23.9766V29.3906C13.0793 29.3932 13.3118 29.3834 13.1264 29.3996C13.1264 29.3996 13.1253 25.1686 13.125 23.9766Z" fill="#383276"/>
<path d="M36.3672 54.9141C38.6312 54.9141 40.4688 56.6453 40.4688 58.7812C40.4688 60.9172 38.6312 62.6484 36.3672 62.6484C34.1018 62.6484 32.2656 60.9172 32.2656 58.7812C32.2656 56.6453 34.1018 54.9141 36.3672 54.9141Z" fill="#7B2E86"/>
<path d="M66.4453 38.1562V40.7344C66.4453 44.2948 63.3842 47.1797 59.6094 47.1797L58.2422 39.4453L59.6094 31.7109C63.3813 31.7109 66.4453 34.597 66.4453 38.1562Z" fill="#7B2E86"/>
<path d="M10.3906 31.7109L11.7578 39.4453L10.3906 47.1797C6.61445 47.1797 3.55469 44.2948 3.55469 40.7344V38.1562C3.55469 34.5975 6.61459 31.7109 10.3906 31.7109Z" fill="#7B2E86"/>
<path d="M59.6094 48.2548C59.6094 49.7965 58.2832 51.0469 56.6467 51.0469C55.127 51.0469 51.3294 51.0469 50.266 51.0469C48.6309 51.0469 47.3047 49.7965 47.3047 48.2548V30.6371C47.3047 29.0941 48.6309 27.8437 50.266 27.8437H51.4062C56.922 27.8463 56.6851 27.8366 56.8736 27.8528C58.4035 27.961 59.6094 29.1663 59.6094 30.6371V48.2548Z" fill="#383276"/>
<path d="M22.6953 30.6371V48.2548C22.6953 49.7965 21.3691 51.0469 19.7326 51.0469H13.352C11.7168 51.0469 10.3906 49.7965 10.3906 48.2548C10.3906 46.398 10.3906 32.9135 10.3906 30.6371C10.3906 29.0931 11.7195 27.8438 13.352 27.8438H19.7326C21.3691 27.8438 22.6953 29.0941 22.6953 30.6371Z" fill="#383276"/>
<path d="M27.6807 36.0338C27.4137 35.7822 27.4137 35.3741 27.6807 35.1224L44.087 19.6537C44.354 19.4019 44.7867 19.4019 45.0537 19.6537C45.3207 19.9053 45.3207 20.3134 45.0537 20.5651L28.6475 36.0338C28.3805 36.2856 27.9477 36.2856 27.6807 36.0338Z" fill="#7B2E86"/>
</svg>
