<svg width="70" height="70" viewBox="0 0 70 70" fill="none" xmlns="http://www.w3.org/2000/svg">
<path d="M30.2421 38.5875L24.3687 41.9781C24.1609 42.0984 23.9312 42.164 23.6905 42.164H23.6796C23.45 42.164 23.2092 42.0984 23.0015 41.9781L4.47339 31.2812C4.64839 31.1062 4.84526 30.9531 5.05308 30.8328L21.1968 21.514C21.1859 21.6344 21.1859 21.7547 21.1859 21.875C21.1859 28.864 24.7953 35.0218 30.2421 38.5875Z" fill="#383276"/>
<path d="M43.8265 41.65V53.2109C43.8265 54.2828 43.2468 55.2781 42.3171 55.8141L25.189 65.7016C24.9702 65.8328 24.7405 65.9203 24.5107 65.9858V43.6843C24.7404 43.6186 24.9701 43.5311 25.189 43.3999L31.8718 39.5389C34.639 41.0046 37.7999 41.8358 41.1468 41.8358C42.0546 41.8358 42.9515 41.7703 43.8265 41.65Z" fill="#383276"/>
<path d="M22.1813 43.4L3.65312 32.7031C3.5875 32.9437 3.55469 33.1844 3.55469 33.4359V53.2109C3.55469 54.2828 4.13437 55.2781 5.05312 55.8141L22.1813 65.7016C22.4 65.8328 22.6297 65.9203 22.8702 65.9858V43.6843C22.6296 43.6186 22.3999 43.5313 22.1813 43.4ZM8.03895 47.1625C8.26864 46.7797 8.77177 46.6375 9.16552 46.8672L13.5405 49.3938C13.9233 49.6234 14.0655 50.1266 13.8358 50.5094C13.6827 50.7719 13.4093 50.925 13.1249 50.925C12.9827 50.925 12.8405 50.8922 12.7093 50.8156L8.33427 48.2891C7.95145 48.0594 7.80927 47.5562 8.03895 47.1625ZM16.0233 56.1422C15.8702 56.4156 15.5968 56.5578 15.3124 56.5578C15.1702 56.5578 15.028 56.525 14.9077 56.4484L8.3452 52.6641C7.95145 52.4344 7.80927 51.9312 8.03895 51.5375C8.26864 51.1547 8.77177 51.0125 9.15458 51.2422L15.7171 55.0266C16.1108 55.2563 16.253 55.7594 16.0233 56.1422Z" fill="#383276"/>
<path d="M66.4454 41.9781C66.4454 43.3672 65.9094 44.6797 64.9251 45.6531C63.9079 46.6703 62.5844 47.1734 61.25 47.1734C59.9157 47.1734 58.5922 46.6703 57.575 45.6531L51.0891 39.1672C54.1407 37.4172 56.6782 34.8797 58.4391 31.8281L64.9251 38.3141C65.9094 39.2875 66.4454 40.6 66.4454 41.9781Z" fill="#7B2E86"/>
<path d="M41.1414 34.1797C47.937 34.1797 53.446 28.6707 53.446 21.875C53.446 15.0793 47.937 9.57031 41.1414 9.57031C34.3457 9.57031 28.8367 15.0793 28.8367 21.875C28.8367 28.6707 34.3457 34.1797 41.1414 34.1797Z" fill="#7B2E86"/>
<path d="M41.1416 3.55469C31.0399 3.55469 22.8213 11.7728 22.8213 21.875C22.8213 31.9772 31.0399 40.1953 41.1416 40.1953C51.2433 40.1953 59.4619 31.9772 59.4619 21.875C59.4619 11.7728 51.2434 3.55469 41.1416 3.55469ZM41.1416 35.8203C33.4522 35.8203 27.1963 29.5644 27.1963 21.875C27.1963 14.1856 33.4522 7.92969 41.1416 7.92969C48.831 7.92969 55.0869 14.1856 55.0869 21.875C55.0869 29.5644 48.831 35.8203 41.1416 35.8203Z" fill="#7B2E86"/>
</svg>
