<svg width="22" height="22" viewBox="0 0 22 22" fill="none" xmlns="http://www.w3.org/2000/svg">
<path d="M16.3647 0.637695H5.62296C2.65532 0.637695 0.241699 3.07343 0.241699 6.06827V15.9856C0.241699 18.9805 2.65532 21.4162 5.62296 21.4162H16.3647C19.3324 21.4162 21.746 18.9805 21.746 15.9856V6.06827C21.746 3.07343 19.3324 0.637695 16.3647 0.637695ZM2.1398 6.06827C2.1398 4.12985 3.70214 2.5532 5.62296 2.5532H16.3647C18.2856 2.5532 19.8479 4.12985 19.8479 6.06827V15.9856C19.8479 17.9241 18.2856 19.5007 16.3647 19.5007H5.62296C3.70214 19.5007 2.1398 17.9241 2.1398 15.9856V6.06827Z" fill="black"/>
<path d="M10.9933 16.0793C13.7536 16.0793 15.9993 13.813 15.9993 11.0275C15.9993 8.2419 13.7536 5.97559 10.9933 5.97559C8.23305 5.97559 5.9873 8.2419 5.9873 11.0275C5.9873 13.813 8.23305 16.0793 10.9933 16.0793ZM10.9933 7.89208C12.7067 7.89208 14.1002 9.29832 14.1002 11.0275C14.1002 12.7566 12.7067 14.1628 10.9933 14.1628C9.27988 14.1628 7.8864 12.7566 7.8864 11.0275C7.8864 9.29832 9.27988 7.89208 10.9933 7.89208Z" fill="black"/>
<path d="M16.4635 6.79112C17.2072 6.79112 17.8125 6.1802 17.8125 5.42974C17.8125 4.67929 17.2072 4.06836 16.4635 4.06836C15.7199 4.06836 15.1145 4.67929 15.1145 5.42974C15.1145 6.1802 15.7199 6.79112 16.4635 6.79112Z" fill="black"/>
</svg>
