<svg width="22" height="22" viewBox="0 0 22 22" fill="none" xmlns="http://www.w3.org/2000/svg">
<path d="M1.3704 4.74929C0.881574 4.29115 0.637695 3.72433 0.637695 3.0499C0.637695 2.37546 0.881574 1.78306 1.3704 1.32492C1.85923 0.86677 2.48846 0.637695 3.26024 0.637695C4.03201 0.637695 4.63593 0.86677 5.1237 1.32492C5.61253 1.78306 5.85641 2.35842 5.85641 3.0499C5.85641 3.74138 5.61253 4.29115 5.1237 4.74929C4.63488 5.20744 4.01406 5.43651 3.26024 5.43651C2.50641 5.43651 1.85923 5.20744 1.3704 4.74929ZM5.44464 7.37671V21.4162H1.04944V7.37671H5.44464Z" fill="black"/>
<path d="M20.0797 8.76256C21.0373 9.81203 21.5166 11.2536 21.5166 13.0883V21.1687H17.341V13.6583C17.341 12.7335 17.1034 12.0143 16.6283 11.5018C16.1532 10.9894 15.5145 10.7336 14.7121 10.7336C13.9097 10.7336 13.2709 10.9904 12.7958 11.5018C12.3207 12.0143 12.0832 12.7335 12.0832 13.6583V21.1687H7.8833V7.33804H12.0832V9.17275C12.5087 8.56118 13.0819 8.07853 13.803 7.72267C14.5231 7.36787 15.334 7.18994 16.2345 7.18994C17.8393 7.18994 19.121 7.7152 20.0786 8.76361L20.0797 8.76256Z" fill="black"/>
</svg>
