<svg width="114" height="66" viewBox="0 0 114 66" fill="none" xmlns="http://www.w3.org/2000/svg">
<path fill-rule="evenodd" clip-rule="evenodd" d="M38.6788 43.0765L14.2009 4.6499L36.8504 18.5568L45.5744 32.253L38.6788 43.0765Z" fill="#F7F5FA"/>
<path d="M38.5901 59.9647H38.9028C39.0752 59.9647 39.2037 59.9533 39.2896 59.9302C39.3755 59.9071 39.4509 59.8675 39.5144 59.8133C39.6008 59.7382 39.6658 59.6456 39.7092 59.5345C39.7522 59.4234 39.7737 59.2941 39.7737 59.1473C39.7737 58.9995 39.7522 58.8702 39.7092 58.7591C39.6658 58.648 39.6008 58.5554 39.5144 58.4806C39.4497 58.4261 39.3724 58.3868 39.2822 58.3637C39.1919 58.3403 39.0506 58.3291 38.859 58.3291H38.7245H38.5901V59.9647ZM38.218 60.304V57.9928H38.7204C39.0463 57.9928 39.2759 58.0098 39.4085 58.0426C39.5416 58.0759 39.6584 58.1313 39.758 58.2091C39.8904 58.3109 39.991 58.4424 40.0591 58.6023C40.1275 58.7625 40.1617 58.9446 40.1617 59.15C40.1617 59.3551 40.1275 59.5372 40.0591 59.6956C39.991 59.8544 39.8904 59.9849 39.758 60.0882C39.6584 60.1657 39.5443 60.2211 39.4167 60.2547C39.2891 60.2875 39.0901 60.304 38.82 60.304H38.7204H38.218ZM41.6338 60.304V57.9928H42.9115V58.3119H42.0057V58.8911H42.9115V59.2209H42.0057V59.9679H42.9115V60.304H41.6338ZM44.7555 59.9647H45.0681C45.2405 59.9647 45.3693 59.9533 45.4549 59.9302C45.5411 59.9071 45.6162 59.8675 45.6798 59.8133C45.7662 59.7382 45.8314 59.6456 45.8745 59.5345C45.9178 59.4234 45.9392 59.2941 45.9392 59.1473C45.9392 58.9995 45.9178 58.8702 45.8745 58.7591C45.8314 58.648 45.7662 58.5554 45.6798 58.4806C45.6152 58.4261 45.5377 58.3868 45.4475 58.3637C45.3575 58.3403 45.2159 58.3291 45.0246 58.3291H44.89H44.7555V59.9647ZM44.3836 60.304V57.9928H44.8857C45.2116 57.9928 45.4412 58.0098 45.5741 58.0426C45.707 58.0759 45.8239 58.1313 45.9236 58.2091C46.056 58.3109 46.1563 58.4424 46.2245 58.6023C46.2928 58.7625 46.327 58.9446 46.327 59.15C46.327 59.3551 46.2928 59.5372 46.2245 59.6956C46.1563 59.8544 46.056 59.9849 45.9236 60.0882C45.8239 60.1657 45.7096 60.2211 45.582 60.2547C45.4547 60.2875 45.2556 60.304 44.9853 60.304H44.8857H44.3836ZM47.8056 60.304V57.9928H48.1775V60.304H47.8056ZM51.595 58.555C51.4898 58.4643 51.3784 58.3965 51.2607 58.3513C51.1434 58.3058 51.0202 58.2832 50.8909 58.2832C50.6406 58.2832 50.4375 58.3642 50.2808 58.5263C50.1238 58.6886 50.0454 58.8982 50.0454 59.1563C50.0454 59.4059 50.1214 59.6115 50.2743 59.7739C50.4273 59.9363 50.6199 60.0167 50.8522 60.0167C50.9877 60.0167 51.1169 59.9927 51.239 59.944C51.3613 59.8957 51.4792 59.8225 51.5919 59.7248V60.1494C51.4912 60.2221 51.3824 60.2761 51.2647 60.3123C51.1468 60.3478 51.019 60.3655 50.882 60.3655C50.7063 60.3655 50.5448 60.3366 50.3963 60.2787C50.2475 60.2211 50.1171 60.1358 50.0049 60.0233C49.8932 59.9129 49.8078 59.7824 49.7474 59.6322C49.6877 59.4822 49.6578 59.3228 49.6578 59.1531C49.6578 58.984 49.6877 58.825 49.7474 58.6755C49.8078 58.5263 49.8942 58.396 50.0078 58.2832C50.1214 58.1695 50.2519 58.0839 50.3987 58.0253C50.5453 57.9665 50.7044 57.9373 50.8755 57.9373C51.0101 57.9373 51.1381 57.9573 51.2604 57.9966C51.382 58.036 51.5004 58.0958 51.6152 58.1763L51.595 58.555ZM53.5841 59.3962H54.2222L53.9876 58.869C53.9743 58.8352 53.9599 58.797 53.9454 58.7533C53.931 58.7095 53.9163 58.6607 53.9019 58.6072C53.8893 58.6573 53.8761 58.7047 53.8617 58.7484C53.8479 58.7919 53.8335 58.8318 53.8191 58.869L53.5841 59.3962ZM54.6131 60.304L54.3537 59.7092H53.4469L53.1812 60.304H52.7901L53.8985 57.9014L55.006 60.304H54.6131ZM56.8312 58.3119V60.304H56.4593V58.3119H55.8508V57.9928H57.4366V58.3119H56.8312ZM58.766 60.304V57.9928H60.0436V58.3119H59.1378V58.8911H60.0436V59.2209H59.1378V59.9679H60.0436V60.304H58.766ZM61.8876 59.9647H62.2003C62.3726 59.9647 62.5014 59.9533 62.5871 59.9302C62.6733 59.9071 62.7484 59.8675 62.8119 59.8133C62.8985 59.7382 62.9635 59.6456 63.0066 59.5345C63.05 59.4234 63.0714 59.2941 63.0714 59.1473C63.0714 58.9995 63.05 58.8702 63.0066 58.7591C62.9635 58.648 62.8985 58.5554 62.8119 58.4806C62.7474 58.4261 62.6699 58.3868 62.5799 58.3637C62.4896 58.3403 62.3481 58.3291 62.1567 58.3291H62.0222H61.8876V59.9647ZM61.5157 60.304V57.9928H62.0181C62.344 57.9928 62.5734 58.0098 62.7062 58.0426C62.8391 58.0759 62.9561 58.1313 63.0557 58.2091C63.1881 58.3109 63.2885 58.4424 63.3566 58.6023C63.425 58.7625 63.4591 58.9446 63.4591 59.15C63.4591 59.3551 63.425 59.5372 63.3566 59.6956C63.2885 59.8544 63.1881 59.9849 63.0557 60.0882C62.9561 60.1657 62.8417 60.2211 62.7142 60.2547C62.5868 60.2875 62.3878 60.304 62.1177 60.304H62.0181H61.5157ZM66.6369 58.3119V60.304H66.265V58.3119H65.6565V57.9928H67.2422V58.3119H66.6369ZM70.4166 59.1531C70.4166 59.0362 70.3954 58.9251 70.3533 58.8201C70.3109 58.7151 70.2508 58.6213 70.1711 58.5394C70.0938 58.458 70.0048 58.3955 69.9034 58.352C69.8014 58.3083 69.6947 58.2866 69.5821 58.2866C69.4694 58.2866 69.3621 58.3082 69.2608 58.3513C69.1587 58.3943 69.0687 58.4568 68.9893 58.5394C68.9103 58.6201 68.8499 58.7134 68.8078 58.8184C68.7661 58.9234 68.7454 59.035 68.7454 59.1531C68.7454 59.27 68.7661 59.3804 68.8078 59.4844C68.8499 59.5889 68.9103 59.6823 68.9893 59.7642C69.0687 59.8466 69.1587 59.909 69.2596 59.9521C69.3604 59.9953 69.4685 60.0167 69.5821 60.0167C69.6935 60.0167 69.7992 59.9953 69.9001 59.9521C70.0009 59.909 70.0912 59.8466 70.1711 59.7642C70.2508 59.6823 70.3109 59.5889 70.3533 59.4839C70.3954 59.3794 70.4166 59.2688 70.4166 59.1531ZM70.8046 59.1531C70.8046 59.3174 70.7743 59.4725 70.7129 59.6191C70.652 59.7651 70.5634 59.8957 70.4465 60.0104C70.3285 60.1251 70.1956 60.2131 70.0479 60.2739C69.9001 60.3349 69.7448 60.3655 69.5821 60.3655C69.4172 60.3655 69.2603 60.3349 69.1103 60.2734C68.9608 60.2114 68.8289 60.1242 68.7144 60.0104C68.5974 59.8957 68.5088 59.7656 68.4486 59.6203C68.3882 59.4752 68.3579 59.3196 68.3579 59.1531C68.3579 58.9876 68.3882 58.8318 68.4486 58.686C68.5088 58.5399 68.5974 58.4089 68.7144 58.2929C68.8313 58.1782 68.9635 58.0905 69.1115 58.0307C69.2593 57.9709 69.416 57.9407 69.5821 57.9407C69.747 57.9407 69.9027 57.9709 70.05 58.0307C70.1978 58.0905 70.3297 58.1782 70.4465 58.2929C70.5634 58.4101 70.652 58.5416 70.7129 58.6879C70.7743 58.8352 70.8046 58.9898 70.8046 59.1531ZM72.9704 57.9928H73.338L73.771 59.1594C73.7992 59.2367 73.8232 59.3041 73.8423 59.3617C73.8615 59.4193 73.8786 59.4737 73.8931 59.5243C73.9292 59.402 73.9674 59.2829 74.0074 59.166C74.012 59.1514 74.0158 59.1412 74.018 59.1359L74.478 57.9014L74.9625 59.1594C74.9854 59.2205 75.0068 59.2819 75.0272 59.343C75.0479 59.4035 75.0665 59.4657 75.084 59.5277C75.0949 59.4803 75.1086 59.4278 75.1264 59.3714C75.1437 59.3143 75.1668 59.2467 75.195 59.1692L75.6251 57.9928H75.9956L75.1093 60.3942L74.5875 59.0758C74.5644 59.0173 74.5437 58.9609 74.5249 58.9064C74.5064 58.8517 74.4893 58.8007 74.4748 58.7523C74.457 58.8143 74.439 58.8724 74.4212 58.9266C74.4038 58.981 74.3858 59.0328 74.367 59.0819L73.8541 60.3942L72.9704 57.9928ZM77.2944 60.304V57.9928H78.5718V58.3119H77.6663V58.8911H78.5718V59.2209H77.6663V59.9679H78.5718V60.304H77.2944ZM80.0439 60.304V57.9928H80.4161V59.9679H81.2479V60.304H80.0439ZM82.5954 60.304V57.9928H82.9672V59.9679H83.7991V60.304H82.5954ZM85.1466 60.304V57.9014L86.6009 59.3143C86.6403 59.3541 86.6803 59.3967 86.7207 59.4421C86.7619 59.4871 86.8045 59.5384 86.8495 59.5955V57.9928H87.193V60.3942L85.7096 58.9558C85.6701 58.9171 85.6318 58.876 85.595 58.833C85.5582 58.7893 85.5228 58.7441 85.4893 58.6971V60.304H85.1466ZM88.764 60.304V57.9928H90.0417V58.3119H89.1359V58.8911H90.0417V59.2209H89.1359V59.9679H90.0417V60.304H88.764ZM91.3826 59.8417L91.6799 59.7027C91.7081 59.8055 91.7593 59.8845 91.8344 59.9389C91.9098 59.9931 92.0053 60.0201 92.1221 60.0201C92.2326 60.0201 92.3202 59.989 92.3852 59.9268C92.4509 59.8648 92.4834 59.7814 92.4834 59.6774C92.4834 59.5415 92.3719 59.4205 92.1488 59.3143C92.1173 59.2985 92.0932 59.2868 92.0768 59.2798C91.8243 59.1553 91.6561 59.043 91.5723 58.9424C91.4888 58.8418 91.4467 58.7188 91.4467 58.5739C91.4467 58.3858 91.51 58.2327 91.6366 58.1157C91.7629 57.9988 91.929 57.9407 92.1343 57.9407C92.3036 57.9407 92.4444 57.9736 92.558 58.0392C92.6716 58.1048 92.7508 58.1994 92.7946 58.3228L92.5038 58.474C92.4579 58.4013 92.4075 58.3486 92.3527 58.3151C92.2975 58.2813 92.2352 58.2645 92.1642 58.2645C92.0643 58.2645 91.9849 58.291 91.9257 58.3432C91.8669 58.396 91.8378 58.4667 91.8378 58.555C91.8378 58.694 91.9668 58.8233 92.2251 58.9436C92.2451 58.9526 92.2607 58.9601 92.272 58.9655C92.4983 59.0707 92.6535 59.1735 92.738 59.2739C92.8223 59.3746 92.8644 59.5 92.8644 59.6504C92.8644 59.8692 92.796 60.0432 92.66 60.172C92.5236 60.3009 92.3389 60.3655 92.1067 60.3655C91.9119 60.3655 91.7516 60.3203 91.6274 60.2296C91.5025 60.1392 91.4209 60.0099 91.3826 59.8417ZM94.1851 59.8417L94.4824 59.7027C94.5105 59.8055 94.5618 59.8845 94.6369 59.9389C94.7123 59.9931 94.8078 60.0201 94.9246 60.0201C95.035 60.0201 95.1224 59.989 95.1876 59.9268C95.2533 59.8648 95.2858 59.7814 95.2858 59.6774C95.2858 59.5415 95.1744 59.4205 94.9513 59.3143C94.9197 59.2985 94.8957 59.2868 94.8793 59.2798C94.6268 59.1553 94.4586 59.043 94.3748 58.9424C94.2913 58.8418 94.2491 58.7188 94.2491 58.5739C94.2491 58.3858 94.3125 58.2327 94.4391 58.1157C94.5654 57.9988 94.7313 57.9407 94.9368 57.9407C95.106 57.9407 95.2469 57.9736 95.3605 58.0392C95.4741 58.1048 95.5533 58.1994 95.5971 58.3228L95.3061 58.474C95.2603 58.4013 95.21 58.3486 95.1552 58.3151C95.1 58.2813 95.0377 58.2645 94.9667 58.2645C94.8668 58.2645 94.7874 58.291 94.7281 58.3432C94.6694 58.396 94.6403 58.4667 94.6403 58.555C94.6403 58.694 94.7693 58.8233 95.0276 58.9436C95.0473 58.9526 95.0632 58.9601 95.0745 58.9655C95.3008 59.0707 95.456 59.1735 95.5405 59.2739C95.6245 59.3746 95.6669 59.5 95.6669 59.6504C95.6669 59.8692 95.5985 60.0432 95.4623 60.172C95.3258 60.3009 95.1412 60.3655 94.9091 60.3655C94.7142 60.3655 94.5541 60.3203 94.4297 60.2296C94.305 60.1392 94.2234 60.0099 94.1851 59.8417Z" fill="white"/>
<path fill-rule="evenodd" clip-rule="evenodd" d="M65.1464 45.2302L57.029 32.4961L48.9114 19.7538L57.029 7.01171L62.9939 16.3721L65.1464 19.7538L67.2992 16.3721L93.9636 0L73.2638 32.4961L65.1464 45.2302Z" fill="#F9EFF7"/>
<path fill-rule="evenodd" clip-rule="evenodd" d="M46.9035 45.2382L18.0867 0L44.7511 16.3721L55.0215 32.4961L46.9035 45.2382Z" fill="#F7F5FA"/>
<path d="M16.355 0L45.1721 45.2382L53.2895 32.4961L43.0197 16.3721L16.355 0Z" fill="#383276"/>
<path d="M65.5669 16.3721L63.4142 19.7538L61.2617 16.3721L55.2968 7.01171L47.1797 19.7538L55.2968 32.4961L63.4142 45.2302L71.5318 32.4961L92.2313 0L65.5669 16.3721Z" fill="#862E77"/>
<path d="M6.0349 51.8857L6.98135 55.5011C7.02499 55.6642 7.06721 55.8345 7.10405 56.0099C7.14259 56.1873 7.18311 56.3893 7.22335 56.6182C7.27464 56.347 7.31827 56.1252 7.35341 55.9498C7.39025 55.7741 7.42539 55.6253 7.45883 55.5011L8.34379 51.8857H10.4175L8.28768 59.4905H6.38401L5.45371 56.2439C5.42027 56.1286 5.36218 55.9054 5.28341 55.5738C5.24997 55.4247 5.22163 55.3094 5.20066 55.2264C5.18479 55.2991 5.16042 55.4001 5.12869 55.5329C5.04963 55.8679 4.99012 56.1057 4.9496 56.2439L4.0329 59.4905H2.12441L0 51.8857H2.07369L2.9374 55.5226C2.97792 55.7086 3.01816 55.8963 3.0584 56.0826C3.09892 56.2688 3.13576 56.4623 3.16919 56.6588C3.19895 56.5135 3.23238 56.3613 3.26922 56.2033C3.30606 56.0436 3.36047 55.8167 3.43273 55.5226L4.37918 51.8857H6.0349ZM14.2033 56.1924C14.1698 55.8946 14.0573 55.6553 13.8661 55.4745C13.6745 55.2954 13.441 55.2049 13.1639 55.2049C12.8652 55.2049 12.628 55.2865 12.4506 55.4513C12.2733 55.6164 12.1574 55.8628 12.0996 56.1924H14.2033ZM16.0081 57.2371H12.0573C12.061 57.6412 12.1644 57.9534 12.3665 58.1731C12.5685 58.3929 12.8544 58.5031 13.2251 58.5031C13.5042 58.5031 13.738 58.4495 13.9273 58.3451C14.1188 58.2404 14.2628 58.0824 14.3628 57.8753L15.7411 58.4355C15.5762 58.8381 15.2849 59.1483 14.8669 59.3664C14.4473 59.5844 13.9344 59.6926 13.3288 59.6926C12.4226 59.6926 11.6958 59.439 11.1497 58.932C10.6037 58.4249 10.3296 57.7562 10.3296 56.9247C10.3296 56.1074 10.6037 55.4284 11.1497 54.8876C11.6958 54.3468 12.3875 54.0772 13.2251 54.0772C14.0871 54.0772 14.7649 54.3505 15.2619 54.8982C15.759 55.4462 16.0081 56.1962 16.0081 57.1482V57.2371ZM17.1089 59.4905V51.439H18.9457V59.4905H17.1089ZM20.5244 59.4905V55.5526H19.7429V54.2441H20.5244V53.1696C20.5244 52.5595 20.6893 52.1003 21.0194 51.7918C21.3479 51.4833 21.8395 51.3291 22.4944 51.3291C22.5876 51.3291 22.6981 51.3377 22.8262 51.3557C22.9545 51.3732 23.0934 51.3983 23.2408 51.4284V52.8414C23.1583 52.8113 23.0826 52.7864 23.0124 52.7704C22.9421 52.7544 22.8772 52.7475 22.8191 52.7475C22.6471 52.7475 22.5227 52.7987 22.4436 52.9035C22.3646 53.0082 22.3258 53.1747 22.3258 53.4071V54.2441H23.2408V55.5526H22.3258V59.4905H20.5244ZM27.7304 56.8823C27.7304 56.4903 27.6321 56.1836 27.4374 55.9587C27.2422 55.7335 26.977 55.6199 26.6451 55.6199C26.3099 55.6199 26.0447 55.7335 25.8514 55.9587C25.6568 56.1836 25.5601 56.4903 25.5601 56.8823C25.5601 57.2743 25.6568 57.5808 25.8483 57.8043C26.0396 58.0278 26.3065 58.1394 26.6451 58.1394C26.9806 58.1394 27.2459 58.0278 27.4406 57.8043C27.6338 57.5808 27.7304 57.2743 27.7304 56.8823ZM29.5514 56.8823C29.5514 57.26 29.4794 57.62 29.3335 57.9585C29.1878 58.2973 28.9753 58.6021 28.6981 58.8716C28.4168 59.1429 28.1028 59.3469 27.7551 59.4851C27.4054 59.6233 27.037 59.6926 26.6451 59.6926C26.2467 59.6926 25.8747 59.6233 25.5267 59.4851C25.1793 59.3469 24.8684 59.1429 24.5927 58.8716C24.319 58.6092 24.1098 58.3079 23.9659 57.9657C23.8219 57.6252 23.75 57.2635 23.75 56.8823C23.75 56.4975 23.8202 56.1358 23.9625 55.7973C24.1047 55.4585 24.3153 55.1537 24.5927 54.8822C24.865 54.6161 25.1739 54.416 25.5216 54.2813C25.8693 54.1445 26.2433 54.0772 26.6451 54.0772C27.0472 54.0772 27.4213 54.1445 27.7673 54.2813C28.1133 54.416 28.4238 54.6161 28.6981 54.8822C28.979 55.1572 29.1912 55.4639 29.3354 55.8024C29.4794 56.1412 29.5514 56.5012 29.5514 56.8823ZM30.6171 59.4905V54.2441H32.3451V55.4799C32.5222 55.0295 32.7662 54.6925 33.0753 54.4673C33.3845 54.2423 33.7585 54.1305 34.1972 54.1305C34.2692 54.1305 34.3414 54.1325 34.4151 54.1376C34.4888 54.1428 34.5642 54.1499 34.6398 54.1608L34.4641 55.8433C34.3536 55.8061 34.2465 55.7778 34.1394 55.7601C34.034 55.744 33.9322 55.7352 33.8322 55.7352C33.3862 55.7352 33.0419 55.8734 32.7996 56.1481C32.5593 56.4231 32.438 56.8131 32.438 57.3184V59.4905H30.6171ZM39.2737 56.8629C39.2737 56.4531 39.1649 56.1306 38.9487 55.8911C38.7328 55.6519 38.4378 55.5329 38.0638 55.5329C37.69 55.5329 37.3967 55.6519 37.1825 55.8877C36.9683 56.1252 36.8611 56.4497 36.8611 56.8629C36.8611 57.2706 36.9683 57.5917 37.1842 57.8272C37.4001 58.0633 37.6934 58.182 38.0638 58.182C38.4378 58.182 38.7328 58.0633 38.9487 57.8272C39.1649 57.5917 39.2737 57.2706 39.2737 56.8629ZM40.8836 54.2441V59.4905H39.2018V58.6393C38.9612 59.003 38.6906 59.2688 38.3905 59.439C38.0904 59.6076 37.739 59.6926 37.3335 59.6926C36.6398 59.6926 36.0867 59.4373 35.6724 58.9266C35.2561 58.4161 35.049 57.7316 35.049 56.8717C35.049 56.017 35.2669 55.338 35.7005 54.8344C36.1343 54.3291 36.7189 54.0772 37.4528 54.0772C37.8444 54.0772 38.1797 54.1608 38.4625 54.3291C38.7453 54.4976 38.9892 54.7566 39.191 55.1057V54.2441H40.8836Z" fill="#342F60"/>
<path d="M45.6895 59.4905V51.8856H50.3041V53.5524H47.6912V54.8733H50.1548V56.5029H47.6912V59.4905H45.6895ZM54.978 56.8823C54.978 56.4903 54.8797 56.1835 54.6847 55.9586C54.4897 55.7334 54.2245 55.6198 53.8927 55.6198C53.5575 55.6198 53.2922 55.7334 53.099 55.9586C52.9043 56.1835 52.8077 56.4903 52.8077 56.8823C52.8077 57.2743 52.9043 57.5808 53.0959 57.8043C53.2871 58.0278 53.5541 58.1393 53.8927 58.1393C54.2282 58.1393 54.4934 58.0278 54.6881 57.8043C54.8814 57.5808 54.978 57.2743 54.978 56.8823ZM56.7989 56.8823C56.7989 57.26 56.7269 57.62 56.581 57.9585C56.4354 58.2973 56.2228 58.602 55.9457 58.8716C55.6643 59.1429 55.3503 59.3469 55.0026 59.4851C54.653 59.6233 54.2846 59.6925 53.8927 59.6925C53.4943 59.6925 53.1222 59.6233 52.7742 59.4851C52.4268 59.3469 52.116 59.1429 51.8403 58.8716C51.5665 58.6092 51.3574 58.3079 51.2134 57.9657C51.0695 57.6251 50.9975 57.2635 50.9975 56.8823C50.9975 56.4974 51.0678 56.1358 51.21 55.7972C51.3523 55.4584 51.5628 55.1537 51.8403 54.8821C52.1126 54.616 52.4214 54.416 52.7691 54.2812C53.1168 54.1445 53.4909 54.0772 53.8927 54.0772C54.2948 54.0772 54.6688 54.1445 55.0148 54.2812C55.3608 54.416 55.6714 54.616 55.9457 54.8821C56.2265 55.1571 56.4388 55.4639 56.583 55.8024C56.7269 56.1412 56.7989 56.5012 56.7989 56.8823ZM57.8647 59.4905V54.2441H59.5926V55.4799C59.7698 55.0295 60.0137 54.6924 60.3229 54.4672C60.632 54.2423 61.0061 54.1304 61.4447 54.1304C61.5167 54.1304 61.5887 54.1324 61.6624 54.1376C61.7363 54.1427 61.8117 54.1499 61.8874 54.1608L61.7117 55.8433C61.6012 55.8061 61.494 55.7778 61.3869 55.76C61.2815 55.744 61.1798 55.7352 61.0798 55.7352C60.6337 55.7352 60.2894 55.8734 60.0472 56.1481C59.8069 56.423 59.6856 56.8131 59.6856 57.3184V59.4905H57.8647ZM69.4377 59.4905V56.6288C69.4377 56.175 69.3816 55.8608 69.2708 55.6871C69.1586 55.5154 68.9653 55.4284 68.6916 55.4284C68.349 55.4284 68.1104 55.5489 67.977 55.7901C67.8415 56.0296 67.7749 56.5223 67.7749 57.2672V59.4905H66.0067V56.6288C66.0067 56.1678 65.9523 55.8522 65.8418 55.6836C65.7313 55.5134 65.5397 55.4284 65.266 55.4284C64.9234 55.4284 64.6828 55.5472 64.5459 55.7847C64.4071 56.0207 64.3385 56.5152 64.3385 57.2672V59.4905H62.5601V54.2441H64.3598V55.1589C64.5757 54.7883 64.825 54.5153 65.1078 54.3396C65.3904 54.1642 65.7242 54.0772 66.1084 54.0772C66.5318 54.0772 66.8778 54.1588 67.1464 54.3236C67.415 54.4887 67.608 54.7368 67.7242 55.0647C67.9259 54.7334 68.1733 54.485 68.4649 54.3219C68.7565 54.1588 69.0988 54.0772 69.4941 54.0772C69.8064 54.0772 70.0801 54.1305 70.3139 54.2369C70.5491 54.3416 70.7457 54.501 70.9039 54.7122C71.0303 54.877 71.1198 55.0719 71.1742 55.2936C71.2269 55.5154 71.2533 55.8751 71.2533 56.3733V56.4886V59.4905H69.4377ZM77.8784 54.2441V56.9247C77.8784 57.517 77.8308 57.9551 77.7362 58.2404C77.6429 58.5259 77.4831 58.7812 77.2601 59.0029C77.03 59.2353 76.7438 59.407 76.4015 59.5223C76.0592 59.6359 75.6551 59.6925 75.1935 59.6925C74.7336 59.6925 74.3332 59.6359 73.9923 59.5223C73.6503 59.407 73.3604 59.2353 73.1198 59.0029C72.8968 58.7883 72.739 58.5348 72.6457 58.2458C72.5528 57.9568 72.5069 57.517 72.5069 56.9247V54.2441H74.2558V57.0437C74.2558 57.4835 74.3278 57.8008 74.4718 57.9977C74.6177 58.1926 74.8509 58.2901 75.1722 58.2901C75.4973 58.2901 75.7325 58.1943 75.8747 58.0029C76.017 57.8097 76.0872 57.4907 76.0872 57.0437V54.2441H77.8784ZM79.2459 59.4905V51.439H81.0825V59.4905H79.2459ZM86.4435 56.8628C86.4435 56.4531 86.3347 56.1306 86.1185 55.8911C85.9026 55.6519 85.6076 55.5328 85.2335 55.5328C84.8595 55.5328 84.5665 55.6519 84.352 55.8877C84.1377 56.1252 84.0306 56.4497 84.0306 56.8628C84.0306 57.2706 84.1377 57.5917 84.3537 57.8272C84.5696 58.0632 84.8629 58.182 85.2335 58.182C85.6076 58.182 85.9026 58.0632 86.1185 57.8272C86.3347 57.5917 86.4435 57.2706 86.4435 56.8628ZM88.0533 54.2441V59.4905H86.3715V58.6392C86.1307 59.0029 85.8603 59.2688 85.5603 59.439C85.2599 59.6076 84.9088 59.6925 84.503 59.6925C83.8096 59.6925 83.2565 59.4373 82.8419 58.9265C82.4259 58.416 82.2188 57.7316 82.2188 56.8717C82.2188 56.017 82.4364 55.338 82.87 54.8344C83.3038 54.329 83.8884 54.0772 84.6226 54.0772C85.0139 54.0772 85.3494 54.1608 85.6322 54.329C85.9147 54.4976 86.1587 54.7565 86.3608 55.1056V54.2441H88.0533ZM89.7181 59.4905V55.5526H88.942V54.2441H89.7181V52.68H91.5229V54.2441H92.301V55.5526H91.5229V59.4905H89.7181ZM93.112 52.6073C93.112 52.3272 93.2104 52.0879 93.409 51.8911C93.6054 51.6942 93.8425 51.5949 94.1217 51.5949C94.4096 51.5949 94.6502 51.6925 94.8434 51.8856C95.0384 52.0791 95.1347 52.32 95.1347 52.6073C95.1347 52.8949 95.0367 53.1392 94.838 53.3395C94.6416 53.5401 94.4025 53.6411 94.1217 53.6411C93.8462 53.6411 93.6091 53.5384 93.4107 53.3344C93.2121 53.1304 93.112 52.8877 93.112 52.6073ZM93.2053 59.4905V54.2441H95.0418V59.4905H93.2053ZM100.129 56.8823C100.129 56.4903 100.03 56.1835 99.8355 55.9586C99.6403 55.7334 99.3753 55.6198 99.0435 55.6198C98.708 55.6198 98.443 55.7334 98.2498 55.9586C98.0548 56.1835 97.9585 56.4903 97.9585 56.8823C97.9585 57.2743 98.0548 57.5808 98.2464 57.8043C98.4379 58.0278 98.7046 58.1393 99.0435 58.1393C99.379 58.1393 99.6439 58.0278 99.8389 57.8043C100.032 57.5808 100.129 57.2743 100.129 56.8823ZM101.949 56.8823C101.949 57.26 101.877 57.62 101.732 57.9585C101.586 58.2973 101.373 58.602 101.096 58.8716C100.815 59.1429 100.501 59.3469 100.153 59.4851C99.8038 59.6233 99.4351 59.6925 99.0435 59.6925C98.6451 59.6925 98.2727 59.6233 97.925 59.4851C97.5773 59.3469 97.2665 59.1429 96.9911 58.8716C96.717 58.6092 96.5079 58.3079 96.364 57.9657C96.22 57.6251 96.148 57.2635 96.148 56.8823C96.148 56.4974 96.2183 56.1358 96.3606 55.7972C96.5028 55.4584 96.7134 55.1537 96.9911 54.8821C97.2631 54.616 97.5722 54.416 97.9197 54.2812C98.2673 54.1445 98.6414 54.0772 99.0435 54.0772C99.4456 54.0772 99.8194 54.1445 100.166 54.2812C100.511 54.416 100.822 54.616 101.096 54.8821C101.377 55.1571 101.589 55.4639 101.734 55.8024C101.877 56.1412 101.949 56.5012 101.949 56.8823ZM103.005 59.4905V54.2441H104.682V55.3094C104.926 54.8822 105.206 54.5702 105.524 54.3734C105.844 54.1765 106.227 54.0772 106.673 54.0772C107.008 54.0772 107.309 54.1325 107.57 54.2423C107.832 54.3505 108.046 54.5082 108.211 54.7122C108.348 54.8876 108.446 55.1022 108.504 55.3557C108.562 55.6092 108.59 55.987 108.59 56.4886V59.4905H106.755V56.6803C106.755 56.2617 106.687 55.9569 106.552 55.7652C106.416 55.5755 106.199 55.4799 105.9 55.4799C105.519 55.4799 105.242 55.6216 105.068 55.9071C104.892 56.1907 104.804 56.652 104.804 57.2883V59.4905H103.005ZM109.396 59.0544L109.777 57.6412C110.046 57.877 110.339 58.0578 110.66 58.1837C110.982 58.3096 111.305 58.3734 111.63 58.3734C111.859 58.3734 112.033 58.3362 112.154 58.2618C112.274 58.1874 112.333 58.079 112.333 57.937C112.333 57.705 112.091 57.533 111.608 57.418C111.451 57.3805 111.324 57.347 111.227 57.3184C110.68 57.1659 110.281 56.9656 110.032 56.7192C109.784 56.4728 109.659 56.1518 109.659 55.7563C109.659 55.2476 109.849 54.8395 110.228 54.5348C110.606 54.2297 111.12 54.0772 111.768 54.0772C112.1 54.0772 112.439 54.1161 112.785 54.1943C113.129 54.2724 113.482 54.3928 113.842 54.5559L113.461 55.829C113.217 55.6625 112.971 55.5366 112.72 55.4499C112.469 55.3629 112.219 55.3185 111.968 55.3185C111.759 55.3185 111.603 55.352 111.496 55.4175C111.389 55.4833 111.336 55.5792 111.336 55.7034C111.336 55.8894 111.577 56.047 112.056 56.1767C112.167 56.2067 112.249 56.2296 112.304 56.2439C112.938 56.4268 113.38 56.6431 113.628 56.8912C113.875 57.1376 114 57.4726 114 57.8964C114 58.4338 113.796 58.8664 113.389 59.1961C112.98 59.5277 112.441 59.6925 111.768 59.6925C111.312 59.6925 110.889 59.6396 110.497 59.5349C110.105 59.4301 109.738 59.2688 109.396 59.0544Z" fill="#882D65"/>
<path d="M46.7994 65.1198H47.1675C47.3704 65.1198 47.5217 65.1063 47.6229 65.0791C47.724 65.0519 47.8127 65.0053 47.8876 64.9415C47.9893 64.8531 48.0658 64.7441 48.1168 64.6133C48.1675 64.4825 48.1927 64.3303 48.1927 64.1575C48.1927 63.9835 48.1675 63.8313 48.1168 63.7005C48.0658 63.5697 47.9893 63.4607 47.8876 63.3726C47.8113 63.3085 47.7204 63.2621 47.6141 63.2349C47.5078 63.2075 47.3415 63.1943 47.1159 63.1943H46.9575H46.7994V65.1198ZM46.3613 65.5192V62.7983H46.9527C47.3364 62.7983 47.6067 62.8183 47.7629 62.8569C47.9196 62.8961 48.057 62.9614 48.1743 63.0529C48.3302 63.1728 48.4486 63.3276 48.5288 63.5159C48.6093 63.7045 48.6495 63.9188 48.6495 64.1606C48.6495 64.4021 48.6093 64.6164 48.5288 64.803C48.4486 64.9899 48.3302 65.1435 48.1743 65.2651C48.057 65.3564 47.9227 65.4216 47.7725 65.4611C47.6223 65.4998 47.388 65.5192 47.07 65.5192H46.9527H46.3613ZM50.3826 65.5192V62.7983H51.8867V63.174H50.8204V63.8559H51.8867V64.2442H50.8204V65.1235H51.8867V65.5192H50.3826ZM54.0576 65.1198H54.4257C54.6286 65.1198 54.7802 65.1063 54.8811 65.0791C54.9825 65.0519 55.0709 65.0053 55.1458 64.9415C55.2475 64.8531 55.3243 64.7441 55.375 64.6133C55.426 64.4825 55.4512 64.3303 55.4512 64.1575C55.4512 63.9835 55.426 63.8313 55.375 63.7005C55.3243 63.5697 55.2475 63.4607 55.1458 63.3726C55.0698 63.3085 54.9786 63.2621 54.8723 63.2349C54.7663 63.2075 54.5997 63.1943 54.3744 63.1943H54.216H54.0576V65.1198ZM53.6198 65.5192V62.7983H54.2109C54.5946 62.7983 54.8649 62.8183 55.0214 62.8569C55.1778 62.8961 55.3155 62.9614 55.4328 63.0529C55.5887 63.1728 55.7068 63.3276 55.787 63.5159C55.8675 63.7045 55.9077 63.9188 55.9077 64.1606C55.9077 64.4021 55.8675 64.6164 55.787 64.803C55.7068 64.9899 55.5887 65.1435 55.4328 65.2651C55.3155 65.3564 55.1809 65.4216 55.0307 65.4611C54.8808 65.4998 54.6465 65.5192 54.3282 65.5192H54.2109H53.6198ZM57.6485 65.5192V62.7983H58.0863V65.5192H57.6485ZM62.1095 63.4601C61.9857 63.3534 61.8545 63.2736 61.7159 63.2203C61.5779 63.1668 61.4328 63.1402 61.2807 63.1402C60.986 63.1402 60.7468 63.2355 60.5623 63.4264C60.3776 63.6175 60.2852 63.8642 60.2852 64.168C60.2852 64.4619 60.3748 64.704 60.5547 64.8951C60.7349 65.0863 60.9616 65.181 61.2351 65.181C61.3946 65.181 61.5468 65.1527 61.6904 65.0954C61.8344 65.0385 61.9732 64.9524 62.1059 64.8373V65.3372C61.9874 65.4228 61.8593 65.4863 61.7208 65.5289C61.5819 65.5707 61.4314 65.5916 61.2702 65.5916C61.0633 65.5916 60.8732 65.5576 60.6984 65.4895C60.5232 65.4216 60.3696 65.3212 60.2376 65.1887C60.1061 65.0588 60.0055 64.9052 59.9344 64.7283C59.8641 64.5518 59.829 64.3641 59.829 64.1643C59.829 63.9652 59.8641 63.778 59.9344 63.602C60.0055 63.4263 60.1073 63.273 60.241 63.1402C60.3748 63.0063 60.5283 62.9056 60.7012 62.8366C60.8738 62.7674 61.0611 62.733 61.2625 62.733C61.4209 62.733 61.5717 62.7565 61.7157 62.8028C61.8588 62.8492 61.9982 62.9196 62.1333 63.0143L62.1095 63.4601ZM64.4513 64.4505H65.2025L64.9262 63.8298C64.9106 63.79 64.8936 63.7451 64.8766 63.6936C64.8596 63.6421 64.8423 63.5846 64.8253 63.5216C64.8106 63.5806 64.795 63.6364 64.778 63.6879C64.7619 63.7391 64.7449 63.786 64.7279 63.8298L64.4513 64.4505ZM65.6627 65.5192L65.3572 64.819H64.2898L63.9769 65.5192H63.5165L64.8214 62.6907L66.1251 65.5192H65.6627ZM68.2739 63.174V65.5192H67.8361V63.174H67.1198V62.7983H68.9866V63.174H68.2739ZM70.5517 65.5192V62.7983H72.0558V63.174H70.9895V63.8559H72.0558V64.2442H70.9895V65.1235H72.0558V65.5192H70.5517ZM74.2267 65.1198H74.5948C74.7976 65.1198 74.9492 65.1063 75.0501 65.0791C75.1516 65.0519 75.24 65.0053 75.3148 64.9415C75.4168 64.8531 75.4933 64.7441 75.544 64.6133C75.595 64.4825 75.6203 64.3303 75.6203 64.1575C75.6203 63.9835 75.595 63.8313 75.544 63.7005C75.4933 63.5697 75.4168 63.4607 75.3148 63.3726C75.2388 63.3085 75.1476 63.2621 75.0416 63.2349C74.9354 63.2075 74.7687 63.1943 74.5435 63.1943H74.3851H74.2267V65.1198ZM73.7889 65.5192V62.7983H74.3802C74.7639 62.7983 75.034 62.8183 75.1904 62.8569C75.3468 62.8961 75.4845 62.9614 75.6018 63.0529C75.7577 63.1728 75.8759 63.3276 75.9561 63.5159C76.0365 63.7045 76.0768 63.9188 76.0768 64.1606C76.0768 64.4021 76.0365 64.6164 75.9561 64.803C75.8759 64.9899 75.7577 65.1435 75.6018 65.2651C75.4845 65.3564 75.3499 65.4216 75.1997 65.4611C75.0498 65.4998 74.8155 65.5192 74.4976 65.5192H74.3802H73.7889ZM79.8178 63.174V65.5192H79.38V63.174H78.6636V62.7983H80.5305V63.174H79.8178ZM84.2675 64.1643C84.2675 64.0267 84.2426 63.8959 84.193 63.7723C84.1431 63.6487 84.0723 63.5382 83.9785 63.4418C83.8875 63.3459 83.7827 63.2724 83.6634 63.2212C83.5432 63.1697 83.4177 63.1442 83.2851 63.1442C83.1525 63.1442 83.0261 63.1697 82.9068 63.2203C82.7867 63.271 82.6807 63.3445 82.5872 63.4418C82.4942 63.5368 82.4231 63.6467 82.3735 63.7703C82.3245 63.8939 82.3001 64.0253 82.3001 64.1643C82.3001 64.302 82.3245 64.4319 82.3735 64.5543C82.4231 64.6774 82.4942 64.7873 82.5872 64.8837C82.6807 64.9807 82.7867 65.0542 82.9054 65.1049C83.0241 65.1558 83.1513 65.181 83.2851 65.181C83.4163 65.181 83.5407 65.1558 83.6594 65.1049C83.7782 65.0542 83.8844 64.9807 83.9785 64.8837C84.0723 64.7873 84.1431 64.6774 84.193 64.5538C84.2426 64.4307 84.2675 64.3005 84.2675 64.1643ZM84.7243 64.1643C84.7243 64.3578 84.6886 64.5403 84.6164 64.7129C84.5447 64.8848 84.4404 65.0385 84.3027 65.1736C84.1638 65.3086 84.0074 65.4122 83.8334 65.4837C83.6594 65.5556 83.4767 65.5916 83.2851 65.5916C83.091 65.5916 82.9062 65.5556 82.7297 65.4832C82.5537 65.4102 82.3984 65.3075 82.2635 65.1736C82.1258 65.0385 82.0215 64.8854 81.9507 64.7143C81.8796 64.5435 81.8439 64.3603 81.8439 64.1643C81.8439 63.9695 81.8796 63.786 81.9507 63.6144C82.0215 63.4424 82.1258 63.2881 82.2635 63.1517C82.4013 63.0166 82.5568 62.9133 82.7311 62.8429C82.9051 62.7725 83.0896 62.737 83.2851 62.737C83.4792 62.737 83.6625 62.7725 83.836 62.8429C84.0099 62.9133 84.1652 63.0166 84.3027 63.1517C84.4404 63.2896 84.5447 63.4444 84.6164 63.6166C84.6886 63.79 84.7243 63.972 84.7243 64.1643ZM87.2741 62.7983H87.7068L88.2166 64.1718C88.2497 64.2628 88.278 64.342 88.3004 64.4098C88.3231 64.4776 88.3432 64.5417 88.3602 64.6013C88.4027 64.4573 88.4478 64.3171 88.4948 64.1795C88.5002 64.1623 88.5047 64.1503 88.5073 64.144L89.0488 62.6907L89.6192 64.1718C89.6461 64.2436 89.6714 64.316 89.6955 64.3878C89.7198 64.4591 89.7416 64.5323 89.7623 64.6053C89.7751 64.5495 89.7912 64.4877 89.8122 64.4213C89.8326 64.354 89.8598 64.2745 89.893 64.1832L90.3993 62.7983H90.8354L89.7921 65.6254L89.1777 64.0733C89.1505 64.0044 89.1262 63.938 89.1041 63.8739C89.0822 63.8095 89.0621 63.7494 89.0451 63.6925C89.0242 63.7654 89.0029 63.8338 88.9819 63.8976C88.9615 63.9617 88.9403 64.0227 88.9182 64.0805L88.3143 65.6254L87.2741 62.7983ZM92.3645 65.5192V62.7983H93.8683V63.174H92.8023V63.8559H93.8683V64.2442H92.8023V65.1235H93.8683V65.5192H92.3645ZM95.6014 65.5192V62.7983H96.0395V65.1235H97.0188V65.5192H95.6014ZM98.6051 65.5192V62.7983H99.0429V65.1235H100.022V65.5192H98.6051ZM101.609 65.5192V62.6907L103.321 64.354C103.367 64.401 103.414 64.451 103.462 64.5045C103.51 64.5575 103.56 64.6179 103.613 64.6851V62.7983H104.018V65.6254L102.271 63.932C102.225 63.8865 102.18 63.8381 102.136 63.7875C102.093 63.736 102.051 63.6827 102.012 63.6275V65.5192H101.609ZM105.867 65.5192V62.7983H107.371V63.174H106.305V63.8559H107.371V64.2442H106.305V65.1235H107.371V65.5192H105.867ZM108.95 64.975L109.3 64.8113C109.333 64.9323 109.394 65.0253 109.482 65.0894C109.571 65.1532 109.683 65.185 109.821 65.185C109.951 65.185 110.054 65.1484 110.13 65.0751C110.208 65.0022 110.246 64.904 110.246 64.7815C110.246 64.6216 110.115 64.4791 109.852 64.354C109.815 64.3354 109.787 64.3217 109.767 64.3134C109.47 64.1669 109.272 64.0347 109.173 63.9162C109.075 63.7978 109.025 63.653 109.025 63.4824C109.025 63.261 109.1 63.0807 109.249 62.9431C109.398 62.8054 109.593 62.737 109.835 62.737C110.034 62.737 110.2 62.7757 110.334 62.8529C110.467 62.9302 110.561 63.0415 110.612 63.1868L110.27 63.3648C110.216 63.2793 110.157 63.2172 110.092 63.1777C110.027 63.1379 109.954 63.1182 109.87 63.1182C109.753 63.1182 109.659 63.1494 109.589 63.2109C109.52 63.273 109.486 63.3562 109.486 63.4601C109.486 63.6238 109.638 63.776 109.942 63.9177C109.965 63.9282 109.984 63.9371 109.997 63.9434C110.263 64.0673 110.446 64.1884 110.546 64.3065C110.645 64.425 110.694 64.5727 110.694 64.7498C110.694 65.0073 110.614 65.2122 110.454 65.3638C110.293 65.5155 110.076 65.5916 109.802 65.5916C109.573 65.5916 109.384 65.5384 109.238 65.4317C109.091 65.3252 108.995 65.173 108.95 64.975ZM112.249 64.975L112.599 64.8113C112.632 64.9323 112.693 65.0253 112.781 65.0894C112.87 65.1532 112.982 65.185 113.12 65.185C113.25 65.185 113.353 65.1484 113.43 65.0751C113.507 65.0022 113.545 64.904 113.545 64.7815C113.545 64.6216 113.414 64.4791 113.151 64.354C113.114 64.3354 113.086 64.3217 113.067 64.3134C112.769 64.1669 112.571 64.0347 112.473 63.9162C112.374 63.7978 112.325 63.653 112.325 63.4824C112.325 63.261 112.399 63.0807 112.548 62.9431C112.697 62.8054 112.892 62.737 113.134 62.737C113.333 62.737 113.499 62.7757 113.633 62.8529C113.767 62.9302 113.86 63.0415 113.912 63.1868L113.569 63.3648C113.515 63.2793 113.456 63.2172 113.391 63.1777C113.326 63.1379 113.253 63.1182 113.169 63.1182C113.052 63.1182 112.958 63.1494 112.889 63.2109C112.819 63.273 112.785 63.3562 112.785 63.4601C112.785 63.6238 112.937 63.776 113.241 63.9177C113.264 63.9282 113.283 63.9371 113.296 63.9434C113.563 64.0673 113.746 64.1884 113.845 64.3065C113.944 64.425 113.994 64.5727 113.994 64.7498C113.994 65.0073 113.913 65.2122 113.753 65.3638C113.592 65.5155 113.375 65.5916 113.102 65.5916C112.872 65.5916 112.684 65.5384 112.537 65.4317C112.39 65.3252 112.294 65.173 112.249 64.975Z" fill="#1C1C1C"/>
</svg>
