<svg width="60" height="60" viewBox="0 0 60 60" fill="none" xmlns="http://www.w3.org/2000/svg">
<path d="M23.1813 43.9654C23.1813 44.4507 22.7878 44.8443 22.3024 44.8443H11.4701C10.9847 44.8443 10.5912 44.4507 10.5912 43.9654C10.5912 43.48 10.9847 43.0864 11.4701 43.0864H22.3025C22.7879 43.0864 23.1813 43.48 23.1813 43.9654ZM11.4701 30.2161H15.0125C15.4979 30.2161 15.8914 29.8226 15.8914 29.3372C15.8914 28.8518 15.4979 28.4583 15.0125 28.4583H11.4701C10.9847 28.4583 10.5912 28.8518 10.5912 29.3372C10.5912 29.8226 10.9847 30.2161 11.4701 30.2161ZM11.4701 39.9682H25.6052C26.0906 39.9682 26.4841 39.5747 26.4841 39.0893C26.4841 38.6039 26.0906 38.2104 25.6052 38.2104H11.4701C10.9847 38.2104 10.5912 38.6039 10.5912 39.0893C10.5912 39.5747 10.9847 39.9682 11.4701 39.9682ZM11.4701 35.0921H15.0125C15.4979 35.0921 15.8914 34.6986 15.8914 34.2132C15.8914 33.7279 15.4979 33.3343 15.0125 33.3343H11.4701C10.9847 33.3343 10.5912 33.7279 10.5912 34.2132C10.5912 34.6986 10.9847 35.0921 11.4701 35.0921ZM11.4701 15.5879H14.7585C15.2438 15.5879 15.6374 15.1944 15.6374 14.709C15.6374 14.2236 15.2438 13.8301 14.7585 13.8301H11.4701C10.9847 13.8301 10.5912 14.2236 10.5912 14.709C10.5912 15.1944 10.9847 15.5879 11.4701 15.5879ZM11.4701 25.3399H14.7585C15.2438 25.3399 15.6374 24.9464 15.6374 24.461C15.6374 23.9756 15.2438 23.5821 14.7585 23.5821H11.4701C10.9847 23.5821 10.5912 23.9756 10.5912 24.461C10.5912 24.9464 10.9847 25.3399 11.4701 25.3399ZM11.4701 20.4639H14.7585C15.2438 20.4639 15.6374 20.0704 15.6374 19.585C15.6374 19.0996 15.2438 18.7061 14.7585 18.7061H11.4701C10.9847 18.7061 10.5912 19.0996 10.5912 19.585C10.5912 20.0704 10.9847 20.4639 11.4701 20.4639ZM16.9031 14.6673C17.1041 13.5278 17.8328 12.621 18.9023 12.1795L19.3779 11.9832C20.0399 11.71 20.4212 11.0495 20.3269 10.3398L20.259 9.82969C20.1065 8.68254 20.5275 7.5982 21.4139 6.85441C22.3003 6.11074 23.4413 5.88457 24.5444 6.23379L25.035 6.38906C25.7178 6.60516 26.4343 6.34441 26.8183 5.73996L27.0942 5.30578C27.7147 4.32914 28.7342 3.76898 29.8913 3.76898C31.0485 3.76898 32.068 4.32914 32.6885 5.30578L32.9644 5.73996C33.3484 6.34441 34.0651 6.60527 34.7476 6.38918L35.2383 6.23379C36.3411 5.88457 37.4823 6.11063 38.3688 6.85441C39.2552 7.59832 39.6763 8.68277 39.5237 9.82969L39.4558 10.3398C39.3615 11.0496 39.7428 11.71 40.4047 11.9832L40.8803 12.1795C41.9498 12.6211 42.6786 13.5278 42.8796 14.6673C43.0804 15.807 42.7058 16.9083 41.8517 17.6889L41.4722 18.0359C40.9436 18.519 40.8112 19.2701 41.1426 19.9048L41.3808 20.361C41.9163 21.3866 41.8916 22.5497 41.313 23.5518C40.7497 24.5275 39.7911 25.1231 38.674 25.1992L41.2912 31.365C41.4262 31.683 41.3624 32.0507 41.1281 32.3045C40.8938 32.5584 40.5324 32.6515 40.2048 32.5424L36.6818 31.3704L35.0775 34.7188C34.9311 35.0243 34.6226 35.2179 34.2849 35.2179C34.2783 35.2179 34.2716 35.2179 34.2649 35.2177C33.9196 35.2098 33.6108 35.0004 33.4758 34.6825L30.8879 28.5861L30.8401 28.5493C30.2727 28.1128 29.5099 28.1128 28.9425 28.5493L28.8946 28.5863L26.3069 34.6825C26.1719 35.0005 25.8631 35.2099 25.5179 35.2178C25.5112 35.2179 25.5044 35.218 25.4979 35.218C25.1603 35.218 24.8517 35.0244 24.7053 34.7189L23.101 31.3705L19.5779 32.5425C19.2503 32.6516 18.8888 32.5584 18.6546 32.3046C18.4202 32.0507 18.3565 31.6832 18.4915 31.3651L21.1087 25.1993C19.9916 25.1232 19.0332 24.5276 18.4698 23.5519C17.8912 22.5497 17.8666 21.3867 18.4022 20.361L18.6403 19.9049C18.9717 19.2701 18.8393 18.519 18.3108 18.036L17.931 17.6889C17.0769 16.908 16.7022 15.8068 16.9031 14.6673ZM26.5735 29.5556C26.5597 29.5559 26.5461 29.5574 26.5323 29.5574C26.1492 29.5574 25.7611 29.4892 25.3807 29.3507C24.2933 28.9549 23.5269 28.0798 23.2779 26.9497L23.1671 26.4473C23.1056 26.168 22.9745 25.9229 22.7947 25.7263L20.8703 30.2599L23.2816 29.4578C23.7016 29.318 24.1603 29.5126 24.3517 29.912L25.4497 32.2037L26.5735 29.5556ZM38.9124 30.2599L36.988 25.7263C36.8082 25.9229 36.6773 26.168 36.6157 26.4472L36.5049 26.9497C36.2558 28.0798 35.4893 28.9548 34.402 29.3505C34.0079 29.4939 33.6057 29.5609 33.2093 29.5559L34.3332 32.2036L35.4313 29.9119C35.6226 29.5125 36.0812 29.3179 36.5013 29.4577L38.9124 30.2599ZM19.1169 16.3914L19.4967 16.7385C20.6222 17.7674 20.9042 19.3668 20.1984 20.7185L19.9603 21.1745C19.7014 21.6703 19.7123 22.1885 19.9921 22.6729C20.2718 23.1573 20.715 23.4259 21.2738 23.4496L21.7878 23.4714C23.3113 23.5359 24.5553 24.5798 24.8837 26.0689L24.9944 26.5714C25.1148 27.1178 25.4563 27.5077 25.9819 27.6989C26.5074 27.8903 27.0197 27.8112 27.4629 27.4699L27.8707 27.1562C29.0791 26.2264 30.7032 26.2264 31.912 27.1562L32.3198 27.47C32.763 27.8111 33.2751 27.8903 33.801 27.699C34.3264 27.5078 34.6679 27.1179 34.7884 26.5716L34.8991 26.0691C35.2274 24.5798 36.4714 23.5359 37.995 23.4714L38.5087 23.4496C39.0676 23.4259 39.5108 23.1573 39.7905 22.673C40.0701 22.1886 40.0812 21.6704 39.8223 21.1746L39.5842 20.7184C38.8785 19.3668 39.1605 17.7674 40.286 16.7386L40.6657 16.3915C41.0787 16.014 41.2455 15.5235 41.1484 14.9727C41.0512 14.4219 40.7266 14.018 40.2096 13.8045L39.734 13.6082C38.3246 13.0263 37.5125 11.6198 37.7134 10.1084L37.7812 9.59812C37.8549 9.04371 37.6674 8.56055 37.2389 8.20113C36.8104 7.8416 36.3019 7.7407 35.7689 7.90969L35.2782 8.06508C33.8247 8.52527 32.2984 7.96992 31.4806 6.68273L31.2048 6.24867C30.9048 5.77652 30.4506 5.52691 29.8912 5.52691C29.332 5.52691 28.8778 5.77641 28.5778 6.24867L28.3019 6.68285C27.4842 7.96992 25.9581 8.52551 24.5044 8.06496L24.0139 7.90969C23.8459 7.85648 23.6803 7.83 23.5189 7.83C23.1682 7.83 22.8374 7.9548 22.5438 8.20113C22.1154 8.56055 21.9279 9.04371 22.0016 9.59824L22.0694 10.1082C22.2704 11.6197 21.4584 13.0262 20.0488 13.608L19.5732 13.8045C19.0561 14.0179 18.7315 14.4219 18.6343 14.9727C18.5372 15.5234 18.704 16.0139 19.1169 16.3914ZM21.8358 16.6634C21.8358 12.2215 25.4495 8.60777 29.8913 8.60777C34.3332 8.60777 37.9469 12.2215 37.9469 16.6634C37.9469 21.1052 34.3332 24.7189 29.8913 24.7189C25.4495 24.7189 21.8358 21.1052 21.8358 16.6634ZM23.5936 16.6634C23.5936 20.136 26.4187 22.9611 29.8913 22.9611C33.364 22.9611 36.1891 20.136 36.1891 16.6634C36.1891 13.1907 33.364 10.3656 29.8913 10.3656C26.4187 10.3656 23.5936 13.1909 23.5936 16.6634ZM27.0165 17.6259L25.177 16.0089C24.9135 15.7772 24.813 15.4109 24.9214 15.0772C25.0298 14.7435 25.3264 14.5062 25.6759 14.4737L28.1148 14.2466L29.0843 11.9974C29.2231 11.6752 29.5405 11.4664 29.8913 11.4664C30.2422 11.4664 30.5595 11.6752 30.6984 11.9974L31.6681 14.2468L34.1068 14.4739C34.4562 14.5065 34.7528 14.7437 34.8613 15.0775C34.9697 15.4112 34.8692 15.7775 34.6057 16.0092L32.7661 17.6264L33.3037 20.016C33.3808 20.3583 33.2468 20.7137 32.9629 20.92C32.8094 21.0315 32.6281 21.0879 32.4463 21.0879C32.2916 21.0879 32.1365 21.0471 31.9979 20.9648L29.8912 19.715L27.7848 20.9647C27.483 21.1438 27.1036 21.1261 26.8197 20.92C26.5358 20.7137 26.4019 20.3584 26.4788 20.016L27.0165 17.6259ZM27.8688 16.0348L28.5687 16.65C28.8102 16.8622 28.9165 17.1894 28.8459 17.503L28.6413 18.4123L29.4428 17.9368C29.5809 17.8548 29.7361 17.8138 29.8912 17.8138C30.0464 17.8138 30.2014 17.8548 30.3397 17.9368L31.1413 18.4124L30.9367 17.5032C30.866 17.1896 30.9724 16.8625 31.2138 16.6502L31.9138 16.035L30.986 15.9486C30.666 15.9189 30.3876 15.7167 30.2604 15.4214L29.8915 14.5655L29.5226 15.4212C29.3954 15.7164 29.1171 15.9186 28.7969 15.9484L27.8688 16.0348ZM52.9323 50.0544C53.1124 50.7262 53.0188 51.4302 52.6687 52.0364C52.3187 52.6426 51.7558 53.0756 51.084 53.2556C50.8602 53.3156 50.6328 53.3453 50.4069 53.3453C49.9538 53.3453 49.506 53.226 49.1018 52.9927C48.5761 52.6891 48.1813 52.2248 47.9681 51.668C46.8521 51.5113 45.8047 51.2887 44.7876 51.0718C42.162 50.512 39.8941 50.0285 37.1531 50.7609L40.3542 56.3054C40.8418 57.1499 40.5514 58.2336 39.707 58.7213L38.1051 59.6461C37.8274 59.8064 37.5238 59.8827 37.2239 59.8827C36.6122 59.8827 36.0165 59.5656 35.6892 58.9989L31.7584 52.1904C31.6135 52.2139 31.4681 52.2271 31.3231 52.2271C30.851 52.2271 30.3845 52.103 29.9638 51.86C29.369 51.5167 28.9373 50.9741 28.7319 50.3257C28.4777 50.3747 28.2217 50.3998 27.9665 50.3998C27.2605 50.3998 26.5619 50.2137 25.9309 49.8493C25.8699 49.8142 25.8103 49.7775 25.7517 49.7397H6.896C6.41061 49.7397 6.01709 49.3461 6.01709 48.8607V10.1329C6.01709 9.89977 6.10967 9.67617 6.27455 9.51141L15.4112 0.374648C15.576 0.209766 15.7996 0.117188 16.0326 0.117188H44.7269C45.2123 0.117188 45.6058 0.510703 45.6058 0.996094V28.7107C46.5938 28.8681 47.4483 29.5879 47.7235 30.6151L49.1107 35.7921C49.1121 35.7921 49.1136 35.792 49.115 35.792C51.7992 35.792 53.9829 37.9757 53.9829 40.6598C53.9829 42.4102 53.0293 44.018 51.545 44.8771L52.9323 50.0544ZM49.5915 37.5864L51.0637 43.0808C51.7816 42.4996 52.2251 41.6132 52.2251 40.6598C52.2251 39.107 51.0811 37.8163 49.5915 37.5864ZM9.01779 9.25395H15.1537V3.11801L9.01779 9.25395ZM7.7749 47.9818H24.244C24.1583 47.7889 24.0866 47.5886 24.031 47.3811C23.4758 45.3087 24.6312 43.1748 26.627 42.4819C26.4803 41.8172 26.586 41.1307 26.9294 40.5356C27.2937 39.9047 27.8806 39.4536 28.5822 39.2657L33.697 37.8952C36.4417 37.1598 38.1654 35.6058 40.1613 33.8064C40.9337 33.1102 41.7293 32.3938 42.6173 31.7002C42.4488 30.6397 42.9532 29.5956 43.8481 29.0546V1.875H16.9115V10.1329C16.9115 10.6182 16.518 11.0118 16.0326 11.0118H7.7749V47.9818ZM28.2684 48.6191L27.0815 44.1899C26.0237 44.6263 25.425 45.7917 25.729 46.9261C25.8878 47.5187 26.2717 48.0162 26.8099 48.327C27.2594 48.5866 27.7678 48.6854 28.2684 48.6191ZM31.5751 50.4356L35.841 49.2926L33.3029 39.8205L29.0371 40.9636C28.7891 41.03 28.5812 41.1902 28.4516 41.4145C28.3221 41.6388 28.2874 41.899 28.3538 42.147L30.3917 49.7524C30.4582 50.0005 30.6183 50.2084 30.8427 50.3379C31.0671 50.4674 31.3271 50.5022 31.5751 50.4356ZM38.8319 57.1846L35.3952 51.232L33.5242 51.7334L37.2115 58.1201C37.2138 58.1241 37.2221 58.1266 37.2262 58.1239L38.8279 57.1991C38.8319 57.1969 38.8342 57.1884 38.8319 57.1846ZM45.1542 49.3528C45.9021 49.5123 46.6671 49.6747 47.4546 49.809L43.1025 33.5666C42.4876 34.0767 41.9063 34.5998 41.3383 35.112C39.455 36.8099 37.6664 38.422 34.9932 39.3369L37.5466 48.8665C40.319 48.3221 42.6742 48.8239 45.1542 49.3528ZM51.2345 50.5096L46.0257 31.0702C45.9035 30.6143 45.4329 30.3427 44.9774 30.4649C44.5292 30.5849 44.2521 31.065 44.3721 31.5132L44.4602 31.8422C44.4602 31.8424 44.4603 31.8427 44.4604 31.8429L49.4925 50.6228V50.623L49.5807 50.9524C49.6393 51.1714 49.7813 51.3553 49.9806 51.4703C50.1797 51.5852 50.4101 51.6162 50.629 51.5576C50.8474 51.4991 51.031 51.357 51.1463 51.1573C51.2617 50.9579 51.2929 50.7278 51.2345 50.5096Z" fill="white"/>
</svg>
