<svg width="60" height="60" viewBox="0 0 60 60" fill="none" xmlns="http://www.w3.org/2000/svg">
<path fill-rule="evenodd" clip-rule="evenodd" d="M38.3658 33.6954H32.2603C32.0438 33.6966 31.8364 33.7831 31.6833 33.9362C31.5302 34.0894 31.4436 34.2967 31.4425 34.5132V50.5328C31.4436 50.7493 31.5301 50.9567 31.6833 51.1098C31.8364 51.263 32.0438 51.3495 32.2603 51.3506H42.9478C43.0972 51.3504 43.2432 51.3951 43.3669 51.4788L46.447 53.2572L49.8729 55.2368V52.0989C49.8729 51.9003 49.9518 51.71 50.0922 51.5696C50.2326 51.4292 50.423 51.3503 50.6215 51.3503H54.3363C54.5529 51.3491 54.7603 51.2626 54.9134 51.1095C55.0666 50.9564 55.1531 50.749 55.1543 50.5324V34.5129C55.1532 34.2963 55.0666 34.0889 54.9135 33.9358C54.7603 33.7827 54.5529 33.6962 54.3363 33.695L38.3658 33.6954ZM49.2374 15.3281C50.0225 15.3281 50.79 15.5609 51.4428 15.9971C52.0956 16.4332 52.6044 17.0532 52.9048 17.7785C53.2053 18.5038 53.2839 19.302 53.1307 20.072C52.9776 20.842 52.5995 21.5493 52.0444 22.1045C51.4892 22.6596 50.7819 23.0377 50.0119 23.1908C49.2419 23.344 48.4437 23.2654 47.7184 22.9649C46.9931 22.6645 46.3731 22.1557 45.9369 21.5029C45.5008 20.8501 45.268 20.0826 45.268 19.2975C45.2681 18.2448 45.6863 17.2352 46.4307 16.4908C47.1751 15.7464 48.1847 15.3282 49.2374 15.3281ZM50.9857 17.5493C49.4325 15.9961 46.7652 17.1014 46.7652 19.2975C46.7652 21.4936 49.4325 22.5989 50.9857 21.0458C51.4493 20.5821 51.7098 19.9533 51.7098 19.2976C51.7098 18.6419 51.4493 18.013 50.9857 17.5493ZM47.779 10.4102C47.6116 10.4102 47.4458 10.4432 47.2912 10.5074C47.1365 10.5715 46.9961 10.6656 46.8779 10.7842C46.44 11.2222 46.504 11.678 46.504 12.2422L46.1814 12.3759L45.7875 11.9821C45.5482 11.7433 45.224 11.6093 44.886 11.6093C44.548 11.6093 44.2238 11.7433 43.9846 11.9821L41.9221 14.0446C41.8036 14.1629 41.7097 14.3034 41.6457 14.4581C41.5817 14.6128 41.5489 14.7786 41.5492 14.946C41.5492 15.5652 41.917 15.8425 42.3159 16.2414L42.1822 16.564H41.625C41.287 16.5646 40.9631 16.6991 40.7241 16.9381C40.4851 17.1771 40.3506 17.501 40.35 17.839V20.7559C40.35 20.9233 40.383 21.0891 40.4471 21.2437C40.5113 21.3983 40.6054 21.5388 40.7239 21.657C41.162 22.0949 41.6177 22.0309 42.182 22.0309L42.3157 22.3535L41.9218 22.7474C41.6831 22.9867 41.549 23.3109 41.549 23.6489C41.549 23.9869 41.6831 24.311 41.9218 24.5503L43.9843 26.6128C44.1027 26.7313 44.2432 26.8252 44.3979 26.8892C44.5526 26.9532 44.7184 26.986 44.8859 26.9857C45.5048 26.9857 45.7822 26.618 46.1811 26.2191L46.5037 26.3528C46.5037 26.917 46.4398 27.3723 46.8777 27.8107L46.8792 27.8093C46.9972 27.9278 47.1373 28.0219 47.2917 28.0863C47.446 28.1506 47.6115 28.1839 47.7788 28.1843H50.6957C50.8631 28.1844 51.0289 28.1513 51.1835 28.0872C51.3381 28.023 51.4785 27.9289 51.5967 27.8104C52.0346 27.3724 51.9707 26.9167 51.9707 26.3524L52.2933 26.2187L52.6871 26.6125C52.9264 26.8513 53.2506 26.9854 53.5886 26.9854C53.9266 26.9854 54.2508 26.8513 54.4901 26.6125L56.5526 24.55C56.671 24.4316 56.7649 24.2911 56.8289 24.1364C56.8929 23.9817 56.9257 23.8159 56.9255 23.6484C56.9255 23.0293 56.5576 22.7521 56.1587 22.3532L56.2929 22.0313H56.8498C57.1879 22.0307 57.512 21.8961 57.751 21.657C57.99 21.4179 58.1245 21.0938 58.125 20.7557V17.8388C58.1245 17.5314 58.0125 17.2347 57.8098 17.0037C57.3918 16.4998 56.8613 16.5638 56.2931 16.5638L56.1594 16.2411L56.5533 15.8473C56.792 15.608 56.9261 15.2838 56.9261 14.9458C56.9261 14.6078 56.792 14.2836 56.5533 14.0443L54.4908 11.9818C54.3725 11.8634 54.2319 11.7695 54.0772 11.7055C53.9225 11.6415 53.7567 11.6087 53.5893 11.6089C52.9702 11.6089 52.6929 11.9767 52.294 12.3757L51.9714 12.242V11.6849C51.9707 11.3469 51.8362 11.023 51.5972 10.784C51.3583 10.545 51.0343 10.4105 50.6964 10.4099L47.779 10.4102ZM50.4743 11.9074H48.0016V12.7734H47.9987C47.9987 12.9334 47.9472 13.0891 47.8519 13.2176C47.7565 13.346 47.6225 13.4405 47.4694 13.4869C47.1133 13.5985 46.7673 13.7399 46.4351 13.9097C46.2912 14.0027 46.1199 14.0435 45.9496 14.0254C45.7793 14.0073 45.6203 13.9314 45.4992 13.8103L44.8866 13.1977L43.138 14.9461L43.7508 15.5589L43.7488 15.5607C43.8618 15.6738 43.9355 15.8202 43.959 15.9783C43.9825 16.1364 43.9546 16.2979 43.8793 16.4389C43.7062 16.7693 43.5612 17.1137 43.4457 17.4683C43.41 17.6361 43.3178 17.7865 43.1845 17.8944C43.0513 18.0024 42.8849 18.0613 42.7134 18.0613H41.8477V20.5339H42.7137V20.5369C42.8736 20.5369 43.0293 20.5884 43.1578 20.6837C43.2862 20.779 43.3807 20.913 43.4271 21.0661C43.5387 21.4222 43.6801 21.7682 43.8499 22.1005C43.9429 22.2443 43.9837 22.4157 43.9657 22.586C43.9476 22.7563 43.8717 22.9152 43.7507 23.0364L43.1379 23.649L44.8864 25.3976L45.4991 24.7848L45.501 24.7867C45.6141 24.6736 45.7606 24.5998 45.9189 24.5763C46.0771 24.5528 46.2387 24.5808 46.3799 24.6561C46.7102 24.8293 47.0545 24.9743 47.4091 25.0897C47.5769 25.1254 47.7273 25.2176 47.8352 25.3509C47.9432 25.4842 48.0021 25.6505 48.0021 25.822V26.6879H50.4748V25.822H50.4777C50.4777 25.6621 50.5292 25.5064 50.6245 25.3779C50.7199 25.2494 50.854 25.155 51.007 25.1086C51.3632 24.9969 51.7092 24.8555 52.0416 24.6857C52.1854 24.5928 52.3567 24.5519 52.5269 24.57C52.6972 24.5881 52.8561 24.664 52.9772 24.785L53.5898 25.3978L55.3373 23.6484L54.7246 23.0358L54.7264 23.0339C54.6135 22.9208 54.5398 22.7744 54.5163 22.6163C54.4928 22.4582 54.5207 22.2967 54.5959 22.1556C54.7691 21.8252 54.9141 21.4808 55.0295 21.1261C55.0652 20.9584 55.1574 20.808 55.2907 20.7001C55.424 20.5923 55.5902 20.5334 55.7617 20.5334H56.6276V18.0607H55.7617V18.0586C55.6017 18.0585 55.446 18.0071 55.3175 17.9117C55.1891 17.8164 55.0947 17.6823 55.0482 17.5293C54.9366 17.1732 54.7951 16.8273 54.6254 16.495C54.5324 16.3511 54.4916 16.1798 54.5096 16.0095C54.5277 15.8392 54.6036 15.6802 54.7247 15.5591L55.3375 14.9463L53.5889 13.1979L52.9762 13.8105L52.9744 13.8087C52.8613 13.9218 52.7147 13.9956 52.5565 14.0191C52.3982 14.0426 52.2366 14.0146 52.0955 13.9392C51.7651 13.7661 51.4207 13.621 51.066 13.5056C50.8984 13.4698 50.7481 13.3775 50.6404 13.2443C50.5326 13.111 50.4738 12.9448 50.4737 12.7734V11.9074H50.4743ZM36.3098 47.3555C36.2108 47.3567 36.1124 47.3383 36.0205 47.3012C35.9286 47.2641 35.845 47.2092 35.7745 47.1396C35.704 47.0699 35.648 46.987 35.6098 46.8956C35.5716 46.8041 35.5519 46.706 35.5519 46.6069C35.5519 46.5078 35.5716 46.4097 35.6098 46.3183C35.648 46.2269 35.704 46.1439 35.7745 46.0743C35.845 46.0047 35.9286 45.9497 36.0205 45.9127C36.1124 45.8756 36.2108 45.8572 36.3098 45.8584H50.2861C50.3852 45.8572 50.4835 45.8756 50.5754 45.9127C50.6673 45.9497 50.751 46.0047 50.8215 46.0743C50.892 46.1439 50.948 46.2269 50.9862 46.3183C51.0244 46.4097 51.0441 46.5078 51.0441 46.6069C51.0441 46.706 51.0244 46.8041 50.9862 46.8956C50.948 46.987 50.892 47.0699 50.8215 47.1396C50.751 47.2092 50.6673 47.2641 50.5754 47.3012C50.4835 47.3383 50.3852 47.3567 50.2861 47.3555H36.3098ZM36.3098 43.5218C36.1113 43.5218 35.9209 43.4429 35.7805 43.3025C35.6401 43.1622 35.5612 42.9717 35.5612 42.7732C35.5612 42.5747 35.6401 42.3843 35.7805 42.2439C35.9209 42.1035 36.1113 42.0246 36.3098 42.0246H50.2861C50.4846 42.0246 50.675 42.1035 50.8154 42.2439C50.9558 42.3843 51.0347 42.5747 51.0347 42.7732C51.0347 42.9717 50.9558 43.1622 50.8154 43.3025C50.675 43.4429 50.4846 43.5218 50.2861 43.5218H36.3098ZM36.3098 39.412C36.2108 39.4133 36.1124 39.3948 36.0205 39.3578C35.9286 39.3207 35.845 39.2658 35.7745 39.1961C35.704 39.1265 35.648 39.0436 35.6098 38.9521C35.5716 38.8607 35.5519 38.7626 35.5519 38.6635C35.5519 38.5644 35.5716 38.4663 35.6098 38.3749C35.648 38.2834 35.704 38.2005 35.7745 38.1309C35.845 38.0612 35.9286 38.0063 36.0205 37.9692C36.1124 37.9322 36.2108 37.9137 36.3098 37.915H43.298C43.3971 37.9137 43.4954 37.9322 43.5873 37.9692C43.6792 38.0063 43.7628 38.0612 43.8334 38.1309C43.9039 38.2005 43.9598 38.2834 43.998 38.3749C44.0363 38.4663 44.0559 38.5644 44.0559 38.6635C44.0559 38.7626 44.0363 38.8607 43.998 38.9521C43.9598 39.0436 43.9039 39.1265 43.8334 39.1961C43.7628 39.2658 43.6792 39.3207 43.5873 39.3578C43.4954 39.3948 43.3971 39.4133 43.298 39.412H36.3098ZM37.6147 32.1987H32.2601C31.6465 32.2001 31.0585 32.4444 30.6246 32.8783C30.1908 33.3121 29.9464 33.9002 29.945 34.5137V38.4211L21.2422 43.4441V24.5323L37.6147 15.0796V32.1982V32.1987ZM29.945 40.144L29.8028 40.226L20.9128 45.3588C20.789 45.4426 20.6429 45.4873 20.4935 45.4873C20.344 45.4873 20.1979 45.4426 20.0741 45.3588L2.29688 35.0946C2.17038 35.0333 2.06372 34.9375 1.98911 34.8184C1.9145 34.6992 1.87495 34.5615 1.875 34.4209V13.7868H1.87664C1.8765 13.6791 1.89981 13.5727 1.94496 13.4749L1.94801 13.4686L1.95152 13.461L1.95867 13.4468V13.4459C1.99003 13.3845 2.02975 13.3279 2.07668 13.2775L2.07891 13.275L2.0877 13.266L2.0973 13.2563L2.0993 13.2544L2.10691 13.2469L2.10879 13.2451C2.154 13.2022 2.20444 13.1651 2.25891 13.1347L11.1837 7.982L11.1844 7.98328L20.111 2.8295C20.2247 2.76167 20.3544 2.72536 20.4868 2.72431C20.6192 2.72326 20.7494 2.75751 20.8642 2.82352L29.802 7.982L38.6899 13.1133C38.8164 13.1746 38.9231 13.2704 38.9977 13.3895C39.0723 13.5087 39.1118 13.6464 39.1118 13.787V32.1982H54.3359C54.9494 32.1996 55.5375 32.4439 55.9714 32.8778C56.4053 33.3116 56.6496 33.8997 56.651 34.5132V50.5328C56.6496 51.1463 56.4052 51.7344 55.9713 52.1682C55.5375 52.602 54.9494 52.8463 54.3359 52.8477H51.3693V56.5296H51.3661C51.3659 56.6602 51.3313 56.7885 51.266 56.9016C51.2006 57.0147 51.1067 57.1086 50.9936 57.1741C50.8806 57.2395 50.7523 57.2741 50.6217 57.2744C50.4911 57.2747 50.3627 57.2407 50.2493 57.1758L42.75 52.8473H32.2601C31.6465 52.846 31.0585 52.6016 30.6247 52.1678C30.1908 51.734 29.9465 51.146 29.945 50.5324V40.1434V40.144ZM5.55117 32.3034L9.03223 34.3132C9.11708 34.3624 9.21079 34.3943 9.308 34.4073C9.4052 34.4202 9.50401 34.4139 9.59877 34.3886C9.69353 34.3634 9.78239 34.3197 9.86027 34.2601C9.93816 34.2005 10.0035 34.1262 10.0527 34.0413C10.1018 33.9565 10.1338 33.8628 10.1467 33.7656C10.1597 33.6684 10.1533 33.5696 10.1281 33.4748C10.1029 33.38 10.0592 33.2912 9.99961 33.2133C9.94002 33.1354 9.86568 33.07 9.78082 33.0209L6.30035 31.011C6.21544 30.9607 6.12141 30.9277 6.02368 30.914C5.92596 30.9003 5.82648 30.9061 5.73101 30.931C5.63553 30.956 5.54594 30.9996 5.46743 31.0594C5.38891 31.1191 5.32302 31.1939 5.27356 31.2793C5.2241 31.3647 5.19205 31.459 5.17927 31.5569C5.16649 31.6547 5.17323 31.7541 5.1991 31.8494C5.22497 31.9446 5.26945 32.0338 5.32998 32.1117C5.39051 32.1896 5.46589 32.2548 5.55176 32.3034H5.55117ZM31.692 10.7968L15.3154 20.2519L20.495 23.2424L36.8713 13.7876L31.6916 10.7968H31.692ZM14.4185 21.4586V27.835C14.4184 27.9894 14.3706 28.14 14.2816 28.2661C14.1926 28.3923 14.0668 28.4879 13.9213 28.5397C13.7759 28.5916 13.618 28.5973 13.4692 28.556C13.3205 28.5146 13.1881 28.4283 13.0903 28.3089L11.0007 26.0742L9.38086 26.5936C9.26893 26.6294 9.15014 26.6383 9.03413 26.6195C8.91812 26.6008 8.80817 26.5549 8.71322 26.4857C8.61827 26.4165 8.541 26.3258 8.4877 26.221C8.43439 26.1163 8.40655 26.0005 8.40645 25.883H8.40422V17.9864L3.37242 15.0812V33.9908L19.745 43.4435V24.534L14.4183 21.4586H14.4185ZM9.30469 16.7813L25.6821 7.32645L20.4936 4.33032L11.9323 9.27317L11.933 9.27446L4.1175 13.7868L9.30469 16.7813ZM27.1758 8.18883L10.7985 17.6441L13.8219 19.3902L30.1985 9.93446L27.1751 8.18836L27.1758 8.18883ZM9.90141 18.8508V24.8592L10.9622 24.5194C11.1007 24.4676 11.2515 24.4582 11.3955 24.4922C11.5394 24.5262 11.67 24.6021 11.7708 24.7104L12.9214 25.9409V20.5942L9.90141 18.8508Z" fill="white"/>
</svg>
