<svg width="60" height="60" viewBox="0 0 60 60" fill="none" xmlns="http://www.w3.org/2000/svg">
<path d="M15.6563 25.0781C15.6563 25.4649 15.3398 25.7813 14.9531 25.7813C14.5664 25.7813 14.25 25.4649 14.25 25.0781C14.25 24.3164 12.6094 23.8242 11.6836 24.5156C11.4727 24.6797 11.332 24.8789 11.332 25.0781C11.332 25.7109 12.1172 25.8399 12.9141 25.9805C14.2852 26.2266 15.6563 26.4609 15.6563 28.2656C15.6563 29.4492 14.625 30.2695 13.5 30.4922V30.9258C13.5 31.3125 13.1836 31.6289 12.7969 31.6289C12.4102 31.6289 12.0937 31.3125 12.0937 30.9258V30.4922C10.957 30.2578 9.92578 29.4375 9.92578 28.2656C9.92578 27.8789 10.2422 27.5625 10.6289 27.5625C11.0156 27.5625 11.332 27.8789 11.332 28.2656C11.332 29.0274 12.9727 29.5195 13.8984 28.8281C14.1094 28.6641 14.25 28.4649 14.25 28.2656C14.25 27.6445 13.4648 27.5039 12.668 27.3633C11.2969 27.1289 9.92578 26.8828 9.92578 25.0781C9.92578 23.8945 10.957 23.0742 12.0937 22.8516V22.418C12.0937 22.0313 12.4102 21.7149 12.7969 21.7149C13.1836 21.7149 13.5 22.0313 13.5 22.418V22.8516C14.625 23.0742 15.6563 23.8945 15.6563 25.0781ZM15.6563 38.2149C15.6563 38.6016 15.3398 38.918 14.9531 38.918C14.5664 38.918 14.25 38.6016 14.25 38.2149C14.25 37.4531 12.6094 36.9609 11.6836 37.6524C11.4727 37.8164 11.332 38.0156 11.332 38.2149C11.332 38.8359 12.1172 38.9766 12.9141 39.1172C14.2852 39.3516 15.6563 39.5977 15.6563 41.4024C15.6563 42.5742 14.625 43.4063 13.5 43.6289V44.0625C13.5 44.4492 13.1836 44.7656 12.7969 44.7656C12.4102 44.7656 12.0937 44.4492 12.0937 44.0625V43.6289C10.957 43.3945 9.92578 42.5742 9.92578 41.4024C9.92578 41.0156 10.2422 40.6992 10.6289 40.6992C11.0156 40.6992 11.332 41.0156 11.332 41.4024C11.332 42.1641 12.9727 42.6563 13.8984 41.9649C14.1094 41.8008 14.25 41.6016 14.25 41.4024C14.25 40.7695 13.4648 40.6406 12.668 40.5C11.2969 40.2539 9.92578 40.0195 9.92578 38.2149C9.92578 37.0313 10.957 36.2109 12.0937 35.9883V35.5547C12.0937 35.168 12.4102 34.8516 12.7969 34.8516C13.1836 34.8516 13.5 35.168 13.5 35.5547V35.9883C14.625 36.2109 15.6563 37.0313 15.6563 38.2149ZM15.6563 11.9414C15.6563 12.3281 15.3398 12.6445 14.9531 12.6445C14.5664 12.6445 14.25 12.3281 14.25 11.9414C14.25 11.1797 12.6094 10.6875 11.6836 11.3789C11.4727 11.543 11.332 11.7422 11.332 11.9414C11.332 12.5625 12.1172 12.7031 12.9141 12.8438C14.2852 13.0899 15.6563 13.3242 15.6563 15.1289C15.6563 16.3125 14.625 17.1328 13.5 17.3555V17.7891C13.5 18.1758 13.1836 18.4922 12.7969 18.4922C12.4102 18.4922 12.0937 18.1758 12.0937 17.7891V17.3555C10.957 17.1211 9.92578 16.3008 9.92578 15.1289C9.92578 14.7422 10.2422 14.4258 10.6289 14.4258C11.0156 14.4258 11.332 14.7422 11.332 15.1289C11.332 15.8906 12.9727 16.3828 13.8984 15.6914C14.1094 15.5391 14.25 15.3281 14.25 15.1289C14.25 14.4961 13.4648 14.3672 12.668 14.2266C11.2969 13.9805 9.92578 13.7461 9.92578 11.9414C9.92578 10.7578 10.957 9.93751 12.0937 9.71485V9.28126C12.0937 8.89454 12.4102 8.57813 12.7969 8.57813C13.1836 8.57813 13.5 8.89454 13.5 9.28126V9.71485C14.625 9.93751 15.6563 10.7578 15.6563 11.9414ZM19.0078 15.8789C18.6211 15.8789 18.3047 15.5625 18.3047 15.1758C18.3047 14.7891 18.6211 14.4727 19.0078 14.4727H37.4062C37.793 14.4727 38.1094 14.7891 38.1094 15.1758C38.1094 15.5625 37.793 15.8789 37.4062 15.8789H19.0078ZM19.0078 12.6797C18.6211 12.6797 18.3047 12.3633 18.3047 11.9766C18.3047 11.5899 18.6211 11.2734 19.0078 11.2734H37.4062C37.793 11.2734 38.1094 11.5899 38.1094 11.9766C38.1094 12.3633 37.793 12.6797 37.4062 12.6797H19.0078ZM41.7891 16.6406H48.3281V7.60548C48.3281 4.73438 44.8242 3.22266 42.75 5.29688C42.1641 5.88282 41.7891 6.70313 41.7891 7.60548V16.6406ZM22.1836 24.2578H40.3828V7.60548C40.3828 6.32813 40.8984 5.1797 41.7305 4.33595H10.3828C8.58984 4.33595 7.11328 5.80079 7.11328 7.60548V49.0078H21.4805V42.2813H19.0195C18.6328 42.2813 18.3164 41.9649 18.3164 41.5781C18.3164 41.1914 18.6328 40.875 19.0195 40.875H21.4805V39.082H19.0195C18.6328 39.082 18.3164 38.7656 18.3164 38.3789C18.3164 37.9922 18.6328 37.6758 19.0195 37.6758H21.4805V29.0742H19.0195C18.6328 29.0742 18.3164 28.7578 18.3164 28.3711C18.3164 27.9844 18.6328 27.668 19.0195 27.668H21.4805V24.9609C21.4805 24.5742 21.7969 24.2578 22.1836 24.2578ZM43.9453 25.6641V37.7109C43.9453 38.3086 43.2422 38.6367 42.7852 38.2383L37.8867 33.9844L33.0352 38.2031C32.5312 38.6719 31.8281 38.2969 31.8281 37.7109V25.6641H22.8867V55.6641H52.8867V25.6641H43.9453ZM33.2344 25.6641V36.1758L37.4297 32.5313C37.6992 32.2969 38.0977 32.3086 38.3555 32.543L42.5391 36.1758V25.6641H33.2344ZM49.1484 45.4453C49.5352 45.4453 49.8516 45.7617 49.8516 46.1484C49.8516 46.5352 49.5352 46.8516 49.1484 46.8516H40.9453C40.5586 46.8516 40.2422 46.5352 40.2422 46.1484C40.2422 45.7617 40.5586 45.4453 40.9453 45.4453H49.1484ZM49.1484 48.4102C49.5352 48.4102 49.8516 48.7266 49.8516 49.1133C49.8516 49.5 49.5352 49.8164 49.1484 49.8164H40.9453C40.5586 49.8164 40.2422 49.5 40.2422 49.1133C40.2422 48.7266 40.5586 48.4102 40.9453 48.4102H49.1484ZM49.1484 51.375C49.5352 51.375 49.8516 51.6914 49.8516 52.0781C49.8516 52.4649 49.5352 52.7813 49.1484 52.7813H40.9453C40.5586 52.7813 40.2422 52.4649 40.2422 52.0781C40.2422 51.6914 40.5586 51.375 40.9453 51.375H49.1484Z" fill="white"/>
</svg>
