<svg width="60" height="60" viewBox="0 0 60 60" fill="none" xmlns="http://www.w3.org/2000/svg">
<path d="M56.25 32.8125H30C28.4494 32.8125 27.1875 34.0744 27.1875 35.625V56.25C27.1875 57.8006 28.4494 59.0625 30 59.0625H56.25C57.8006 59.0625 59.0625 57.8006 59.0625 56.25V35.625C59.0625 34.0744 57.8006 32.8125 56.25 32.8125ZM42.1875 36.5625V40.3125H40.3125V34.6875H45.9375V40.3125H44.0625V36.5625H42.1875ZM57.1875 56.25C57.1875 56.7666 56.7675 57.1875 56.25 57.1875H30C29.4825 57.1875 29.0625 56.7666 29.0625 56.25V35.625C29.0625 35.1084 29.4825 34.6875 30 34.6875H38.4375V40.3125C38.4375 41.3466 39.2784 42.1875 40.3125 42.1875H45.9375C46.9716 42.1875 47.8125 41.3466 47.8125 40.3125V34.6875H56.25C56.7675 34.6875 57.1875 35.1084 57.1875 35.625V56.25Z" fill="white"/>
<path d="M4.6875 53.4375H6.5625V55.3125H4.6875V53.4375Z" fill="white"/>
<path d="M10.3125 53.4375H12.1875V55.3125H10.3125V53.4375Z" fill="white"/>
<path d="M21.5625 53.4375H23.4375V55.3125H21.5625V53.4375Z" fill="white"/>
<path d="M15.9375 53.4375H17.8125V55.3125H15.9375V53.4375Z" fill="white"/>
<path d="M5.35028 44.7253L9.37497 40.7006L13.3997 44.7253L14.7253 43.3997L10.7006 39.375L14.7253 35.3503L13.3997 34.0247L9.37497 38.0494L5.35028 34.0247L4.02466 35.3503L8.04935 39.375L4.02466 43.3997L5.35028 44.7253Z" fill="white"/>
<path d="M15.9375 21.5625H2.8125V8.4375H14.0625V6.5625H2.8125C1.77844 6.5625 0.9375 7.40344 0.9375 8.4375V21.5625C0.9375 22.5966 1.77844 23.4375 2.8125 23.4375H8.4375V30.9375H2.8125C1.77844 30.9375 0.9375 31.7784 0.9375 32.8125V45.9375C0.9375 46.9716 1.77844 47.8125 2.8125 47.8125H15.9375C16.9716 47.8125 17.8125 46.9716 17.8125 45.9375V32.8125C17.8125 31.7784 16.9716 30.9375 15.9375 30.9375H10.3125V23.4375H15.9375C16.9716 23.4375 17.8125 22.5966 17.8125 21.5625V17.8125H15.9375V21.5625ZM15.9384 45.9375H2.8125V32.8125H15.9375L15.9384 45.9375Z" fill="white"/>
<path d="M15.9375 15C15.9375 15.9488 16.5038 16.7981 17.3794 17.1638L27.4172 21.3459C27.7613 21.4894 28.1259 21.5625 28.5 21.5625H52.5C56.1178 21.5625 59.0625 18.6187 59.0625 15C59.0625 11.3813 56.1178 8.4375 52.5 8.4375H28.5C28.1259 8.4375 27.7613 8.51062 27.4181 8.65406L17.3794 12.8363C16.5038 13.2019 15.9375 14.0512 15.9375 15ZM51.5625 19.6875H49.6875V10.3125H51.5625V19.6875ZM29.0625 15.9375H47.8125V19.6875H29.0625V15.9375ZM47.8125 14.0625H29.0625V10.3125H47.8125V14.0625ZM27.1875 19.2188L23.4375 17.6559V12.3431L27.1875 10.7812V19.2188ZM57.1875 15C57.1875 17.2631 55.5741 19.1569 53.4375 19.5928V10.4072C55.5741 10.8431 57.1875 12.7369 57.1875 15ZM18.1013 14.5669L21.5625 13.125V16.875L18.1013 15.4331C17.9259 15.36 17.8125 15.1903 17.8125 15C17.8125 14.8097 17.9259 14.64 18.1013 14.5669Z" fill="white"/>
<path d="M7.3125 14.4375L5.8125 15.5625L9.42 20.3728L21.405 2.39532L19.845 1.35469L9.33 17.1272L7.3125 14.4375Z" fill="white"/>
</svg>
