<svg width="60" height="60" viewBox="0 0 60 60" fill="none" xmlns="http://www.w3.org/2000/svg">
<g clip-path="url(#clip0_85_393)">
<path d="M19.6875 19.6875H21.5625V21.5625H19.6875V19.6875Z" fill="white"/>
<path d="M12.1875 19.6875H14.0625V21.5625H12.1875V19.6875Z" fill="white"/>
<path d="M15.9375 19.6875H17.8125V21.5625H15.9375V19.6875Z" fill="white"/>
<path d="M8.4375 19.6875H10.3125V21.5625H8.4375V19.6875Z" fill="white"/>
<path d="M19.4128 7.22531L18.0872 5.89969L13.125 10.8619L11.9128 9.64969L10.5872 10.9753L13.125 13.5131L19.4128 7.22531Z" fill="white"/>
<path d="M35.625 33.75C36.1428 33.75 36.5625 33.3303 36.5625 32.8125C36.5625 32.2947 36.1428 31.875 35.625 31.875C35.1072 31.875 34.6875 32.2947 34.6875 32.8125C34.6875 33.3303 35.1072 33.75 35.625 33.75Z" fill="white"/>
<path d="M48.75 33.75C49.2678 33.75 49.6875 33.3303 49.6875 32.8125C49.6875 32.2947 49.2678 31.875 48.75 31.875C48.2322 31.875 47.8125 32.2947 47.8125 32.8125C47.8125 33.3303 48.2322 33.75 48.75 33.75Z" fill="white"/>
<path d="M59.0625 32.8125C59.0625 29.7103 56.5397 27.1875 53.4375 27.1875V10.3125H32.8125V27.1875H27.4284C28.4681 25.2262 29.0625 22.995 29.0625 20.625C29.0625 16.2066 26.9587 12.0647 23.4356 9.40969C23.4356 9.39844 23.4375 9.38719 23.4375 9.375C23.4375 4.72219 19.6528 0.9375 15 0.9375C10.3472 0.9375 6.5625 4.72219 6.5625 9.375C6.5625 9.38719 6.56437 9.39844 6.56437 9.40969C3.04125 12.0647 0.9375 16.2066 0.9375 20.625C0.9375 26.2397 4.2525 31.0819 9.02063 33.3347C8.66344 33.6759 8.4375 34.155 8.4375 34.6875C8.4375 35.3897 8.64375 36.0403 8.98031 36.6028C7.61719 36.7959 6.5625 37.9594 6.5625 39.375C6.5625 40.0978 6.84469 40.7513 7.29375 41.25C6.84469 41.7487 6.5625 42.4022 6.5625 43.125C6.5625 43.8478 6.84469 44.5013 7.29375 45C6.84469 45.4987 6.5625 46.1522 6.5625 46.875C6.5625 47.5978 6.84469 48.2513 7.29375 48.75C6.84469 49.2487 6.5625 49.9022 6.5625 50.625C6.5625 52.1756 7.82438 53.4375 9.375 53.4375H10.3125V54.375C10.3125 56.9597 12.4153 59.0625 15 59.0625C17.5847 59.0625 19.6875 56.9597 19.6875 54.375V53.4375H20.4797C21.3187 53.4375 22.1381 53.28 22.9172 52.9688L26.4319 51.5625H59.0625V49.6875H34.0069C35.5697 48.3122 36.5625 46.3031 36.5625 44.0625C36.5625 41.8219 35.5697 39.8128 34.0069 38.4375H53.4375H59.0625V36.5625H57.6187C58.5131 35.5659 59.0625 34.2544 59.0625 32.8125ZM42.1875 14.0625V15.9375H40.3125V12.1875H45.9375V15.9375H44.0625V14.0625H42.1875ZM34.6875 12.1875H38.4375V17.8125H47.8125V12.1875H51.5625V27.1875H34.6875V12.1875ZM48.75 35.625C47.1994 35.625 45.9375 34.3631 45.9375 32.8125C45.9375 31.2619 47.1994 30 48.75 30C50.3006 30 51.5625 31.2619 51.5625 32.8125C51.5625 34.3631 50.3006 35.625 48.75 35.625ZM44.0625 32.8125C44.0625 34.3509 44.8181 35.7075 45.9666 36.5625H38.4084C39.5569 35.7075 40.3125 34.3509 40.3125 32.8125C40.3125 31.2741 39.5569 29.9175 38.4084 29.0625H45.9666C44.8181 29.9175 44.0625 31.2741 44.0625 32.8125ZM35.625 30C37.1756 30 38.4375 31.2619 38.4375 32.8125C38.4375 34.3631 37.1756 35.625 35.625 35.625C34.0744 35.625 32.8125 34.3631 32.8125 32.8125C32.8125 31.2619 34.0744 30 35.625 30ZM15 17.8125C17.49 17.8125 19.725 16.7222 21.2709 15C22.6556 16.5422 23.4375 18.5419 23.4375 20.625C23.4375 25.2778 19.6528 29.0625 15 29.0625C10.3472 29.0625 6.5625 25.2778 6.5625 20.625C6.5625 18.5419 7.34437 16.5422 8.72906 15C10.275 16.7222 12.51 17.8125 15 17.8125ZM15 2.8125C18.6178 2.8125 21.5625 5.75719 21.5625 9.375C21.5625 12.9928 18.6178 15.9375 15 15.9375C11.3822 15.9375 8.4375 12.9928 8.4375 9.375C8.4375 5.75719 11.3822 2.8125 15 2.8125ZM2.8125 20.625C2.8125 17.1516 4.30406 13.8647 6.86062 11.5659C7.03969 12.2306 7.29188 12.8644 7.61813 13.4541C5.75344 15.3741 4.6875 17.9409 4.6875 20.625C4.6875 26.3109 9.31406 30.9375 15 30.9375C20.6859 30.9375 25.3125 26.3109 25.3125 20.625C25.3125 17.9409 24.2466 15.3741 22.3809 13.4541C22.7081 12.8644 22.9594 12.2306 23.1384 11.5659C25.6959 13.8647 27.1875 17.1516 27.1875 20.625C27.1875 27.345 21.72 32.8125 15 32.8125C8.28 32.8125 2.8125 27.345 2.8125 20.625ZM9.375 38.4375H12.1875H13.125C13.6425 38.4375 14.0625 38.8575 14.0625 39.375C14.0625 39.8925 13.6425 40.3125 13.125 40.3125H9.375C8.8575 40.3125 8.4375 39.8925 8.4375 39.375C8.4375 38.8575 8.8575 38.4375 9.375 38.4375ZM8.4375 46.875C8.4375 46.3575 8.8575 45.9375 9.375 45.9375H13.125C13.6425 45.9375 14.0625 46.3575 14.0625 46.875C14.0625 47.3925 13.6425 47.8125 13.125 47.8125H9.375C8.8575 47.8125 8.4375 47.3925 8.4375 46.875ZM8.4375 43.125C8.4375 42.6075 8.8575 42.1875 9.375 42.1875H13.125C13.6425 42.1875 14.0625 42.6075 14.0625 43.125C14.0625 43.6425 13.6425 44.0625 13.125 44.0625H9.375C8.8575 44.0625 8.4375 43.6425 8.4375 43.125ZM8.4375 50.625C8.4375 50.1075 8.8575 49.6875 9.375 49.6875H13.125C13.6425 49.6875 14.0625 50.1075 14.0625 50.625C14.0625 51.1425 13.6425 51.5625 13.125 51.5625H9.375C8.8575 51.5625 8.4375 51.1425 8.4375 50.625ZM15 57.1875C13.4494 57.1875 12.1875 55.9256 12.1875 54.375V53.4375H13.125C14.6756 53.4375 15.9375 52.1756 15.9375 50.625C15.9375 49.9022 15.6553 49.2487 15.2062 48.75C15.6562 48.2513 15.9375 47.5978 15.9375 46.875C15.9375 46.1522 15.6553 45.4987 15.2062 45C15.6562 44.5013 15.9375 43.8478 15.9375 43.125C15.9375 42.4022 15.6553 41.7487 15.2062 41.25C15.6562 40.7513 15.9375 40.0978 15.9375 39.375C15.9375 39.045 15.87 38.7319 15.765 38.4375H16.4869L17.3766 39.3272C17.5163 39.4669 17.6625 39.5972 17.8125 39.7228V54.375C17.8125 55.9256 16.5506 57.1875 15 57.1875ZM22.2206 51.2278C21.6637 51.45 21.0778 51.5625 20.4797 51.5625H19.6875V40.8188C20.4225 41.0981 21.2072 41.25 22.0172 41.25H23.4375V39.375H22.0172C20.7647 39.375 19.5872 38.8866 18.7022 38.0016L17.2631 36.5625H13.125H12.1875C11.1534 36.5625 10.3125 35.7216 10.3125 34.6875H19.59C20.6503 34.6875 21.69 35.0522 22.5178 35.715L25.3125 37.9509V49.9903L22.2206 51.2278ZM34.6875 44.0625C34.6875 47.1647 32.1647 49.6875 29.0625 49.6875H27.1875V38.4375H28.125H29.0625C32.1647 38.4375 34.6875 40.9603 34.6875 44.0625ZM28.125 36.5625H26.58L23.6897 34.2497C23.0269 33.72 22.2628 33.345 21.4566 33.1041C23.3353 32.1281 24.9591 30.7406 26.2247 29.0616H32.8125H32.8416C31.6931 29.9175 30.9375 31.2741 30.9375 32.8125C30.9375 34.3509 31.6931 35.7075 32.8416 36.5625H28.125ZM51.5334 36.5625C52.6819 35.7075 53.4375 34.3509 53.4375 32.8125C53.4375 31.2741 52.6819 29.9175 51.5334 29.0625H53.4375C55.5056 29.0625 57.1875 30.7444 57.1875 32.8125C57.1875 34.8806 55.5056 36.5625 53.4375 36.5625H51.5334Z" fill="white"/>
<path d="M31.875 45C32.3928 45 32.8125 44.5803 32.8125 44.0625C32.8125 43.5447 32.3928 43.125 31.875 43.125C31.3572 43.125 30.9375 43.5447 30.9375 44.0625C30.9375 44.5803 31.3572 45 31.875 45Z" fill="white"/>
</g>
<defs>
<clipPath id="clip0_85_393">
<rect width="60" height="60" fill="white"/>
</clipPath>
</defs>
</svg>
