<svg width="27" height="22" viewBox="0 0 27 22" fill="none" xmlns="http://www.w3.org/2000/svg">
<path d="M26.6743 2.76153C26.0538 3.39414 25.1939 3.78513 24.2414 3.78513C24.1204 3.78513 23.9995 3.77863 23.8824 3.76564C24.8761 3.16422 25.6432 2.22245 26.0255 1.09883C26.0255 1.09883 26.0268 1.09883 26.0268 1.09754C26.0795 0.946853 26.1246 0.794872 26.1606 0.637695C25.3742 1.48593 24.2994 2.06008 23.0933 2.19647C22.9079 2.21856 22.72 2.22895 22.5295 2.22895C22.469 2.22895 22.4111 2.22765 22.3531 2.22375C21.9451 1.79119 21.4586 1.43397 20.9192 1.17158C20.3181 0.875409 19.6462 0.701345 18.9369 0.679263C18.879 0.675366 18.8211 0.674067 18.7606 0.674067C18.1595 0.674067 17.5829 0.781882 17.05 0.980627C16.9135 1.03129 16.7809 1.08584 16.6509 1.14949C14.9621 1.94837 13.7933 3.67991 13.7933 5.68684C13.7933 6.09862 13.8436 6.4987 13.9349 6.8806C13.4175 6.85982 12.9052 6.80916 12.4032 6.73382C12.2423 6.70784 12.0814 6.68056 11.9218 6.64939C10.641 6.40907 9.41951 5.996 8.28421 5.43484C7.26862 4.93343 6.32126 4.31511 5.46014 3.59548C4.73545 2.99275 4.07257 2.31988 3.48046 1.58465C3.45472 1.55348 3.42893 1.521 3.40447 1.48983C3.36972 1.54309 3.33757 1.59634 3.30925 1.6522C2.89478 2.38353 2.66051 3.22916 2.66051 4.13066C2.66051 4.15794 2.66048 4.18781 2.66176 4.21509C2.67206 4.89056 2.81364 5.53356 3.06722 6.1181C3.17534 6.3779 3.30667 6.62341 3.45727 6.85592C3.90135 7.54568 4.50758 8.11983 5.22325 8.51732C5.25543 8.5381 5.2889 8.55499 5.32237 8.57058C5.27088 8.58097 5.21814 8.59006 5.16537 8.59526C5.01863 8.61475 4.86674 8.62514 4.71485 8.62514C3.95284 8.62514 3.2436 8.38482 2.66308 7.97565C2.65922 8.01851 2.65919 8.06268 2.65919 8.10684C2.65919 9.53832 3.25387 10.8295 4.20639 11.7401C4.94781 12.4545 5.90679 12.9339 6.97258 13.0742C6.589 13.2157 6.17449 13.2924 5.74328 13.2924C5.27603 13.2924 4.82808 13.2028 4.41876 13.0378C5.02889 15.0395 6.84774 16.5074 9.01536 16.5723C7.69084 17.9609 5.8308 18.8234 3.77259 18.8234C2.49313 18.8234 1.29091 18.4896 0.248291 17.9051C2.75444 20.0938 6.02259 21.4162 9.59711 21.4162C17.4966 21.4162 23.8991 14.9551 23.8991 6.98322C23.8991 6.54417 23.8797 6.11031 23.8411 5.68164C25.1476 5.16075 26.1838 4.09688 26.6743 2.76283V2.76153Z" fill="black"/>
</svg>
